<?xml version="1.0" encoding="UTF-8" standalone="no"?>
<!DOCTYPE svg PUBLIC "-//W3C//DTD SVG 1.1//EN"
 "http://www.w3.org/Graphics/SVG/1.1/DTD/svg11.dtd">
<!-- Generated by graphviz version 2.43.0 (0)
 -->
<!-- Title: Menu&lt; TargetType &gt;::Line Pages: 1 -->
<svg width="233pt" height="174pt"
 viewBox="0.00 0.00 232.50 174.00" xmlns="http://www.w3.org/2000/svg" xmlns:xlink="http://www.w3.org/1999/xlink">
<g id="graph0" class="graph" transform="scale(1 1) rotate(0) translate(4 170)">
<title>Menu&lt; TargetType &gt;::Line</title>
<!-- Node1 -->
<g id="node1" class="node">
<title>Node1</title>
<g id="a_node1"><a xlink:title="A command in the menu.">
<polygon fill="#bfbfbf" stroke="black" points="55,-0.5 55,-30.5 174,-30.5 174,-0.5 55,-0.5"/>
<text text-anchor="start" x="63" y="-18.5" font-family="Helvetica,sans-Serif" font-size="10.00">Menu&lt; TargetType &gt;</text>
<text text-anchor="middle" x="114.5" y="-7.5" font-family="Helvetica,sans-Serif" font-size="10.00">::Line</text>
</a>
</g>
</g>
<!-- Node2 -->
<g id="node2" class="node">
<title>Node2</title>
<g id="a_node2"><a xlink:href="classMenu.html" target="_top" xlink:title="A menu to execute commands with a specific target.">
<polygon fill="none" stroke="black" points="0,-78.5 0,-97.5 119,-97.5 119,-78.5 0,-78.5"/>
<text text-anchor="middle" x="59.5" y="-85.5" font-family="Helvetica,sans-Serif" font-size="10.00">Menu&lt; TargetType &gt;</text>
</a>
</g>
</g>
<!-- Node2&#45;&gt;Node1 -->
<g id="edge1" class="edge">
<title>Node2&#45;&gt;Node1</title>
<path fill="none" stroke="#9a32cd" stroke-dasharray="5,2" d="M68.34,-69.5C72.03,-62.83 76.61,-55.32 81.5,-49 86.52,-42.52 92.78,-36.04 98.49,-30.59"/>
<polygon fill="#9a32cd" stroke="#9a32cd" points="65.19,-67.96 63.62,-78.44 71.38,-71.23 65.19,-67.96"/>
<text text-anchor="middle" x="111" y="-52" font-family="Helvetica,sans-Serif" font-size="10.00"> sub_menu_</text>
</g>
<!-- Node3 -->
<g id="node3" class="node">
<title>Node3</title>
<g id="a_node3"><a xlink:href="classBaseMenu.html" target="_top" xlink:title="Type&#45;less menu base for common tasks.">
<polygon fill="none" stroke="black" points="25.5,-141 25.5,-160 93.5,-160 93.5,-141 25.5,-141"/>
<text text-anchor="middle" x="59.5" y="-148" font-family="Helvetica,sans-Serif" font-size="10.00">BaseMenu</text>
</a>
</g>
</g>
<!-- Node3&#45;&gt;Node2 -->
<g id="edge2" class="edge">
<title>Node3&#45;&gt;Node2</title>
<path fill="none" stroke="midnightblue" d="M59.5,-130.5C59.5,-119.5 59.5,-106.18 59.5,-97.65"/>
<polygon fill="midnightblue" stroke="midnightblue" points="56,-130.83 59.5,-140.83 63,-130.83 56,-130.83"/>
</g>
<!-- Node4 -->
<g id="node4" class="node">
<title>Node4</title>
<g id="a_node4"><a target="_parent" xlink:href="http://en.cppreference.com/w/cpp/string/basic_string.html" xlink:title=" ">
<polygon fill="none" stroke="black" points="137,-78.5 137,-97.5 202,-97.5 202,-78.5 137,-78.5"/>
<text text-anchor="middle" x="169.5" y="-85.5" font-family="Helvetica,sans-Serif" font-size="10.00">std::string</text>
</a>
</g>
</g>
<!-- Node4&#45;&gt;Node1 -->
<g id="edge3" class="edge">
<title>Node4&#45;&gt;Node1</title>
<path fill="none" stroke="#9a32cd" stroke-dasharray="5,2" d="M156.66,-70.01C151.65,-63.42 145.84,-55.83 140.5,-49 135.78,-42.96 130.52,-36.36 125.96,-30.68"/>
<polygon fill="#9a32cd" stroke="#9a32cd" points="154.05,-72.35 162.88,-78.2 159.62,-68.12 154.05,-72.35"/>
<text text-anchor="middle" x="186.5" y="-52" font-family="Helvetica,sans-Serif" font-size="10.00"> multiple_cmd_</text>
</g>
<!-- Node5 -->
<g id="node5" class="node">
<title>Node5</title>
<g id="a_node5"><a target="_parent" xlink:href="http://en.cppreference.com/w/cpp/string/basic_string.html" xlink:title=" ">
<polygon fill="none" stroke="black" points="117.5,-135.5 117.5,-165.5 221.5,-165.5 221.5,-135.5 117.5,-135.5"/>
<text text-anchor="start" x="125.5" y="-153.5" font-family="Helvetica,sans-Serif" font-size="10.00">std::basic_string&lt;</text>
<text text-anchor="middle" x="169.5" y="-142.5" font-family="Helvetica,sans-Serif" font-size="10.00"> char &gt;</text>
</a>
</g>
</g>
<!-- Node5&#45;&gt;Node4 -->
<g id="edge4" class="edge">
<title>Node5&#45;&gt;Node4</title>
<path fill="none" stroke="midnightblue" d="M169.5,-125.35C169.5,-115.51 169.5,-104.78 169.5,-97.54"/>
<polygon fill="midnightblue" stroke="midnightblue" points="166,-125.47 169.5,-135.47 173,-125.47 166,-125.47"/>
</g>
</g>
</svg>
