<?xml version="1.0" encoding="UTF-8" standalone="no"?>
<!DOCTYPE svg PUBLIC "-//W3C//DTD SVG 1.1//EN"
 "http://www.w3.org/Graphics/SVG/1.1/DTD/svg11.dtd">
<!-- Generated by graphviz version 2.43.0 (0)
 -->
<!-- Title: pflib::uhal::uhalWishboneInterface Pages: 1 -->
<svg width="246pt" height="95pt"
 viewBox="0.00 0.00 246.00 95.00" xmlns="http://www.w3.org/2000/svg" xmlns:xlink="http://www.w3.org/1999/xlink">
<g id="graph0" class="graph" transform="scale(1 1) rotate(0) translate(4 91)">
<title>pflib::uhal::uhalWishboneInterface</title>
<!-- Node1 -->
<g id="node1" class="node">
<title>Node1</title>
<g id="a_node1"><a xlink:title=" ">
<polygon fill="#bfbfbf" stroke="black" points="61.5,-0.5 61.5,-30.5 201.5,-30.5 201.5,-0.5 61.5,-0.5"/>
<text text-anchor="start" x="69.5" y="-18.5" font-family="Helvetica,sans-Serif" font-size="10.00">pflib::uhal::uhalWishbone</text>
<text text-anchor="middle" x="131.5" y="-7.5" font-family="Helvetica,sans-Serif" font-size="10.00">Interface</text>
</a>
</g>
</g>
<!-- Node2 -->
<g id="node2" class="node">
<title>Node2</title>
<g id="a_node2"><a xlink:href="classpflib_1_1WishboneInterface.html" target="_top" xlink:title="Abstract interface for wishbone transactions, used by ~all classes in pflib.">
<polygon fill="none" stroke="black" points="0,-67.5 0,-86.5 135,-86.5 135,-67.5 0,-67.5"/>
<text text-anchor="middle" x="67.5" y="-74.5" font-family="Helvetica,sans-Serif" font-size="10.00">pflib::WishboneInterface</text>
</a>
</g>
</g>
<!-- Node2&#45;&gt;Node1 -->
<g id="edge1" class="edge">
<title>Node2&#45;&gt;Node1</title>
<path fill="none" stroke="midnightblue" d="M84.02,-60.65C94.02,-51.35 106.68,-39.57 116.42,-30.52"/>
<polygon fill="midnightblue" stroke="midnightblue" points="81.61,-58.1 76.67,-67.48 86.38,-63.23 81.61,-58.1"/>
</g>
<!-- Node3 -->
<g id="node3" class="node">
<title>Node3</title>
<g id="a_node3"><a xlink:href="classpflib_1_1Backend.html" target="_top" xlink:title="Abstract interface for various backend manipulations.">
<polygon fill="none" stroke="black" points="153,-67.5 153,-86.5 238,-86.5 238,-67.5 153,-67.5"/>
<text text-anchor="middle" x="195.5" y="-74.5" font-family="Helvetica,sans-Serif" font-size="10.00">pflib::Backend</text>
</a>
</g>
</g>
<!-- Node3&#45;&gt;Node1 -->
<g id="edge2" class="edge">
<title>Node3&#45;&gt;Node1</title>
<path fill="none" stroke="midnightblue" d="M178.98,-60.65C168.98,-51.35 156.32,-39.57 146.58,-30.52"/>
<polygon fill="midnightblue" stroke="midnightblue" points="176.62,-63.23 186.33,-67.48 181.39,-58.1 176.62,-63.23"/>
</g>
</g>
</svg>
