<?xml version="1.0" encoding="UTF-8" standalone="no"?>
<!DOCTYPE svg PUBLIC "-//W3C//DTD SVG 1.1//EN"
 "http://www.w3.org/Graphics/SVG/1.1/DTD/svg11.dtd">
<!-- Generated by graphviz version 2.43.0 (0)
 -->
<!-- Title: Menu&lt; T, H &gt;::Line Pages: 1 -->
<svg width="544pt" height="155pt"
 viewBox="0.00 0.00 544.00 155.00" xmlns="http://www.w3.org/2000/svg" xmlns:xlink="http://www.w3.org/1999/xlink">
<g id="graph0" class="graph" transform="scale(1 1) rotate(0) translate(4 151)">
<title>Menu&lt; T, H &gt;::Line</title>
<!-- Node1 -->
<g id="node1" class="node">
<title>Node1</title>
<g id="a_node1"><a xlink:title="A command in the menu.">
<polygon fill="#bfbfbf" stroke="black" points="424,-68.5 424,-87.5 536,-87.5 536,-68.5 424,-68.5"/>
<text text-anchor="middle" x="480" y="-75.5" font-family="Helvetica,sans-Serif" font-size="10.00">Menu&lt; T, H &gt;::Line</text>
</a>
</g>
</g>
<!-- Node2 -->
<g id="node2" class="node">
<title>Node2</title>
<g id="a_node2"><a xlink:href="classMenu.html" target="_top" xlink:title="A menu to execute commands with a specific target.">
<polygon fill="none" stroke="black" points="226,-107.5 226,-126.5 312,-126.5 312,-107.5 226,-107.5"/>
<text text-anchor="middle" x="269" y="-114.5" font-family="Helvetica,sans-Serif" font-size="10.00">Menu&lt; T, H &gt;</text>
</a>
</g>
</g>
<!-- Node2&#45;&gt;Node1 -->
<g id="edge1" class="edge">
<title>Node2&#45;&gt;Node1</title>
<path fill="none" stroke="#9a32cd" stroke-dasharray="5,2" d="M322.4,-107.47C347.67,-102.84 378.42,-97.18 406,-92 413.61,-90.57 421.66,-89.04 429.53,-87.54"/>
<polygon fill="#9a32cd" stroke="#9a32cd" points="321.49,-104.07 312.29,-109.31 322.75,-110.96 321.49,-104.07"/>
<text text-anchor="middle" x="374.5" y="-106" font-family="Helvetica,sans-Serif" font-size="10.00"> sub_menu_</text>
</g>
<!-- Node3 -->
<g id="node3" class="node">
<title>Node3</title>
<g id="a_node3"><a xlink:href="classBaseMenu.html" target="_top" xlink:title="Type&#45;less menu base for common tasks.">
<polygon fill="none" stroke="black" points="21,-127.5 21,-146.5 89,-146.5 89,-127.5 21,-127.5"/>
<text text-anchor="middle" x="55" y="-134.5" font-family="Helvetica,sans-Serif" font-size="10.00">BaseMenu</text>
</a>
</g>
</g>
<!-- Node3&#45;&gt;Node2 -->
<g id="edge2" class="edge">
<title>Node3&#45;&gt;Node2</title>
<path fill="none" stroke="midnightblue" d="M99.12,-132.93C136.17,-129.44 189.27,-124.43 225.99,-120.96"/>
<polygon fill="midnightblue" stroke="midnightblue" points="98.75,-129.45 89.12,-133.88 99.41,-136.42 98.75,-129.45"/>
</g>
<!-- Node4 -->
<g id="node4" class="node">
<title>Node4</title>
<g id="a_node4"><a target="_parent" xlink:href="http://en.cppreference.com/w/cpp/utility/functional/function.html" xlink:title=" ">
<polygon fill="none" stroke="black" points="0,-71 0,-101 110,-101 110,-71 0,-71"/>
<text text-anchor="start" x="8" y="-89" font-family="Helvetica,sans-Serif" font-size="10.00">std::function&lt; void</text>
<text text-anchor="middle" x="55" y="-78" font-family="Helvetica,sans-Serif" font-size="10.00">(TargetHandle)&gt;</text>
</a>
</g>
</g>
<!-- Node4&#45;&gt;Node1 -->
<g id="edge4" class="edge">
<title>Node4&#45;&gt;Node1</title>
<path fill="none" stroke="#9a32cd" stroke-dasharray="5,2" d="M120.05,-84.79C202.89,-83.22 345.8,-80.52 423.98,-79.04"/>
<polygon fill="#9a32cd" stroke="#9a32cd" points="119.93,-81.29 110,-84.98 120.07,-88.29 119.93,-81.29"/>
<text text-anchor="middle" x="269" y="-85" font-family="Helvetica,sans-Serif" font-size="10.00"> cmd_</text>
</g>
<!-- Node4&#45;&gt;Node2 -->
<g id="edge3" class="edge">
<title>Node4&#45;&gt;Node2</title>
<path fill="none" stroke="#9a32cd" stroke-dasharray="5,2" d="M119.97,-95.35C154.24,-100.37 195.51,-106.4 225.75,-110.82"/>
<polygon fill="#9a32cd" stroke="#9a32cd" points="120.45,-91.89 110.05,-93.9 119.43,-98.81 120.45,-91.89"/>
<text text-anchor="middle" x="161.5" y="-109" font-family="Helvetica,sans-Serif" font-size="10.00"> render_func_</text>
</g>
<!-- Node5 -->
<g id="node5" class="node">
<title>Node5</title>
<g id="a_node5"><a target="_parent" xlink:href="http://en.cppreference.com/w/cpp/utility/functional/function.html" xlink:title=" ">
<polygon fill="none" stroke="black" points="213,-0.5 213,-41.5 325,-41.5 325,-0.5 213,-0.5"/>
<text text-anchor="start" x="221" y="-29.5" font-family="Helvetica,sans-Serif" font-size="10.00">std::function&lt; void</text>
<text text-anchor="start" x="221" y="-18.5" font-family="Helvetica,sans-Serif" font-size="10.00">(const std::string &amp;,</text>
<text text-anchor="middle" x="269" y="-7.5" font-family="Helvetica,sans-Serif" font-size="10.00"> TargetHandle)&gt;</text>
</a>
</g>
</g>
<!-- Node5&#45;&gt;Node1 -->
<g id="edge5" class="edge">
<title>Node5&#45;&gt;Node1</title>
<path fill="none" stroke="#9a32cd" stroke-dasharray="5,2" d="M335.07,-34.93C357.65,-40.13 383.06,-46.39 406,-53 421.83,-57.56 439.3,-63.51 453.18,-68.46"/>
<polygon fill="#9a32cd" stroke="#9a32cd" points="335.77,-31.5 325.24,-32.7 334.22,-38.33 335.77,-31.5"/>
<text text-anchor="middle" x="374.5" y="-56" font-family="Helvetica,sans-Serif" font-size="10.00"> mult_cmds_</text>
</g>
</g>
</svg>
