<?xml version="1.0" encoding="UTF-8" standalone="no"?>
<!DOCTYPE svg PUBLIC "-//W3C//DTD SVG 1.1//EN"
 "http://www.w3.org/Graphics/SVG/1.1/DTD/svg11.dtd">
<!-- Generated by graphviz version 2.43.0 (0)
 -->
<!-- Title: pflib::WishboneTarget Pages: 1 -->
<svg width="361pt" height="84pt"
 viewBox="0.00 0.00 361.00 84.00" xmlns="http://www.w3.org/2000/svg" xmlns:xlink="http://www.w3.org/1999/xlink">
<g id="graph0" class="graph" transform="scale(1 1) rotate(0) translate(4 80)">
<title>pflib::WishboneTarget</title>
<!-- Node1 -->
<g id="node1" class="node">
<title>Node1</title>
<g id="a_node1"><a xlink:title="Parent class for standard wishbone targets providing some utilities.">
<polygon fill="#bfbfbf" stroke="black" points="129.5,-56.5 129.5,-75.5 251.5,-75.5 251.5,-56.5 129.5,-56.5"/>
<text text-anchor="middle" x="190.5" y="-63.5" font-family="Helvetica,sans-Serif" font-size="10.00">pflib::WishboneTarget</text>
</a>
</g>
</g>
<!-- Node2 -->
<g id="node2" class="node">
<title>Node2</title>
<g id="a_node2"><a xlink:href="classpflib_1_1Elinks.html" target="_top" xlink:title="WishboneTarget for configuring the elinks.">
<polygon fill="none" stroke="black" points="0,-0.5 0,-19.5 73,-19.5 73,-0.5 0,-0.5"/>
<text text-anchor="middle" x="36.5" y="-7.5" font-family="Helvetica,sans-Serif" font-size="10.00">pflib::Elinks</text>
</a>
</g>
</g>
<!-- Node1&#45;&gt;Node2 -->
<g id="edge1" class="edge">
<title>Node1&#45;&gt;Node2</title>
<path fill="none" stroke="midnightblue" d="M156.39,-53.04C127.41,-42.88 86.54,-28.55 60.79,-19.52"/>
<polygon fill="midnightblue" stroke="midnightblue" points="155.5,-56.44 166.1,-56.44 157.82,-49.83 155.5,-56.44"/>
</g>
<!-- Node3 -->
<g id="node3" class="node">
<title>Node3</title>
<g id="a_node3"><a xlink:href="classpflib_1_1FastControl.html" target="_top" xlink:title="Representation of FastControl controller in the Polarfire.">
<polygon fill="none" stroke="black" points="91.5,-0.5 91.5,-19.5 189.5,-19.5 189.5,-0.5 91.5,-0.5"/>
<text text-anchor="middle" x="140.5" y="-7.5" font-family="Helvetica,sans-Serif" font-size="10.00">pflib::FastControl</text>
</a>
</g>
</g>
<!-- Node1&#45;&gt;Node3 -->
<g id="edge2" class="edge">
<title>Node1&#45;&gt;Node3</title>
<path fill="none" stroke="midnightblue" d="M175.42,-48.72C166.61,-39.2 155.83,-27.56 148.6,-19.75"/>
<polygon fill="midnightblue" stroke="midnightblue" points="172.88,-51.12 182.24,-56.08 178.02,-46.37 172.88,-51.12"/>
</g>
<!-- Node4 -->
<g id="node4" class="node">
<title>Node4</title>
<g id="a_node4"><a xlink:href="classpflib_1_1GPIO.html" target="_top" xlink:title="Representation of GPIO controller in the Polarfire.">
<polygon fill="none" stroke="black" points="207.5,-0.5 207.5,-19.5 275.5,-19.5 275.5,-0.5 207.5,-0.5"/>
<text text-anchor="middle" x="241.5" y="-7.5" font-family="Helvetica,sans-Serif" font-size="10.00">pflib::GPIO</text>
</a>
</g>
</g>
<!-- Node1&#45;&gt;Node4 -->
<g id="edge3" class="edge">
<title>Node1&#45;&gt;Node4</title>
<path fill="none" stroke="midnightblue" d="M205.88,-48.72C214.87,-39.2 225.86,-27.56 233.24,-19.75"/>
<polygon fill="midnightblue" stroke="midnightblue" points="203.24,-46.41 198.92,-56.08 208.33,-51.22 203.24,-46.41"/>
</g>
<!-- Node5 -->
<g id="node5" class="node">
<title>Node5</title>
<g id="a_node5"><a xlink:href="classpflib_1_1I2C.html" target="_top" xlink:title="Class which encapsulates the I2C controller in the Polarfire.">
<polygon fill="none" stroke="black" points="294,-0.5 294,-19.5 353,-19.5 353,-0.5 294,-0.5"/>
<text text-anchor="middle" x="323.5" y="-7.5" font-family="Helvetica,sans-Serif" font-size="10.00">pflib::I2C</text>
</a>
</g>
</g>
<!-- Node1&#45;&gt;Node5 -->
<g id="edge4" class="edge">
<title>Node1&#45;&gt;Node5</title>
<path fill="none" stroke="midnightblue" d="M220.95,-52.64C245.91,-42.5 280.58,-28.43 302.52,-19.52"/>
<polygon fill="midnightblue" stroke="midnightblue" points="219.52,-49.44 211.57,-56.44 222.16,-55.92 219.52,-49.44"/>
</g>
</g>
</svg>
