<?xml version="1.0" encoding="UTF-8" standalone="no"?>
<!DOCTYPE svg PUBLIC "-//W3C//DTD SVG 1.1//EN"
 "http://www.w3.org/Graphics/SVG/1.1/DTD/svg11.dtd">
<!-- Generated by graphviz version 2.43.0 (0)
 -->
<!-- Title: pflib::Exception Pages: 1 -->
<svg width="197pt" height="196pt"
 viewBox="0.00 0.00 197.00 196.00" xmlns="http://www.w3.org/2000/svg" xmlns:xlink="http://www.w3.org/1999/xlink">
<g id="graph0" class="graph" transform="scale(1 1) rotate(0) translate(4 192)">
<title>pflib::Exception</title>
<!-- Node1 -->
<g id="node1" class="node">
<title>Node1</title>
<g id="a_node1"><a xlink:title="PFlib.">
<polygon fill="#bfbfbf" stroke="black" points="13,-0.5 13,-19.5 105,-19.5 105,-0.5 13,-0.5"/>
<text text-anchor="middle" x="59" y="-7.5" font-family="Helvetica,sans-Serif" font-size="10.00">pflib::Exception</text>
</a>
</g>
</g>
<!-- Node2 -->
<g id="node2" class="node">
<title>Node2</title>
<g id="a_node2"><a target="_parent" xlink:href="http://en.cppreference.com/w/cpp/error/exception.html" xlink:title=" ">
<polygon fill="none" stroke="black" points="0,-100.5 0,-119.5 86,-119.5 86,-100.5 0,-100.5"/>
<text text-anchor="middle" x="43" y="-107.5" font-family="Helvetica,sans-Serif" font-size="10.00">std::exception</text>
</a>
</g>
</g>
<!-- Node2&#45;&gt;Node1 -->
<g id="edge1" class="edge">
<title>Node2&#45;&gt;Node1</title>
<path fill="none" stroke="midnightblue" d="M46.07,-90.22C49.54,-68.95 55.05,-35.22 57.61,-19.54"/>
<polygon fill="midnightblue" stroke="midnightblue" points="42.58,-89.87 44.42,-100.3 49.49,-91 42.58,-89.87"/>
</g>
<!-- Node3 -->
<g id="node3" class="node">
<title>Node3</title>
<g id="a_node3"><a target="_parent" xlink:href="http://en.cppreference.com/w/cpp/string/basic_string.html" xlink:title=" ">
<polygon fill="none" stroke="black" points="104.5,-100.5 104.5,-119.5 169.5,-119.5 169.5,-100.5 104.5,-100.5"/>
<text text-anchor="middle" x="137" y="-107.5" font-family="Helvetica,sans-Serif" font-size="10.00">std::string</text>
</a>
</g>
</g>
<!-- Node3&#45;&gt;Node1 -->
<g id="edge2" class="edge">
<title>Node3&#45;&gt;Node1</title>
<path fill="none" stroke="#9a32cd" stroke-dasharray="5,2" d="M123.66,-92.24C106.87,-71.15 78.68,-35.73 65.8,-19.54"/>
<polygon fill="#9a32cd" stroke="#9a32cd" points="121.11,-94.66 130.08,-100.3 126.59,-90.3 121.11,-94.66"/>
<text text-anchor="middle" x="138" y="-74" font-family="Helvetica,sans-Serif" font-size="10.00"> function_</text>
<text text-anchor="middle" x="138" y="-63" font-family="Helvetica,sans-Serif" font-size="10.00">message_</text>
<text text-anchor="middle" x="138" y="-52" font-family="Helvetica,sans-Serif" font-size="10.00">module_</text>
<text text-anchor="middle" x="138" y="-41" font-family="Helvetica,sans-Serif" font-size="10.00">name_</text>
</g>
<!-- Node4 -->
<g id="node4" class="node">
<title>Node4</title>
<g id="a_node4"><a target="_parent" xlink:href="http://en.cppreference.com/w/cpp/string/basic_string.html" xlink:title=" ">
<polygon fill="none" stroke="black" points="85,-157.5 85,-187.5 189,-187.5 189,-157.5 85,-157.5"/>
<text text-anchor="start" x="93" y="-175.5" font-family="Helvetica,sans-Serif" font-size="10.00">std::basic_string&lt;</text>
<text text-anchor="middle" x="137" y="-164.5" font-family="Helvetica,sans-Serif" font-size="10.00"> char &gt;</text>
</a>
</g>
</g>
<!-- Node4&#45;&gt;Node3 -->
<g id="edge3" class="edge">
<title>Node4&#45;&gt;Node3</title>
<path fill="none" stroke="midnightblue" d="M137,-147.35C137,-137.51 137,-126.78 137,-119.54"/>
<polygon fill="midnightblue" stroke="midnightblue" points="133.5,-147.47 137,-157.47 140.5,-147.47 133.5,-147.47"/>
</g>
</g>
</svg>
