<?xml version="1.0" encoding="UTF-8" standalone="no"?>
<!DOCTYPE svg PUBLIC "-//W3C//DTD SVG 1.1//EN"
 "http://www.w3.org/Graphics/SVG/1.1/DTD/svg11.dtd">
<!-- Generated by graphviz version 2.43.0 (0)
 -->
<!-- Title: pflib::MAX5825 Pages: 1 -->
<svg width="143pt" height="219pt"
 viewBox="0.00 0.00 143.00 219.00" xmlns="http://www.w3.org/2000/svg" xmlns:xlink="http://www.w3.org/1999/xlink">
<g id="graph0" class="graph" transform="scale(1 1) rotate(0) translate(4 215)">
<title>pflib::MAX5825</title>
<!-- Node1 -->
<g id="node1" class="node">
<title>Node1</title>
<g id="a_node1"><a xlink:title="Class representing communication with the Digital&#45;Analog Converter on the HGC ROC.">
<polygon fill="#bfbfbf" stroke="black" points="22.5,-0.5 22.5,-19.5 112.5,-19.5 112.5,-0.5 22.5,-0.5"/>
<text text-anchor="middle" x="67.5" y="-7.5" font-family="Helvetica,sans-Serif" font-size="10.00">pflib::MAX5825</text>
</a>
</g>
</g>
<!-- Node2 -->
<g id="node2" class="node">
<title>Node2</title>
<g id="a_node2"><a xlink:href="classpflib_1_1I2C.html" target="_top" xlink:title="Class which encapsulates the I2C controller in the Polarfire.">
<polygon fill="none" stroke="black" points="38,-67.5 38,-86.5 97,-86.5 97,-67.5 38,-67.5"/>
<text text-anchor="middle" x="67.5" y="-74.5" font-family="Helvetica,sans-Serif" font-size="10.00">pflib::I2C</text>
</a>
</g>
</g>
<!-- Node2&#45;&gt;Node1 -->
<g id="edge1" class="edge">
<title>Node2&#45;&gt;Node1</title>
<path fill="none" stroke="#9a32cd" stroke-dasharray="5,2" d="M67.5,-57.04C67.5,-44.67 67.5,-29.12 67.5,-19.63"/>
<polygon fill="#9a32cd" stroke="#9a32cd" points="64,-57.23 67.5,-67.23 71,-57.23 64,-57.23"/>
<text text-anchor="middle" x="79" y="-41" font-family="Helvetica,sans-Serif" font-size="10.00"> i2c_</text>
</g>
<!-- Node3 -->
<g id="node3" class="node">
<title>Node3</title>
<g id="a_node3"><a xlink:href="classpflib_1_1WishboneTarget.html" target="_top" xlink:title="Parent class for standard wishbone targets providing some utilities.">
<polygon fill="none" stroke="black" points="6.5,-124.5 6.5,-143.5 128.5,-143.5 128.5,-124.5 6.5,-124.5"/>
<text text-anchor="middle" x="67.5" y="-131.5" font-family="Helvetica,sans-Serif" font-size="10.00">pflib::WishboneTarget</text>
</a>
</g>
</g>
<!-- Node3&#45;&gt;Node2 -->
<g id="edge2" class="edge">
<title>Node3&#45;&gt;Node2</title>
<path fill="none" stroke="midnightblue" d="M67.5,-114.12C67.5,-104.82 67.5,-94.06 67.5,-86.71"/>
<polygon fill="midnightblue" stroke="midnightblue" points="64,-114.41 67.5,-124.41 71,-114.41 64,-114.41"/>
</g>
<!-- Node4 -->
<g id="node4" class="node">
<title>Node4</title>
<g id="a_node4"><a xlink:href="classpflib_1_1WishboneInterface.html" target="_top" xlink:title="Abstract interface for wishbone transactions, used by ~all classes in pflib.">
<polygon fill="none" stroke="black" points="0,-191.5 0,-210.5 135,-210.5 135,-191.5 0,-191.5"/>
<text text-anchor="middle" x="67.5" y="-198.5" font-family="Helvetica,sans-Serif" font-size="10.00">pflib::WishboneInterface</text>
</a>
</g>
</g>
<!-- Node4&#45;&gt;Node3 -->
<g id="edge3" class="edge">
<title>Node4&#45;&gt;Node3</title>
<path fill="none" stroke="#9a32cd" stroke-dasharray="5,2" d="M67.5,-181.04C67.5,-168.67 67.5,-153.12 67.5,-143.63"/>
<polygon fill="#9a32cd" stroke="#9a32cd" points="64,-181.23 67.5,-191.23 71,-181.23 64,-181.23"/>
<text text-anchor="middle" x="79" y="-165" font-family="Helvetica,sans-Serif" font-size="10.00"> wb_</text>
</g>
</g>
</svg>
