<?xml version="1.0" encoding="UTF-8" standalone="no"?>
<!DOCTYPE svg PUBLIC "-//W3C//DTD SVG 1.1//EN"
 "http://www.w3.org/Graphics/SVG/1.1/DTD/svg11.dtd">
<!-- Generated by graphviz version 2.43.0 (0)
 -->
<!-- Title: Menu&lt; target_T &gt;::Line Pages: 1 -->
<svg width="141pt" height="152pt"
 viewBox="0.00 0.00 141.00 152.00" xmlns="http://www.w3.org/2000/svg" xmlns:xlink="http://www.w3.org/1999/xlink">
<g id="graph0" class="graph" transform="scale(1 1) rotate(0) translate(4 148)">
<title>Menu&lt; target_T &gt;::Line</title>
<!-- Node1 -->
<g id="node1" class="node">
<title>Node1</title>
<g id="a_node1"><a xlink:title=" ">
<polygon fill="#bfbfbf" stroke="black" points="0,-0.5 0,-19.5 133,-19.5 133,-0.5 0,-0.5"/>
<text text-anchor="middle" x="66.5" y="-7.5" font-family="Helvetica,sans-Serif" font-size="10.00">Menu&lt; target_T &gt;::Line</text>
</a>
</g>
</g>
<!-- Node2 -->
<g id="node2" class="node">
<title>Node2</title>
<g id="a_node2"><a xlink:href="classMenu.html" target="_top" xlink:title=" ">
<polygon fill="none" stroke="black" points="13,-67.5 13,-86.5 120,-86.5 120,-67.5 13,-67.5"/>
<text text-anchor="middle" x="66.5" y="-74.5" font-family="Helvetica,sans-Serif" font-size="10.00">Menu&lt; target_T &gt;</text>
</a>
</g>
</g>
<!-- Node2&#45;&gt;Node1 -->
<g id="edge1" class="edge">
<title>Node2&#45;&gt;Node1</title>
<path fill="none" stroke="#9a32cd" stroke-dasharray="5,2" d="M66.5,-57.04C66.5,-44.67 66.5,-29.12 66.5,-19.63"/>
<polygon fill="#9a32cd" stroke="#9a32cd" points="63,-57.23 66.5,-67.23 70,-57.23 63,-57.23"/>
<text text-anchor="middle" x="90.5" y="-41" font-family="Helvetica,sans-Serif" font-size="10.00"> subMenu</text>
</g>
<!-- Node3 -->
<g id="node3" class="node">
<title>Node3</title>
<g id="a_node3"><a xlink:href="classBaseMenu.html" target="_top" xlink:title=" ">
<polygon fill="none" stroke="black" points="32.5,-124.5 32.5,-143.5 100.5,-143.5 100.5,-124.5 32.5,-124.5"/>
<text text-anchor="middle" x="66.5" y="-131.5" font-family="Helvetica,sans-Serif" font-size="10.00">BaseMenu</text>
</a>
</g>
</g>
<!-- Node3&#45;&gt;Node2 -->
<g id="edge2" class="edge">
<title>Node3&#45;&gt;Node2</title>
<path fill="none" stroke="midnightblue" d="M66.5,-114.12C66.5,-104.82 66.5,-94.06 66.5,-86.71"/>
<polygon fill="midnightblue" stroke="midnightblue" points="63,-114.41 66.5,-124.41 70,-114.41 63,-114.41"/>
</g>
</g>
</svg>
