<?xml version="1.0" encoding="UTF-8" standalone="no"?>
<!DOCTYPE svg PUBLIC "-//W3C//DTD SVG 1.1//EN"
 "http://www.w3.org/Graphics/SVG/1.1/DTD/svg11.dtd">
<!-- Generated by graphviz version 2.43.0 (0)
 -->
<!-- Title: pflib::detail::PolarfireSetting Pages: 1 -->
<svg width="166pt" height="95pt"
 viewBox="0.00 0.00 165.50 95.00" xmlns="http://www.w3.org/2000/svg" xmlns:xlink="http://www.w3.org/1999/xlink">
<g id="graph0" class="graph" transform="scale(1 1) rotate(0) translate(4 91)">
<title>pflib::detail::PolarfireSetting</title>
<!-- Node1 -->
<g id="node1" class="node">
<title>Node1</title>
<g id="a_node1"><a xlink:title="Object that can change a setting on a polarfire target.">
<polygon fill="#bfbfbf" stroke="black" points="21.5,-56.5 21.5,-86.5 139.5,-86.5 139.5,-56.5 21.5,-56.5"/>
<text text-anchor="start" x="29.5" y="-74.5" font-family="Helvetica,sans-Serif" font-size="10.00">pflib::detail::Polarfire</text>
<text text-anchor="middle" x="80.5" y="-63.5" font-family="Helvetica,sans-Serif" font-size="10.00">Setting</text>
</a>
</g>
</g>
<!-- Node2 -->
<g id="node2" class="node">
<title>Node2</title>
<g id="a_node2"><a xlink:href="classcalib__offset.html" target="_top" xlink:title="Definition of settings.">
<polygon fill="none" stroke="black" points="0,-0.5 0,-19.5 73,-19.5 73,-0.5 0,-0.5"/>
<text text-anchor="middle" x="36.5" y="-7.5" font-family="Helvetica,sans-Serif" font-size="10.00">calib_offset</text>
</a>
</g>
</g>
<!-- Node1&#45;&gt;Node2 -->
<g id="edge1" class="edge">
<title>Node1&#45;&gt;Node2</title>
<path fill="none" stroke="midnightblue" d="M63.94,-48.1C56.6,-38.19 48.41,-27.11 42.9,-19.66"/>
<polygon fill="midnightblue" stroke="midnightblue" points="61.31,-50.44 70.07,-56.4 66.94,-46.28 61.31,-50.44"/>
</g>
<!-- Node3 -->
<g id="node3" class="node">
<title>Node3</title>
<g id="a_node3"><a xlink:href="classsipm__bias.html" target="_top" xlink:title="sets the sipm bias adc value for all connectors on the input rocs">
<polygon fill="none" stroke="black" points="91.5,-0.5 91.5,-19.5 157.5,-19.5 157.5,-0.5 91.5,-0.5"/>
<text text-anchor="middle" x="124.5" y="-7.5" font-family="Helvetica,sans-Serif" font-size="10.00">sipm_bias</text>
</a>
</g>
</g>
<!-- Node1&#45;&gt;Node3 -->
<g id="edge2" class="edge">
<title>Node1&#45;&gt;Node3</title>
<path fill="none" stroke="midnightblue" d="M97.06,-48.1C104.4,-38.19 112.59,-27.11 118.1,-19.66"/>
<polygon fill="midnightblue" stroke="midnightblue" points="94.06,-46.28 90.93,-56.4 99.69,-50.44 94.06,-46.28"/>
</g>
</g>
</svg>
