<?xml version="1.0" encoding="UTF-8" standalone="no"?>
<!DOCTYPE svg PUBLIC "-//W3C//DTD SVG 1.1//EN"
 "http://www.w3.org/Graphics/SVG/1.1/DTD/svg11.dtd">
<!-- Generated by graphviz version 2.43.0 (0)
 -->
<!-- Title: pflib::Hcal Pages: 1 -->
<svg width="662pt" height="205pt"
 viewBox="0.00 0.00 662.00 205.00" xmlns="http://www.w3.org/2000/svg" xmlns:xlink="http://www.w3.org/1999/xlink">
<g id="graph0" class="graph" transform="scale(1 1) rotate(0) translate(4 201)">
<title>pflib::Hcal</title>
<!-- Node1 -->
<g id="node1" class="node">
<title>Node1</title>
<g id="a_node1"><a xlink:title="Class representing a standard HCAL motherboard.">
<polygon fill="#bfbfbf" stroke="black" points="589,-92.5 589,-111.5 654,-111.5 654,-92.5 589,-92.5"/>
<text text-anchor="middle" x="621.5" y="-99.5" font-family="Helvetica,sans-Serif" font-size="10.00">pflib::Hcal</text>
</a>
</g>
</g>
<!-- Node2 -->
<g id="node2" class="node">
<title>Node2</title>
<g id="a_node2"><a xlink:href="classpflib_1_1WishboneInterface.html" target="_top" xlink:title="Abstract interface for wishbone transactions, used by ~all classes in pflib.">
<polygon fill="none" stroke="black" points="0,-98.5 0,-117.5 135,-117.5 135,-98.5 0,-98.5"/>
<text text-anchor="middle" x="67.5" y="-105.5" font-family="Helvetica,sans-Serif" font-size="10.00">pflib::WishboneInterface</text>
</a>
</g>
</g>
<!-- Node2&#45;&gt;Node1 -->
<g id="edge1" class="edge">
<title>Node2&#45;&gt;Node1</title>
<path fill="none" stroke="#9a32cd" stroke-dasharray="5,2" d="M101.57,-121.23C175.82,-149.2 361.29,-209.34 515,-179 541.4,-173.79 548.94,-171.4 571,-156 588.94,-143.48 605.12,-123.41 613.8,-111.58"/>
<polygon fill="#9a32cd" stroke="#9a32cd" points="102.44,-117.82 91.85,-117.51 99.94,-124.35 102.44,-117.82"/>
<text text-anchor="middle" x="366.5" y="-189" font-family="Helvetica,sans-Serif" font-size="10.00"> wb_</text>
</g>
<!-- Node4 -->
<g id="node4" class="node">
<title>Node4</title>
<g id="a_node4"><a xlink:href="classpflib_1_1WishboneTarget.html" target="_top" xlink:title="Parent class for standard wishbone targets providing some utilities.">
<polygon fill="none" stroke="black" points="194,-98.5 194,-117.5 316,-117.5 316,-98.5 194,-98.5"/>
<text text-anchor="middle" x="255" y="-105.5" font-family="Helvetica,sans-Serif" font-size="10.00">pflib::WishboneTarget</text>
</a>
</g>
</g>
<!-- Node2&#45;&gt;Node4 -->
<g id="edge4" class="edge">
<title>Node2&#45;&gt;Node4</title>
<path fill="none" stroke="#9a32cd" stroke-dasharray="5,2" d="M145.64,-108C161.7,-108 178.4,-108 193.74,-108"/>
<polygon fill="#9a32cd" stroke="#9a32cd" points="145.21,-104.5 135.21,-108 145.21,-111.5 145.21,-104.5"/>
<text text-anchor="middle" x="164.5" y="-111" font-family="Helvetica,sans-Serif" font-size="10.00"> wb_</text>
</g>
<!-- Node8 -->
<g id="node8" class="node">
<title>Node8</title>
<g id="a_node8"><a xlink:href="classpflib_1_1DAQ.html" target="_top" xlink:title=" ">
<polygon fill="none" stroke="black" points="334,-0.5 334,-19.5 399,-19.5 399,-0.5 334,-0.5"/>
<text text-anchor="middle" x="366.5" y="-7.5" font-family="Helvetica,sans-Serif" font-size="10.00">pflib::DAQ</text>
</a>
</g>
</g>
<!-- Node2&#45;&gt;Node8 -->
<g id="edge12" class="edge">
<title>Node2&#45;&gt;Node8</title>
<path fill="none" stroke="#9a32cd" stroke-dasharray="5,2" d="M107.05,-95.28C167.31,-75.4 282.49,-37.39 336.36,-19.61"/>
<polygon fill="#9a32cd" stroke="#9a32cd" points="105.92,-91.97 97.52,-98.42 108.11,-98.62 105.92,-91.97"/>
<text text-anchor="middle" x="164.5" y="-82" font-family="Helvetica,sans-Serif" font-size="10.00"> wb_</text>
</g>
<!-- Node3 -->
<g id="node3" class="node">
<title>Node3</title>
<g id="a_node3"><a xlink:href="classpflib_1_1GPIO.html" target="_top" xlink:title="Class which encapsulates the GPIO controller in the Polarfire.">
<polygon fill="none" stroke="black" points="432,-150.5 432,-169.5 500,-169.5 500,-150.5 432,-150.5"/>
<text text-anchor="middle" x="466" y="-157.5" font-family="Helvetica,sans-Serif" font-size="10.00">pflib::GPIO</text>
</a>
</g>
</g>
<!-- Node3&#45;&gt;Node1 -->
<g id="edge2" class="edge">
<title>Node3&#45;&gt;Node1</title>
<path fill="none" stroke="#9a32cd" stroke-dasharray="5,2" d="M510.19,-148.65C529.13,-143.18 551.46,-136.06 571,-128 582.31,-123.34 594.48,-116.97 603.92,-111.7"/>
<polygon fill="#9a32cd" stroke="#9a32cd" points="509.01,-145.35 500.34,-151.44 510.91,-152.09 509.01,-145.35"/>
<text text-anchor="middle" x="552" y="-144" font-family="Helvetica,sans-Serif" font-size="10.00"> gpio_</text>
</g>
<!-- Node4&#45;&gt;Node3 -->
<g id="edge3" class="edge">
<title>Node4&#45;&gt;Node3</title>
<path fill="none" stroke="midnightblue" d="M300.33,-120.19C311.31,-123.14 323.07,-126.24 334,-129 367.19,-137.39 405.3,-146.33 431.82,-152.44"/>
<polygon fill="midnightblue" stroke="midnightblue" points="301.07,-116.76 290.5,-117.53 299.24,-123.52 301.07,-116.76"/>
</g>
<!-- Node5 -->
<g id="node5" class="node">
<title>Node5</title>
<g id="a_node5"><a xlink:href="classpflib_1_1I2C.html" target="_top" xlink:title="Class which encapsulates the I2C controller in the Polarfire.">
<polygon fill="none" stroke="black" points="436.5,-112.5 436.5,-131.5 495.5,-131.5 495.5,-112.5 436.5,-112.5"/>
<text text-anchor="middle" x="466" y="-119.5" font-family="Helvetica,sans-Serif" font-size="10.00">pflib::I2C</text>
</a>
</g>
</g>
<!-- Node4&#45;&gt;Node5 -->
<g id="edge6" class="edge">
<title>Node4&#45;&gt;Node5</title>
<path fill="none" stroke="midnightblue" d="M326.58,-112.73C364.17,-115.25 408.33,-118.2 436.48,-120.09"/>
<polygon fill="midnightblue" stroke="midnightblue" points="326.38,-109.21 316.17,-112.03 325.91,-116.19 326.38,-109.21"/>
</g>
<!-- Node6 -->
<g id="node6" class="node">
<title>Node6</title>
<g id="a_node6"><a xlink:href="classpflib_1_1Elinks.html" target="_top" xlink:title=" ">
<polygon fill="none" stroke="black" points="429.5,-74.5 429.5,-93.5 502.5,-93.5 502.5,-74.5 429.5,-74.5"/>
<text text-anchor="middle" x="466" y="-81.5" font-family="Helvetica,sans-Serif" font-size="10.00">pflib::Elinks</text>
</a>
</g>
</g>
<!-- Node4&#45;&gt;Node6 -->
<g id="edge8" class="edge">
<title>Node4&#45;&gt;Node6</title>
<path fill="none" stroke="midnightblue" d="M326.25,-99.93C360.91,-95.95 401.21,-91.33 429.42,-88.09"/>
<polygon fill="midnightblue" stroke="midnightblue" points="325.71,-96.47 316.17,-101.09 326.51,-103.43 325.71,-96.47"/>
</g>
<!-- Node7 -->
<g id="node7" class="node">
<title>Node7</title>
<g id="a_node7"><a xlink:href="classpflib_1_1FastControl.html" target="_top" xlink:title="Class which encapsulates the FastControl controller in the Polarfire.">
<polygon fill="none" stroke="black" points="417,-36.5 417,-55.5 515,-55.5 515,-36.5 417,-36.5"/>
<text text-anchor="middle" x="466" y="-43.5" font-family="Helvetica,sans-Serif" font-size="10.00">pflib::FastControl</text>
</a>
</g>
</g>
<!-- Node4&#45;&gt;Node7 -->
<g id="edge10" class="edge">
<title>Node4&#45;&gt;Node7</title>
<path fill="none" stroke="midnightblue" d="M297.87,-95.58C337.62,-83.79 396.54,-66.31 432.77,-55.56"/>
<polygon fill="midnightblue" stroke="midnightblue" points="296.79,-92.25 288.2,-98.45 298.78,-98.96 296.79,-92.25"/>
</g>
<!-- Node5&#45;&gt;Node1 -->
<g id="edge5" class="edge">
<title>Node5&#45;&gt;Node1</title>
<path fill="none" stroke="#9a32cd" stroke-dasharray="5,2" d="M505.68,-116.96C531.42,-113.61 564.83,-109.25 588.97,-106.11"/>
<polygon fill="#9a32cd" stroke="#9a32cd" points="504.98,-113.52 495.51,-118.29 505.88,-120.46 504.98,-113.52"/>
<text text-anchor="middle" x="552" y="-116" font-family="Helvetica,sans-Serif" font-size="10.00"> i2c_</text>
</g>
<!-- Node6&#45;&gt;Node1 -->
<g id="edge7" class="edge">
<title>Node6&#45;&gt;Node1</title>
<path fill="none" stroke="#9a32cd" stroke-dasharray="5,2" d="M512.9,-82.71C531.1,-82.88 552.13,-83.93 571,-87 578.44,-88.21 586.33,-90.25 593.57,-92.43"/>
<polygon fill="#9a32cd" stroke="#9a32cd" points="512.84,-79.21 502.84,-82.7 512.84,-86.21 512.84,-79.21"/>
<text text-anchor="middle" x="552" y="-90" font-family="Helvetica,sans-Serif" font-size="10.00"> elinks_</text>
</g>
<!-- Node7&#45;&gt;Node1 -->
<g id="edge9" class="edge">
<title>Node7&#45;&gt;Node1</title>
<path fill="none" stroke="#9a32cd" stroke-dasharray="5,2" d="M524.97,-54.07C540.31,-57.32 556.6,-61.82 571,-68 585.18,-74.08 599.51,-84.5 609.08,-92.2"/>
<polygon fill="#9a32cd" stroke="#9a32cd" points="525.55,-50.62 515.06,-52.1 524.19,-57.48 525.55,-50.62"/>
<text text-anchor="middle" x="552" y="-71" font-family="Helvetica,sans-Serif" font-size="10.00"> fc_</text>
</g>
<!-- Node8&#45;&gt;Node1 -->
<g id="edge11" class="edge">
<title>Node8&#45;&gt;Node1</title>
<path fill="none" stroke="#9a32cd" stroke-dasharray="5,2" d="M409.26,-5.95C439.36,-4.4 480.57,-5.12 515,-16 559.16,-29.95 597.54,-72.95 613.11,-92.34"/>
<polygon fill="#9a32cd" stroke="#9a32cd" points="408.87,-2.47 399.11,-6.58 409.31,-9.45 408.87,-2.47"/>
<text text-anchor="middle" x="466" y="-19" font-family="Helvetica,sans-Serif" font-size="10.00"> daq_</text>
</g>
</g>
</svg>
