<?xml version="1.0" encoding="UTF-8" standalone="no"?>
<!DOCTYPE svg PUBLIC "-//W3C//DTD SVG 1.1//EN"
 "http://www.w3.org/Graphics/SVG/1.1/DTD/svg11.dtd">
<!-- Generated by graphviz version 2.43.0 (0)
 -->
<!-- Title: Menu&lt; T, H &gt; Pages: 1 -->
<svg width="204pt" height="106pt"
 viewBox="0.00 0.00 204.00 106.00" xmlns="http://www.w3.org/2000/svg" xmlns:xlink="http://www.w3.org/1999/xlink">
<g id="graph0" class="graph" transform="scale(1 1) rotate(0) translate(4 102)">
<title>Menu&lt; T, H &gt;</title>
<!-- Node1 -->
<g id="node1" class="node">
<title>Node1</title>
<g id="a_node1"><a xlink:title="A menu to execute commands with a specific target.">
<polygon fill="#bfbfbf" stroke="black" points="44,-0.5 44,-19.5 130,-19.5 130,-0.5 44,-0.5"/>
<text text-anchor="middle" x="87" y="-7.5" font-family="Helvetica,sans-Serif" font-size="10.00">Menu&lt; T, H &gt;</text>
</a>
</g>
</g>
<!-- Node2 -->
<g id="node2" class="node">
<title>Node2</title>
<g id="a_node2"><a xlink:href="classBaseMenu.html" target="_top" xlink:title="Type&#45;less menu base for common tasks.">
<polygon fill="none" stroke="black" points="0,-73 0,-92 68,-92 68,-73 0,-73"/>
<text text-anchor="middle" x="34" y="-80" font-family="Helvetica,sans-Serif" font-size="10.00">BaseMenu</text>
</a>
</g>
</g>
<!-- Node2&#45;&gt;Node1 -->
<g id="edge1" class="edge">
<title>Node2&#45;&gt;Node1</title>
<path fill="none" stroke="midnightblue" d="M46.78,-64.5C57.4,-50.37 72.08,-30.85 80.45,-19.72"/>
<polygon fill="midnightblue" stroke="midnightblue" points="43.71,-62.76 40.5,-72.86 49.31,-66.97 43.71,-62.76"/>
</g>
<!-- Node3 -->
<g id="node3" class="node">
<title>Node3</title>
<g id="a_node3"><a target="_parent" xlink:href="http://en.cppreference.com/w/cpp/utility/functional/function.html" xlink:title=" ">
<polygon fill="none" stroke="black" points="86,-67.5 86,-97.5 196,-97.5 196,-67.5 86,-67.5"/>
<text text-anchor="start" x="94" y="-85.5" font-family="Helvetica,sans-Serif" font-size="10.00">std::function&lt; void</text>
<text text-anchor="middle" x="141" y="-74.5" font-family="Helvetica,sans-Serif" font-size="10.00">(TargetHandle)&gt;</text>
</a>
</g>
</g>
<!-- Node3&#45;&gt;Node1 -->
<g id="edge2" class="edge">
<title>Node3&#45;&gt;Node1</title>
<path fill="none" stroke="#9a32cd" stroke-dasharray="5,2" d="M123.77,-59.01C113.6,-45.73 101.29,-29.66 93.81,-19.89"/>
<polygon fill="#9a32cd" stroke="#9a32cd" points="121.21,-61.42 130.07,-67.23 126.77,-57.17 121.21,-61.42"/>
<text text-anchor="middle" x="148.5" y="-41" font-family="Helvetica,sans-Serif" font-size="10.00"> render_func_</text>
</g>
</g>
</svg>
