<?xml version="1.0" encoding="UTF-8" standalone="no"?>
<!DOCTYPE svg PUBLIC "-//W3C//DTD SVG 1.1//EN"
 "http://www.w3.org/Graphics/SVG/1.1/DTD/svg11.dtd">
<!-- Generated by graphviz version 2.43.0 (0)
 -->
<!-- Title: pflib::GPIO Pages: 1 -->
<svg width="143pt" height="152pt"
 viewBox="0.00 0.00 143.00 152.00" xmlns="http://www.w3.org/2000/svg" xmlns:xlink="http://www.w3.org/1999/xlink">
<g id="graph0" class="graph" transform="scale(1 1) rotate(0) translate(4 148)">
<title>pflib::GPIO</title>
<!-- Node1 -->
<g id="node1" class="node">
<title>Node1</title>
<g id="a_node1"><a xlink:title="Class which encapsulates the GPIO controller in the Polarfire.">
<polygon fill="#bfbfbf" stroke="black" points="33.5,-0.5 33.5,-19.5 101.5,-19.5 101.5,-0.5 33.5,-0.5"/>
<text text-anchor="middle" x="67.5" y="-7.5" font-family="Helvetica,sans-Serif" font-size="10.00">pflib::GPIO</text>
</a>
</g>
</g>
<!-- Node2 -->
<g id="node2" class="node">
<title>Node2</title>
<g id="a_node2"><a xlink:href="classpflib_1_1WishboneTarget.html" target="_top" xlink:title="Parent class for standard wishbone targets providing some utilities.">
<polygon fill="none" stroke="black" points="6.5,-57.5 6.5,-76.5 128.5,-76.5 128.5,-57.5 6.5,-57.5"/>
<text text-anchor="middle" x="67.5" y="-64.5" font-family="Helvetica,sans-Serif" font-size="10.00">pflib::WishboneTarget</text>
</a>
</g>
</g>
<!-- Node2&#45;&gt;Node1 -->
<g id="edge1" class="edge">
<title>Node2&#45;&gt;Node1</title>
<path fill="none" stroke="midnightblue" d="M67.5,-47.12C67.5,-37.82 67.5,-27.06 67.5,-19.71"/>
<polygon fill="midnightblue" stroke="midnightblue" points="64,-47.41 67.5,-57.41 71,-47.41 64,-47.41"/>
</g>
<!-- Node3 -->
<g id="node3" class="node">
<title>Node3</title>
<g id="a_node3"><a xlink:href="classpflib_1_1WishboneInterface.html" target="_top" xlink:title="Abstract interface for wishbone transactions, used by ~all classes in pflib.">
<polygon fill="none" stroke="black" points="0,-124.5 0,-143.5 135,-143.5 135,-124.5 0,-124.5"/>
<text text-anchor="middle" x="67.5" y="-131.5" font-family="Helvetica,sans-Serif" font-size="10.00">pflib::WishboneInterface</text>
</a>
</g>
</g>
<!-- Node3&#45;&gt;Node2 -->
<g id="edge2" class="edge">
<title>Node3&#45;&gt;Node2</title>
<path fill="none" stroke="#9a32cd" stroke-dasharray="5,2" d="M67.5,-114.04C67.5,-101.67 67.5,-86.12 67.5,-76.63"/>
<polygon fill="#9a32cd" stroke="#9a32cd" points="64,-114.23 67.5,-124.23 71,-114.23 64,-114.23"/>
<text text-anchor="middle" x="79" y="-98" font-family="Helvetica,sans-Serif" font-size="10.00"> wb_</text>
</g>
</g>
</svg>
