<?xml version="1.0" encoding="UTF-8" standalone="no"?>
<!DOCTYPE svg PUBLIC "-//W3C//DTD SVG 1.1//EN"
 "http://www.w3.org/Graphics/SVG/1.1/DTD/svg11.dtd">
<!-- Generated by graphviz version 2.43.0 (0)
 -->
<!-- Title: Menu&lt; TargetType &gt;::Line Pages: 1 -->
<svg width="256pt" height="174pt"
 viewBox="0.00 0.00 255.50 174.00" xmlns="http://www.w3.org/2000/svg" xmlns:xlink="http://www.w3.org/1999/xlink">
<g id="graph0" class="graph" transform="scale(1 1) rotate(0) translate(4 170)">
<title>Menu&lt; TargetType &gt;::Line</title>
<!-- Node1 -->
<g id="node1" class="node">
<title>Node1</title>
<g id="a_node1"><a xlink:title="A command in the menu.">
<polygon fill="#bfbfbf" stroke="black" points="67,-0.5 67,-30.5 186,-30.5 186,-0.5 67,-0.5"/>
<text text-anchor="start" x="75" y="-18.5" font-family="Helvetica,sans-Serif" font-size="10.00">Menu&lt; TargetType &gt;</text>
<text text-anchor="middle" x="126.5" y="-7.5" font-family="Helvetica,sans-Serif" font-size="10.00">::Line</text>
</a>
</g>
</g>
<!-- Node2 -->
<g id="node2" class="node">
<title>Node2</title>
<g id="a_node2"><a xlink:href="classMenu.html" target="_top" xlink:title="A menu to execute commands with a specific target.">
<polygon fill="none" stroke="black" points="0,-84 0,-103 119,-103 119,-84 0,-84"/>
<text text-anchor="middle" x="59.5" y="-91" font-family="Helvetica,sans-Serif" font-size="10.00">Menu&lt; TargetType &gt;</text>
</a>
</g>
</g>
<!-- Node2&#45;&gt;Node1 -->
<g id="edge1" class="edge">
<title>Node2&#45;&gt;Node1</title>
<path fill="none" stroke="#9a32cd" stroke-dasharray="5,2" d="M71.29,-75.69C77.34,-67.4 84.99,-57.42 92.5,-49 98.15,-42.66 104.83,-36.11 110.75,-30.56"/>
<polygon fill="#9a32cd" stroke="#9a32cd" points="68.42,-73.68 65.45,-83.85 74.11,-77.75 68.42,-73.68"/>
<text text-anchor="middle" x="122" y="-52" font-family="Helvetica,sans-Serif" font-size="10.00"> sub_menu_</text>
</g>
<!-- Node3 -->
<g id="node3" class="node">
<title>Node3</title>
<g id="a_node3"><a xlink:href="classBaseMenu.html" target="_top" xlink:title="Type&#45;less menu base for common tasks.">
<polygon fill="none" stroke="black" points="25.5,-146.5 25.5,-165.5 93.5,-165.5 93.5,-146.5 25.5,-146.5"/>
<text text-anchor="middle" x="59.5" y="-153.5" font-family="Helvetica,sans-Serif" font-size="10.00">BaseMenu</text>
</a>
</g>
</g>
<!-- Node3&#45;&gt;Node2 -->
<g id="edge2" class="edge">
<title>Node3&#45;&gt;Node2</title>
<path fill="none" stroke="midnightblue" d="M59.5,-136C59.5,-125 59.5,-111.68 59.5,-103.15"/>
<polygon fill="midnightblue" stroke="midnightblue" points="56,-136.33 59.5,-146.33 63,-136.33 56,-136.33"/>
</g>
<!-- Node4 -->
<g id="node4" class="node">
<title>Node4</title>
<g id="a_node4"><a target="_parent" xlink:href="http://en.cppreference.com/w/cpp/utility/functional/function.html" xlink:title=" ">
<polygon fill="none" stroke="black" points="137.5,-78.5 137.5,-108.5 247.5,-108.5 247.5,-78.5 137.5,-78.5"/>
<text text-anchor="start" x="145.5" y="-96.5" font-family="Helvetica,sans-Serif" font-size="10.00">std::function&lt; void</text>
<text text-anchor="middle" x="192.5" y="-85.5" font-family="Helvetica,sans-Serif" font-size="10.00">(TargetType *)&gt;</text>
</a>
</g>
</g>
<!-- Node4&#45;&gt;Node1 -->
<g id="edge3" class="edge">
<title>Node4&#45;&gt;Node1</title>
<path fill="none" stroke="#9a32cd" stroke-dasharray="5,2" d="M173.23,-70.31C162.13,-57.53 148.52,-41.86 138.86,-30.73"/>
<polygon fill="#9a32cd" stroke="#9a32cd" points="170.89,-72.95 180.09,-78.2 176.17,-68.36 170.89,-72.95"/>
<text text-anchor="middle" x="177.5" y="-52" font-family="Helvetica,sans-Serif" font-size="10.00"> cmd_</text>
</g>
</g>
</svg>
