<?xml version="1.0" encoding="UTF-8" standalone="no"?>
<!DOCTYPE svg PUBLIC "-//W3C//DTD SVG 1.1//EN"
 "http://www.w3.org/Graphics/SVG/1.1/DTD/svg11.dtd">
<!-- Generated by graphviz version 2.43.0 (0)
 -->
<!-- Title: include/pflib/Compile.h Pages: 1 -->
<svg width="158pt" height="196pt"
 viewBox="0.00 0.00 157.50 196.00" xmlns="http://www.w3.org/2000/svg" xmlns:xlink="http://www.w3.org/1999/xlink">
<g id="graph0" class="graph" transform="scale(1 1) rotate(0) translate(4 192)">
<title>include/pflib/Compile.h</title>
<!-- Node1 -->
<g id="node1" class="node">
<title>Node1</title>
<g id="a_node1"><a xlink:title="Definition of compiling and decompiling functions between page numbers, register numbers,...">
<polygon fill="#bfbfbf" stroke="black" points="0,-168.5 0,-187.5 128,-187.5 128,-168.5 0,-168.5"/>
<text text-anchor="middle" x="64" y="-175.5" font-family="Helvetica,sans-Serif" font-size="10.00">include/pflib/Compile.h</text>
</a>
</g>
</g>
<!-- Node2 -->
<g id="node2" class="node">
<title>Node2</title>
<g id="a_node2"><a xlink:href="pftool_8h_source.html" target="_top" xlink:title=" ">
<polygon fill="none" stroke="black" points="26.5,-56.5 26.5,-75.5 101.5,-75.5 101.5,-56.5 26.5,-56.5"/>
<text text-anchor="middle" x="64" y="-63.5" font-family="Helvetica,sans-Serif" font-size="10.00">tool/pftool.h</text>
</a>
</g>
</g>
<!-- Node1&#45;&gt;Node2 -->
<g id="edge1" class="edge">
<title>Node1&#45;&gt;Node2</title>
<path fill="none" stroke="midnightblue" d="M54.57,-159.25C50.79,-151.17 46.89,-141.35 45,-132 40.85,-111.49 51.66,-88.08 58.63,-75.71"/>
<polygon fill="midnightblue" stroke="midnightblue" points="51.53,-160.99 59.12,-168.37 57.79,-157.86 51.53,-160.99"/>
</g>
<!-- Node4 -->
<g id="node4" class="node">
<title>Node4</title>
<g id="a_node4"><a xlink:href="pftool__roc_8h_source.html" target="_top" xlink:title=" ">
<polygon fill="none" stroke="black" points="54.5,-112.5 54.5,-131.5 149.5,-131.5 149.5,-112.5 54.5,-112.5"/>
<text text-anchor="middle" x="102" y="-119.5" font-family="Helvetica,sans-Serif" font-size="10.00">tool/pftool_roc.h</text>
</a>
</g>
</g>
<!-- Node1&#45;&gt;Node4 -->
<g id="edge3" class="edge">
<title>Node1&#45;&gt;Node4</title>
<path fill="none" stroke="midnightblue" d="M76.06,-159.86C82.64,-150.5 90.51,-139.33 95.84,-131.75"/>
<polygon fill="midnightblue" stroke="midnightblue" points="73.17,-157.89 70.27,-168.08 78.89,-161.92 73.17,-157.89"/>
</g>
<!-- Node3 -->
<g id="node3" class="node">
<title>Node3</title>
<g id="a_node3"><a xlink:href="pftool_8cc.html" target="_top" xlink:title="File defining the pftool menus and their commands.">
<polygon fill="none" stroke="black" points="24,-0.5 24,-19.5 104,-19.5 104,-0.5 24,-0.5"/>
<text text-anchor="middle" x="64" y="-7.5" font-family="Helvetica,sans-Serif" font-size="10.00">tool/pftool.cc</text>
</a>
</g>
</g>
<!-- Node2&#45;&gt;Node3 -->
<g id="edge2" class="edge">
<title>Node2&#45;&gt;Node3</title>
<path fill="none" stroke="midnightblue" d="M64,-45.8C64,-36.91 64,-26.78 64,-19.75"/>
<polygon fill="midnightblue" stroke="midnightblue" points="60.5,-46.08 64,-56.08 67.5,-46.08 60.5,-46.08"/>
</g>
<!-- Node4&#45;&gt;Node2 -->
<g id="edge4" class="edge">
<title>Node4&#45;&gt;Node2</title>
<path fill="none" stroke="midnightblue" d="M89.94,-103.86C83.36,-94.5 75.49,-83.33 70.16,-75.75"/>
<polygon fill="midnightblue" stroke="midnightblue" points="87.11,-105.92 95.73,-112.08 92.83,-101.89 87.11,-105.92"/>
</g>
</g>
</svg>
