<?xml version="1.0" encoding="UTF-8" standalone="no"?>
<!DOCTYPE svg PUBLIC "-//W3C//DTD SVG 1.1//EN"
 "http://www.w3.org/Graphics/SVG/1.1/DTD/svg11.dtd">
<!-- Generated by graphviz version 2.43.0 (0)
 -->
<!-- Title: include/pflib/Compile.h Pages: 1 -->
<svg width="370pt" height="364pt"
 viewBox="0.00 0.00 370.17 364.00" xmlns="http://www.w3.org/2000/svg" xmlns:xlink="http://www.w3.org/1999/xlink">
<g id="graph0" class="graph" transform="scale(1 1) rotate(0) translate(4 360)">
<title>include/pflib/Compile.h</title>
<!-- Node1 -->
<g id="node1" class="node">
<title>Node1</title>
<g id="a_node1"><a xlink:title="Definition of compiling and decompiling functions between page numbers, register numbers,...">
<polygon fill="#bfbfbf" stroke="black" points="15,-336.5 15,-355.5 143,-355.5 143,-336.5 15,-336.5"/>
<text text-anchor="middle" x="79" y="-343.5" font-family="Helvetica,sans-Serif" font-size="10.00">include/pflib/Compile.h</text>
</a>
</g>
</g>
<!-- Node2 -->
<g id="node2" class="node">
<title>Node2</title>
<g id="a_node2"><a xlink:href="pftool_8h_source.html" target="_top" xlink:title=" ">
<polygon fill="none" stroke="black" points="199.5,-56.5 199.5,-75.5 274.5,-75.5 274.5,-56.5 199.5,-56.5"/>
<text text-anchor="middle" x="237" y="-63.5" font-family="Helvetica,sans-Serif" font-size="10.00">tool/pftool.h</text>
</a>
</g>
</g>
<!-- Node1&#45;&gt;Node2 -->
<g id="edge1" class="edge">
<title>Node1&#45;&gt;Node2</title>
<path fill="none" stroke="midnightblue" d="M58.66,-329.97C35.25,-310.78 0,-275.21 0,-235 0,-235 0,-235 0,-177 0,-90.13 132.62,-71.67 199.45,-67.89"/>
<polygon fill="midnightblue" stroke="midnightblue" points="56.64,-332.83 66.66,-336.28 60.97,-327.34 56.64,-332.83"/>
</g>
<!-- Node4 -->
<g id="node4" class="node">
<title>Node4</title>
<g id="a_node4"><a xlink:href="pftool__roc_8h_source.html" target="_top" xlink:title=" ">
<polygon fill="none" stroke="black" points="110.5,-280.5 110.5,-299.5 205.5,-299.5 205.5,-280.5 110.5,-280.5"/>
<text text-anchor="middle" x="158" y="-287.5" font-family="Helvetica,sans-Serif" font-size="10.00">tool/pftool_roc.h</text>
</a>
</g>
</g>
<!-- Node1&#45;&gt;Node4 -->
<g id="edge3" class="edge">
<title>Node1&#45;&gt;Node4</title>
<path fill="none" stroke="midnightblue" d="M100.03,-330.62C114.47,-320.76 133.14,-307.99 145.34,-299.65"/>
<polygon fill="midnightblue" stroke="midnightblue" points="97.97,-327.79 91.69,-336.32 101.92,-333.57 97.97,-327.79"/>
</g>
<!-- Node3 -->
<g id="node3" class="node">
<title>Node3</title>
<g id="a_node3"><a xlink:href="pftool_8cc.html" target="_top" xlink:title="File defining the pftool menus and their commands.">
<polygon fill="none" stroke="black" points="197,-0.5 197,-19.5 277,-19.5 277,-0.5 197,-0.5"/>
<text text-anchor="middle" x="237" y="-7.5" font-family="Helvetica,sans-Serif" font-size="10.00">tool/pftool.cc</text>
</a>
</g>
</g>
<!-- Node2&#45;&gt;Node3 -->
<g id="edge2" class="edge">
<title>Node2&#45;&gt;Node3</title>
<path fill="none" stroke="midnightblue" d="M237,-45.8C237,-36.91 237,-26.78 237,-19.75"/>
<polygon fill="midnightblue" stroke="midnightblue" points="233.5,-46.08 237,-56.08 240.5,-46.08 233.5,-46.08"/>
</g>
<!-- Node4&#45;&gt;Node2 -->
<g id="edge4" class="edge">
<title>Node4&#45;&gt;Node2</title>
<path fill="none" stroke="midnightblue" d="M215.5,-281.38C246.93,-275.13 285.38,-263.92 315,-244 341.27,-226.34 348.65,-217.91 359,-188 377.77,-133.73 299.33,-92.66 259.26,-75.62"/>
<polygon fill="midnightblue" stroke="midnightblue" points="214.74,-277.96 205.56,-283.24 216.03,-284.84 214.74,-277.96"/>
</g>
<!-- Node5 -->
<g id="node5" class="node">
<title>Node5</title>
<g id="a_node5"><a xlink:href="pftool__bias_8h_source.html" target="_top" xlink:title=" ">
<polygon fill="none" stroke="black" points="28.5,-168.5 28.5,-187.5 129.5,-187.5 129.5,-168.5 28.5,-168.5"/>
<text text-anchor="middle" x="79" y="-175.5" font-family="Helvetica,sans-Serif" font-size="10.00">tool/pftool_bias.h</text>
</a>
</g>
</g>
<!-- Node4&#45;&gt;Node5 -->
<g id="edge5" class="edge">
<title>Node4&#45;&gt;Node5</title>
<path fill="none" stroke="midnightblue" d="M145.76,-271.96C128.64,-248.12 98.18,-205.71 85.17,-187.59"/>
<polygon fill="midnightblue" stroke="midnightblue" points="143.12,-274.29 151.8,-280.37 148.81,-270.2 143.12,-274.29"/>
</g>
<!-- Node6 -->
<g id="node6" class="node">
<title>Node6</title>
<g id="a_node6"><a xlink:href="pftool__tasks_8h_source.html" target="_top" xlink:title=" ">
<polygon fill="none" stroke="black" points="142.5,-112.5 142.5,-131.5 249.5,-131.5 249.5,-112.5 142.5,-112.5"/>
<text text-anchor="middle" x="196" y="-119.5" font-family="Helvetica,sans-Serif" font-size="10.00">tool/pftool_tasks.h</text>
</a>
</g>
</g>
<!-- Node4&#45;&gt;Node6 -->
<g id="edge15" class="edge">
<title>Node4&#45;&gt;Node6</title>
<path fill="none" stroke="midnightblue" d="M162.37,-269.93C170.61,-233.92 188.16,-157.23 194.04,-131.57"/>
<polygon fill="midnightblue" stroke="midnightblue" points="158.86,-269.55 160.04,-280.08 165.69,-271.11 158.86,-269.55"/>
</g>
<!-- Node7 -->
<g id="node7" class="node">
<title>Node7</title>
<g id="a_node7"><a xlink:href="pftool__daq_8h_source.html" target="_top" xlink:title=" ">
<polygon fill="none" stroke="black" points="208,-224.5 208,-243.5 306,-243.5 306,-224.5 208,-224.5"/>
<text text-anchor="middle" x="257" y="-231.5" font-family="Helvetica,sans-Serif" font-size="10.00">tool/pftool_daq.h</text>
</a>
</g>
</g>
<!-- Node4&#45;&gt;Node7 -->
<g id="edge9" class="edge">
<title>Node4&#45;&gt;Node7</title>
<path fill="none" stroke="midnightblue" d="M182.84,-275.45C201.11,-265.48 225.42,-252.23 241.13,-243.65"/>
<polygon fill="midnightblue" stroke="midnightblue" points="181.01,-272.46 173.91,-280.32 184.36,-278.61 181.01,-272.46"/>
</g>
<!-- Node5&#45;&gt;Node2 -->
<g id="edge6" class="edge">
<title>Node5&#45;&gt;Node2</title>
<path fill="none" stroke="midnightblue" d="M89.87,-159.85C99.68,-145.49 115.28,-125.28 133,-112 155.67,-95.01 185.74,-82.9 207.72,-75.55"/>
<polygon fill="midnightblue" stroke="midnightblue" points="86.87,-158.03 84.28,-168.31 92.71,-161.89 86.87,-158.03"/>
</g>
<!-- Node5&#45;&gt;Node6 -->
<g id="edge7" class="edge">
<title>Node5&#45;&gt;Node6</title>
<path fill="none" stroke="midnightblue" d="M106.66,-164.23C128.55,-154.13 158.5,-140.31 177.55,-131.52"/>
<polygon fill="midnightblue" stroke="midnightblue" points="105.15,-161.08 97.54,-168.44 108.09,-167.43 105.15,-161.08"/>
</g>
<!-- Node6&#45;&gt;Node2 -->
<g id="edge8" class="edge">
<title>Node6&#45;&gt;Node2</title>
<path fill="none" stroke="midnightblue" d="M209.02,-103.86C216.12,-94.5 224.6,-83.33 230.36,-75.75"/>
<polygon fill="midnightblue" stroke="midnightblue" points="206.03,-102 202.77,-112.08 211.61,-106.24 206.03,-102"/>
</g>
<!-- Node7&#45;&gt;Node2 -->
<g id="edge10" class="edge">
<title>Node7&#45;&gt;Node2</title>
<path fill="none" stroke="midnightblue" d="M297.56,-220.99C324.71,-210.46 353.68,-192.93 343,-168 324.28,-124.31 276.35,-90.55 251.87,-75.53"/>
<polygon fill="midnightblue" stroke="midnightblue" points="296.31,-217.72 288.1,-224.42 298.69,-224.3 296.31,-217.72"/>
</g>
<!-- Node7&#45;&gt;Node6 -->
<g id="edge14" class="edge">
<title>Node7&#45;&gt;Node6</title>
<path fill="none" stroke="midnightblue" d="M239.03,-217.47C230.69,-209.41 221.25,-198.98 215,-188 204.53,-169.61 199.39,-144.95 197.26,-131.92"/>
<polygon fill="midnightblue" stroke="midnightblue" points="236.83,-220.2 246.56,-224.4 241.57,-215.05 236.83,-220.2"/>
</g>
<!-- Node8 -->
<g id="node8" class="node">
<title>Node8</title>
<g id="a_node8"><a xlink:href="pftool__elinks_8h_source.html" target="_top" xlink:title=" ">
<polygon fill="none" stroke="black" points="224,-168.5 224,-187.5 334,-187.5 334,-168.5 224,-168.5"/>
<text text-anchor="middle" x="279" y="-175.5" font-family="Helvetica,sans-Serif" font-size="10.00">tool/pftool_elinks.h</text>
</a>
</g>
</g>
<!-- Node7&#45;&gt;Node8 -->
<g id="edge11" class="edge">
<title>Node7&#45;&gt;Node8</title>
<path fill="none" stroke="midnightblue" d="M264.46,-214.69C268.17,-205.59 272.48,-195.01 275.43,-187.75"/>
<polygon fill="midnightblue" stroke="midnightblue" points="261.16,-213.5 260.63,-224.08 267.65,-216.14 261.16,-213.5"/>
</g>
<!-- Node8&#45;&gt;Node2 -->
<g id="edge12" class="edge">
<title>Node8&#45;&gt;Node2</title>
<path fill="none" stroke="midnightblue" d="M273.77,-158.75C269.84,-145.6 264.1,-127.52 258,-112 252.95,-99.16 246.01,-84.79 241.52,-75.82"/>
<polygon fill="midnightblue" stroke="midnightblue" points="270.44,-159.85 276.61,-168.47 277.16,-157.89 270.44,-159.85"/>
</g>
<!-- Node8&#45;&gt;Node6 -->
<g id="edge13" class="edge">
<title>Node8&#45;&gt;Node6</title>
<path fill="none" stroke="midnightblue" d="M256.9,-162.62C241.74,-152.76 222.12,-139.99 209.3,-131.65"/>
<polygon fill="midnightblue" stroke="midnightblue" points="255.37,-165.8 265.66,-168.32 259.19,-159.94 255.37,-165.8"/>
</g>
</g>
</svg>
