<?xml version="1.0" encoding="UTF-8" standalone="no"?>
<!DOCTYPE svg PUBLIC "-//W3C//DTD SVG 1.1//EN"
 "http://www.w3.org/Graphics/SVG/1.1/DTD/svg11.dtd">
<!-- Generated by graphviz version 2.43.0 (0)
 -->
<!-- Title: include/pflib/Compile.h Pages: 1 -->
<svg width="606pt" height="308pt"
 viewBox="0.00 0.00 605.50 308.00" xmlns="http://www.w3.org/2000/svg" xmlns:xlink="http://www.w3.org/1999/xlink">
<g id="graph0" class="graph" transform="scale(1 1) rotate(0) translate(4 304)">
<title>include/pflib/Compile.h</title>
<!-- Node1 -->
<g id="node1" class="node">
<title>Node1</title>
<g id="a_node1"><a xlink:title="Definition of compiling and decompiling functions between page numbers, register numbers,...">
<polygon fill="#bfbfbf" stroke="black" points="124,-280.5 124,-299.5 252,-299.5 252,-280.5 124,-280.5"/>
<text text-anchor="middle" x="188" y="-287.5" font-family="Helvetica,sans-Serif" font-size="10.00">include/pflib/Compile.h</text>
</a>
</g>
</g>
<!-- Node2 -->
<g id="node2" class="node">
<title>Node2</title>
<g id="a_node2"><a xlink:href="pftool_8h_source.html" target="_top" xlink:title=" ">
<polygon fill="none" stroke="black" points="150.5,-224.5 150.5,-243.5 225.5,-243.5 225.5,-224.5 150.5,-224.5"/>
<text text-anchor="middle" x="188" y="-231.5" font-family="Helvetica,sans-Serif" font-size="10.00">tool/pftool.h</text>
</a>
</g>
</g>
<!-- Node1&#45;&gt;Node2 -->
<g id="edge1" class="edge">
<title>Node1&#45;&gt;Node2</title>
<path fill="none" stroke="midnightblue" d="M188,-269.8C188,-260.91 188,-250.78 188,-243.75"/>
<polygon fill="midnightblue" stroke="midnightblue" points="184.5,-270.08 188,-280.08 191.5,-270.08 184.5,-270.08"/>
</g>
<!-- Node3 -->
<g id="node3" class="node">
<title>Node3</title>
<g id="a_node3"><a xlink:href="pftool_8cc.html" target="_top" xlink:title="File defining the pftool executable.">
<polygon fill="none" stroke="black" points="0,-168.5 0,-187.5 80,-187.5 80,-168.5 0,-168.5"/>
<text text-anchor="middle" x="40" y="-175.5" font-family="Helvetica,sans-Serif" font-size="10.00">tool/pftool.cc</text>
</a>
</g>
</g>
<!-- Node2&#45;&gt;Node3 -->
<g id="edge2" class="edge">
<title>Node2&#45;&gt;Node3</title>
<path fill="none" stroke="midnightblue" d="M154.85,-220.91C127.03,-210.75 87.98,-196.51 63.34,-187.52"/>
<polygon fill="midnightblue" stroke="midnightblue" points="153.96,-224.3 164.55,-224.44 156.35,-217.73 153.96,-224.3"/>
</g>
<!-- Node4 -->
<g id="node4" class="node">
<title>Node4</title>
<g id="a_node4"><a xlink:href="pftool__elinks_8h_source.html" target="_top" xlink:title=" ">
<polygon fill="none" stroke="black" points="288,-56.5 288,-75.5 398,-75.5 398,-56.5 288,-56.5"/>
<text text-anchor="middle" x="343" y="-63.5" font-family="Helvetica,sans-Serif" font-size="10.00">tool/pftool_elinks.h</text>
</a>
</g>
</g>
<!-- Node2&#45;&gt;Node4 -->
<g id="edge3" class="edge">
<title>Node2&#45;&gt;Node4</title>
<path fill="none" stroke="midnightblue" d="M235.19,-222.04C255.79,-215.2 278.87,-204.47 295,-188 311.61,-171.05 333.27,-100.49 340.52,-75.67"/>
<polygon fill="midnightblue" stroke="midnightblue" points="234.15,-218.7 225.63,-225 236.22,-225.39 234.15,-218.7"/>
</g>
<!-- Node5 -->
<g id="node5" class="node">
<title>Node5</title>
<g id="a_node5"><a xlink:href="pftool__tasks_8h_source.html" target="_top" xlink:title=" ">
<polygon fill="none" stroke="black" points="330.5,-0.5 330.5,-19.5 437.5,-19.5 437.5,-0.5 330.5,-0.5"/>
<text text-anchor="middle" x="384" y="-7.5" font-family="Helvetica,sans-Serif" font-size="10.00">tool/pftool_tasks.h</text>
</a>
</g>
</g>
<!-- Node2&#45;&gt;Node5 -->
<g id="edge15" class="edge">
<title>Node2&#45;&gt;Node5</title>
<path fill="none" stroke="midnightblue" d="M172.93,-216.61C143.76,-182.9 85.95,-104.87 127,-56 152.46,-25.7 262.91,-15.8 330.46,-12.56"/>
<polygon fill="midnightblue" stroke="midnightblue" points="170.39,-219.03 179.65,-224.18 175.62,-214.38 170.39,-219.03"/>
</g>
<!-- Node6 -->
<g id="node6" class="node">
<title>Node6</title>
<g id="a_node6"><a xlink:href="pftool__expert_8h_source.html" target="_top" xlink:title=" ">
<polygon fill="none" stroke="black" points="174,-168.5 174,-187.5 286,-187.5 286,-168.5 174,-168.5"/>
<text text-anchor="middle" x="230" y="-175.5" font-family="Helvetica,sans-Serif" font-size="10.00">tool/pftool_expert.h</text>
</a>
</g>
</g>
<!-- Node2&#45;&gt;Node6 -->
<g id="edge5" class="edge">
<title>Node2&#45;&gt;Node6</title>
<path fill="none" stroke="midnightblue" d="M201.11,-216.14C208.43,-206.74 217.24,-195.4 223.19,-187.75"/>
<polygon fill="midnightblue" stroke="midnightblue" points="198.31,-214.04 194.94,-224.08 203.84,-218.34 198.31,-214.04"/>
</g>
<!-- Node7 -->
<g id="node7" class="node">
<title>Node7</title>
<g id="a_node7"><a xlink:href="pftool__fastcontrol_8h_source.html" target="_top" xlink:title=" ">
<polygon fill="none" stroke="black" points="136.5,-56.5 136.5,-75.5 269.5,-75.5 269.5,-56.5 136.5,-56.5"/>
<text text-anchor="middle" x="203" y="-63.5" font-family="Helvetica,sans-Serif" font-size="10.00">tool/pftool_fastcontrol.h</text>
</a>
</g>
</g>
<!-- Node2&#45;&gt;Node7 -->
<g id="edge6" class="edge">
<title>Node2&#45;&gt;Node7</title>
<path fill="none" stroke="midnightblue" d="M176.58,-215.44C172.02,-207.42 167.31,-197.58 165,-188 162.92,-179.36 163.41,-176.75 165,-168 171.5,-132.24 189.97,-92.68 198.54,-75.61"/>
<polygon fill="midnightblue" stroke="midnightblue" points="173.71,-217.46 181.9,-224.19 179.69,-213.83 173.71,-217.46"/>
</g>
<!-- Node8 -->
<g id="node8" class="node">
<title>Node8</title>
<g id="a_node8"><a xlink:href="pftool__roc_8h_source.html" target="_top" xlink:title=" ">
<polygon fill="none" stroke="black" points="382.5,-168.5 382.5,-187.5 477.5,-187.5 477.5,-168.5 382.5,-168.5"/>
<text text-anchor="middle" x="430" y="-175.5" font-family="Helvetica,sans-Serif" font-size="10.00">tool/pftool_roc.h</text>
</a>
</g>
</g>
<!-- Node2&#45;&gt;Node8 -->
<g id="edge8" class="edge">
<title>Node2&#45;&gt;Node8</title>
<path fill="none" stroke="midnightblue" d="M235.5,-222.4C281.13,-212.22 349.24,-197.02 391.56,-187.58"/>
<polygon fill="midnightblue" stroke="midnightblue" points="234.54,-219.03 225.55,-224.62 236.07,-225.86 234.54,-219.03"/>
</g>
<!-- Node4&#45;&gt;Node5 -->
<g id="edge4" class="edge">
<title>Node4&#45;&gt;Node5</title>
<path fill="none" stroke="midnightblue" d="M356.02,-47.86C363.12,-38.5 371.6,-27.33 377.36,-19.75"/>
<polygon fill="midnightblue" stroke="midnightblue" points="353.03,-46 349.77,-56.08 358.61,-50.24 353.03,-46"/>
</g>
<!-- Node7&#45;&gt;Node5 -->
<g id="edge7" class="edge">
<title>Node7&#45;&gt;Node5</title>
<path fill="none" stroke="midnightblue" d="M241.32,-53.57C275.46,-43.38 324.66,-28.7 355.45,-19.52"/>
<polygon fill="midnightblue" stroke="midnightblue" points="240.26,-50.23 231.68,-56.44 242.26,-56.94 240.26,-50.23"/>
</g>
<!-- Node8&#45;&gt;Node5 -->
<g id="edge14" class="edge">
<title>Node8&#45;&gt;Node5</title>
<path fill="none" stroke="midnightblue" d="M440.37,-159.07C446.6,-146.1 452.68,-128.1 449,-112 440.13,-73.17 408.31,-36.06 392.73,-19.72"/>
<polygon fill="midnightblue" stroke="midnightblue" points="437.09,-157.78 435.51,-168.26 443.28,-161.05 437.09,-157.78"/>
</g>
<!-- Node9 -->
<g id="node9" class="node">
<title>Node9</title>
<g id="a_node9"><a xlink:href="pftool__bias_8h_source.html" target="_top" xlink:title=" ">
<polygon fill="none" stroke="black" points="496.5,-112.5 496.5,-131.5 597.5,-131.5 597.5,-112.5 496.5,-112.5"/>
<text text-anchor="middle" x="547" y="-119.5" font-family="Helvetica,sans-Serif" font-size="10.00">tool/pftool_bias.h</text>
</a>
</g>
</g>
<!-- Node8&#45;&gt;Node9 -->
<g id="edge9" class="edge">
<title>Node8&#45;&gt;Node9</title>
<path fill="none" stroke="midnightblue" d="M457.66,-164.23C479.55,-154.13 509.5,-140.31 528.55,-131.52"/>
<polygon fill="midnightblue" stroke="midnightblue" points="456.15,-161.08 448.54,-168.44 459.09,-167.43 456.15,-161.08"/>
</g>
<!-- Node10 -->
<g id="node10" class="node">
<title>Node10</title>
<g id="a_node10"><a xlink:href="pftool__daq_8h_source.html" target="_top" xlink:title=" ">
<polygon fill="none" stroke="black" points="342,-112.5 342,-131.5 440,-131.5 440,-112.5 342,-112.5"/>
<text text-anchor="middle" x="391" y="-119.5" font-family="Helvetica,sans-Serif" font-size="10.00">tool/pftool_daq.h</text>
</a>
</g>
</g>
<!-- Node8&#45;&gt;Node10 -->
<g id="edge11" class="edge">
<title>Node8&#45;&gt;Node10</title>
<path fill="none" stroke="midnightblue" d="M417.62,-159.86C410.86,-150.5 402.79,-139.33 397.32,-131.75"/>
<polygon fill="midnightblue" stroke="midnightblue" points="414.87,-162.03 423.56,-168.08 420.54,-157.93 414.87,-162.03"/>
</g>
<!-- Node9&#45;&gt;Node5 -->
<g id="edge10" class="edge">
<title>Node9&#45;&gt;Node5</title>
<path fill="none" stroke="midnightblue" d="M533.48,-104.5C521.19,-90.27 501.96,-69.89 482,-56 458.95,-39.96 429.27,-27.27 408.64,-19.51"/>
<polygon fill="midnightblue" stroke="midnightblue" points="531.06,-107.06 540.19,-112.45 536.42,-102.55 531.06,-107.06"/>
</g>
<!-- Node10&#45;&gt;Node4 -->
<g id="edge12" class="edge">
<title>Node10&#45;&gt;Node4</title>
<path fill="none" stroke="midnightblue" d="M376.27,-104.43C367.86,-94.97 357.65,-83.48 350.78,-75.75"/>
<polygon fill="midnightblue" stroke="midnightblue" points="373.81,-106.93 383.07,-112.08 379.05,-102.28 373.81,-106.93"/>
</g>
<!-- Node10&#45;&gt;Node5 -->
<g id="edge13" class="edge">
<title>Node10&#45;&gt;Node5</title>
<path fill="none" stroke="midnightblue" d="M400.17,-102.93C405.63,-89.89 410.82,-71.87 407,-56 403.76,-42.52 395.75,-28.54 390.1,-19.81"/>
<polygon fill="midnightblue" stroke="midnightblue" points="396.92,-101.63 395.9,-112.18 403.27,-104.56 396.92,-101.63"/>
</g>
</g>
</svg>
