<?xml version="1.0" encoding="UTF-8" standalone="no"?>
<!DOCTYPE svg PUBLIC "-//W3C//DTD SVG 1.1//EN"
 "http://www.w3.org/Graphics/SVG/1.1/DTD/svg11.dtd">
<!-- Generated by graphviz version 2.43.0 (0)
 -->
<!-- Title: src/pflib Pages: 1 -->
<svg width="334pt" height="159pt"
 viewBox="0.00 0.00 334.00 159.00" xmlns="http://www.w3.org/2000/svg" xmlns:xlink="http://www.w3.org/1999/xlink">
<g id="graph0" class="graph" transform="scale(1 1) rotate(0) translate(4 155)">
<title>src/pflib</title>
<g id="clust1" class="cluster">
<title>clusterdir_68267d1309a1af8e8297ef4c3efbcdba</title>
<g id="a_clust1"><a xlink:href="dir_68267d1309a1af8e8297ef4c3efbcdba.html" target="_top" xlink:title="src">
<polygon fill="#ddddee" stroke="black" points="8,-56 8,-143 318,-143 318,-56 8,-56"/>
<text text-anchor="middle" x="163" y="-131" font-family="Helvetica,sans-Serif" font-size="10.00">src</text>
</a>
</g>
</g>
<g id="clust2" class="cluster">
<title>clusterdir_c6d2d237c0320e21ff4b43865bb608ec</title>
<g id="a_clust2"><a xlink:href="dir_c6d2d237c0320e21ff4b43865bb608ec.html" target="_top">
<polygon fill="#eeeeff" stroke="black" points="16,-64 16,-116 310,-116 310,-64 16,-64"/>
</a>
</g>
</g>
<!-- dir_c6d2d237c0320e21ff4b43865bb608ec -->
<g id="node1" class="node">
<title>dir_c6d2d237c0320e21ff4b43865bb608ec</title>
<text text-anchor="middle" x="275" y="-87.5" font-family="Helvetica,sans-Serif" font-size="10.00">pflib</text>
</g>
<!-- dir_d44c64559bbebec7f509842c48db8b23 -->
<g id="node5" class="node">
<title>dir_d44c64559bbebec7f509842c48db8b23</title>
<g id="a_node5"><a xlink:href="dir_d44c64559bbebec7f509842c48db8b23.html" target="_top" xlink:title="include">
<polygon fill="none" stroke="red" points="302,-36 248,-36 248,0 302,0 302,-36"/>
<text text-anchor="middle" x="275" y="-15.5" font-family="Helvetica,sans-Serif" font-size="10.00">include</text>
</a>
</g>
</g>
<!-- dir_c6d2d237c0320e21ff4b43865bb608ec&#45;&gt;dir_d44c64559bbebec7f509842c48db8b23 -->
<g id="edge1" class="edge">
<title>dir_c6d2d237c0320e21ff4b43865bb608ec&#45;&gt;dir_d44c64559bbebec7f509842c48db8b23</title>
<path fill="none" stroke="black" d="M275,-71.7C275,-63.98 275,-54.71 275,-46.11"/>
<polygon fill="black" stroke="black" points="278.5,-46.1 275,-36.1 271.5,-46.1 278.5,-46.1"/>
<g id="a_edge1&#45;headlabel"><a xlink:href="dir_000009_000000.html" target="_top" xlink:title="3">
<text text-anchor="middle" x="281.34" y="-47.2" font-family="Helvetica,sans-Serif" font-size="10.00">3</text>
</a>
</g>
</g>
<!-- dir_84348c2bb86b65562c9142736f1a035d -->
<g id="node2" class="node">
<title>dir_84348c2bb86b65562c9142736f1a035d</title>
<g id="a_node2"><a xlink:href="dir_84348c2bb86b65562c9142736f1a035d.html" target="_top" xlink:title="decoding">
<polygon fill="white" stroke="black" points="229.5,-108 168.5,-108 168.5,-72 229.5,-72 229.5,-108"/>
<text text-anchor="middle" x="199" y="-87.5" font-family="Helvetica,sans-Serif" font-size="10.00">decoding</text>
</a>
</g>
</g>
<!-- dir_867761da7db476db6b1cfd052554657c -->
<g id="node3" class="node">
<title>dir_867761da7db476db6b1cfd052554657c</title>
<g id="a_node3"><a xlink:href="dir_867761da7db476db6b1cfd052554657c.html" target="_top" xlink:title="rogue">
<polygon fill="white" stroke="black" points="150,-108 96,-108 96,-72 150,-72 150,-108"/>
<text text-anchor="middle" x="123" y="-87.5" font-family="Helvetica,sans-Serif" font-size="10.00">rogue</text>
</a>
</g>
</g>
<!-- dir_cbce655b96c8a252aedd968571f476a9 -->
<g id="node4" class="node">
<title>dir_cbce655b96c8a252aedd968571f476a9</title>
<g id="a_node4"><a xlink:href="dir_cbce655b96c8a252aedd968571f476a9.html" target="_top" xlink:title="uhal">
<polygon fill="white" stroke="black" points="78,-108 24,-108 24,-72 78,-72 78,-108"/>
<text text-anchor="middle" x="51" y="-87.5" font-family="Helvetica,sans-Serif" font-size="10.00">uhal</text>
</a>
</g>
</g>
</g>
</svg>
