<?xml version="1.0" encoding="UTF-8" standalone="no"?>
<!DOCTYPE svg PUBLIC "-//W3C//DTD SVG 1.1//EN"
 "http://www.w3.org/Graphics/SVG/1.1/DTD/svg11.dtd">
<!-- Generated by graphviz version 2.43.0 (0)
 -->
<!-- Title: Graphical Class Hierarchy Pages: 1 -->
<svg width="335pt" height="88pt"
 viewBox="0.00 0.00 335.00 88.00" xmlns="http://www.w3.org/2000/svg" xmlns:xlink="http://www.w3.org/1999/xlink">
<g id="graph0" class="graph" transform="scale(1 1) rotate(0) translate(4 84)">
<title>Graphical Class Hierarchy</title>
<!-- Node0 -->
<g id="node1" class="node">
<title>Node0</title>
<g id="a_node1"><a xlink:href="classpflib_1_1Backend.html" target="_top" xlink:title="Abstract interface for various backend manipulations.">
<polygon fill="none" stroke="black" points="25,-52 25,-71 110,-71 110,-52 25,-52"/>
<text text-anchor="middle" x="67.5" y="-59" font-family="Helvetica,sans-Serif" font-size="10.00">pflib::Backend</text>
</a>
</g>
</g>
<!-- Node1 -->
<g id="node2" class="node">
<title>Node1</title>
<g id="a_node2"><a xlink:href="classpflib_1_1rogue_1_1RogueWishboneInterface.html" target="_top" xlink:title=" ">
<polygon fill="none" stroke="black" points="171,-49.5 171,-79.5 327,-79.5 327,-49.5 171,-49.5"/>
<text text-anchor="start" x="179" y="-67.5" font-family="Helvetica,sans-Serif" font-size="10.00">pflib::rogue::RogueWishbone</text>
<text text-anchor="middle" x="249" y="-56.5" font-family="Helvetica,sans-Serif" font-size="10.00">Interface</text>
</a>
</g>
</g>
<!-- Node0&#45;&gt;Node1 -->
<g id="edge1" class="edge">
<title>Node0&#45;&gt;Node1</title>
<path fill="none" stroke="midnightblue" d="M120.24,-62.36C136.07,-62.63 153.85,-62.93 171,-63.21"/>
<polygon fill="midnightblue" stroke="midnightblue" points="120.19,-58.86 110.13,-62.2 120.07,-65.86 120.19,-58.86"/>
</g>
<!-- Node2 -->
<g id="node3" class="node">
<title>Node2</title>
<g id="a_node3"><a xlink:href="classpflib_1_1uhal_1_1uhalWishboneInterface.html" target="_top" xlink:title=" ">
<polygon fill="none" stroke="black" points="179,-0.5 179,-30.5 319,-30.5 319,-0.5 179,-0.5"/>
<text text-anchor="start" x="187" y="-18.5" font-family="Helvetica,sans-Serif" font-size="10.00">pflib::uhal::uhalWishbone</text>
<text text-anchor="middle" x="249" y="-7.5" font-family="Helvetica,sans-Serif" font-size="10.00">Interface</text>
</a>
</g>
</g>
<!-- Node0&#45;&gt;Node2 -->
<g id="edge2" class="edge">
<title>Node0&#45;&gt;Node2</title>
<path fill="none" stroke="midnightblue" d="M115.39,-49.48C137.99,-43.69 165.33,-36.69 189.3,-30.54"/>
<polygon fill="midnightblue" stroke="midnightblue" points="114.51,-46.1 105.69,-51.97 116.25,-52.88 114.51,-46.1"/>
</g>
<!-- Node33 -->
<g id="node4" class="node">
<title>Node33</title>
<g id="a_node4"><a xlink:href="classpflib_1_1WishboneInterface.html" target="_top" xlink:title="Abstract interface for wishbone transactions, used by ~all classes in pflib.">
<polygon fill="none" stroke="black" points="0,-11 0,-30 135,-30 135,-11 0,-11"/>
<text text-anchor="middle" x="67.5" y="-18" font-family="Helvetica,sans-Serif" font-size="10.00">pflib::WishboneInterface</text>
</a>
</g>
</g>
<!-- Node33&#45;&gt;Node1 -->
<g id="edge3" class="edge">
<title>Node33&#45;&gt;Node1</title>
<path fill="none" stroke="midnightblue" d="M117.27,-32.46C138.62,-37.69 163.92,-43.89 186.54,-49.43"/>
<polygon fill="midnightblue" stroke="midnightblue" points="117.99,-29.03 107.45,-30.05 116.33,-35.83 117.99,-29.03"/>
</g>
<!-- Node33&#45;&gt;Node2 -->
<g id="edge4" class="edge">
<title>Node33&#45;&gt;Node2</title>
<path fill="none" stroke="midnightblue" d="M145.23,-18.36C156.39,-18.05 167.82,-17.73 178.82,-17.43"/>
<polygon fill="midnightblue" stroke="midnightblue" points="144.98,-14.87 135.08,-18.65 145.18,-21.87 144.98,-14.87"/>
</g>
</g>
</svg>
