<?xml version="1.0" encoding="UTF-8" standalone="no"?>
<!DOCTYPE svg PUBLIC "-//W3C//DTD SVG 1.1//EN"
 "http://www.w3.org/Graphics/SVG/1.1/DTD/svg11.dtd">
<!-- Generated by graphviz version 2.43.0 (0)
 -->
<!-- Title: Graphical Class Hierarchy Pages: 1 -->
<svg width="235pt" height="66pt"
 viewBox="0.00 0.00 235.00 66.00" xmlns="http://www.w3.org/2000/svg" xmlns:xlink="http://www.w3.org/1999/xlink">
<g id="graph0" class="graph" transform="scale(1 1) rotate(0) translate(4 62)">
<title>Graphical Class Hierarchy</title>
<!-- Node0 -->
<g id="node1" class="node">
<title>Node0</title>
<g id="a_node1"><a xlink:href="classpflib_1_1detail_1_1PolarfireSetting.html" target="_top" xlink:title="Object that can change a setting on a polarfire target.">
<polygon fill="none" stroke="black" points="0,-14 0,-44 118,-44 118,-14 0,-14"/>
<text text-anchor="start" x="8" y="-32" font-family="Helvetica,sans-Serif" font-size="10.00">pflib::detail::Polarfire</text>
<text text-anchor="middle" x="59" y="-21" font-family="Helvetica,sans-Serif" font-size="10.00">Setting</text>
</a>
</g>
</g>
<!-- Node1 -->
<g id="node2" class="node">
<title>Node1</title>
<g id="a_node2"><a xlink:href="classcalib__offset.html" target="_top" xlink:title="Definition of settings.">
<polygon fill="none" stroke="black" points="154,-38.5 154,-57.5 227,-57.5 227,-38.5 154,-38.5"/>
<text text-anchor="middle" x="190.5" y="-45.5" font-family="Helvetica,sans-Serif" font-size="10.00">calib_offset</text>
</a>
</g>
</g>
<!-- Node0&#45;&gt;Node1 -->
<g id="edge1" class="edge">
<title>Node0&#45;&gt;Node1</title>
<path fill="none" stroke="midnightblue" d="M128.26,-39.01C137.06,-40.31 145.78,-41.59 153.76,-42.76"/>
<polygon fill="midnightblue" stroke="midnightblue" points="128.71,-35.54 118.31,-37.56 127.7,-42.47 128.71,-35.54"/>
</g>
<!-- Node2 -->
<g id="node3" class="node">
<title>Node2</title>
<g id="a_node3"><a xlink:href="classsipm__bias.html" target="_top" xlink:title="sets the sipm bias adc value for all connectors on the input rocs">
<polygon fill="none" stroke="black" points="157.5,-0.5 157.5,-19.5 223.5,-19.5 223.5,-0.5 157.5,-0.5"/>
<text text-anchor="middle" x="190.5" y="-7.5" font-family="Helvetica,sans-Serif" font-size="10.00">sipm_bias</text>
</a>
</g>
</g>
<!-- Node0&#45;&gt;Node2 -->
<g id="edge2" class="edge">
<title>Node0&#45;&gt;Node2</title>
<path fill="none" stroke="midnightblue" d="M128.41,-18.96C138.51,-17.48 148.49,-16.02 157.37,-14.71"/>
<polygon fill="midnightblue" stroke="midnightblue" points="127.7,-15.53 118.31,-20.44 128.71,-22.46 127.7,-15.53"/>
</g>
</g>
</svg>
