<?xml version="1.0" encoding="UTF-8" standalone="no"?>
<!DOCTYPE svg PUBLIC "-//W3C//DTD SVG 1.1//EN"
 "http://www.w3.org/Graphics/SVG/1.1/DTD/svg11.dtd">
<!-- Generated by graphviz version 2.43.0 (0)
 -->
<!-- Title: Graphical Class Hierarchy Pages: 1 -->
<svg width="264pt" height="142pt"
 viewBox="0.00 0.00 264.00 142.00" xmlns="http://www.w3.org/2000/svg" xmlns:xlink="http://www.w3.org/1999/xlink">
<g id="graph0" class="graph" transform="scale(1 1) rotate(0) translate(4 138)">
<title>Graphical Class Hierarchy</title>
<!-- Node0 -->
<g id="node1" class="node">
<title>Node0</title>
<g id="a_node1"><a xlink:href="classpflib_1_1WishboneTarget.html" target="_top" xlink:title="Parent class for standard wishbone targets providing some utilities.">
<polygon fill="none" stroke="black" points="0,-57.5 0,-76.5 122,-76.5 122,-57.5 0,-57.5"/>
<text text-anchor="middle" x="61" y="-64.5" font-family="Helvetica,sans-Serif" font-size="10.00">pflib::WishboneTarget</text>
</a>
</g>
</g>
<!-- Node1 -->
<g id="node2" class="node">
<title>Node1</title>
<g id="a_node2"><a xlink:href="classpflib_1_1Elinks.html" target="_top" xlink:title=" ">
<polygon fill="none" stroke="black" points="170.5,-114.5 170.5,-133.5 243.5,-133.5 243.5,-114.5 170.5,-114.5"/>
<text text-anchor="middle" x="207" y="-121.5" font-family="Helvetica,sans-Serif" font-size="10.00">pflib::Elinks</text>
</a>
</g>
</g>
<!-- Node0&#45;&gt;Node1 -->
<g id="edge1" class="edge">
<title>Node0&#45;&gt;Node1</title>
<path fill="none" stroke="midnightblue" d="M95.7,-80.34C122.11,-90.8 158.22,-105.09 181.82,-114.43"/>
<polygon fill="midnightblue" stroke="midnightblue" points="96.69,-76.97 86.1,-76.54 94.11,-83.48 96.69,-76.97"/>
</g>
<!-- Node2 -->
<g id="node3" class="node">
<title>Node2</title>
<g id="a_node3"><a xlink:href="classpflib_1_1FastControl.html" target="_top" xlink:title="Class which encapsulates the FastControl controller in the Polarfire.">
<polygon fill="none" stroke="black" points="158,-76.5 158,-95.5 256,-95.5 256,-76.5 158,-76.5"/>
<text text-anchor="middle" x="207" y="-83.5" font-family="Helvetica,sans-Serif" font-size="10.00">pflib::FastControl</text>
</a>
</g>
</g>
<!-- Node0&#45;&gt;Node2 -->
<g id="edge2" class="edge">
<title>Node0&#45;&gt;Node2</title>
<path fill="none" stroke="midnightblue" d="M132.32,-76.28C140.96,-77.42 149.62,-78.56 157.82,-79.64"/>
<polygon fill="midnightblue" stroke="midnightblue" points="132.61,-72.79 122.23,-74.95 131.69,-79.73 132.61,-72.79"/>
</g>
<!-- Node3 -->
<g id="node4" class="node">
<title>Node3</title>
<g id="a_node4"><a xlink:href="classpflib_1_1GPIO.html" target="_top" xlink:title="Class which encapsulates the GPIO controller in the Polarfire.">
<polygon fill="none" stroke="black" points="173,-38.5 173,-57.5 241,-57.5 241,-38.5 173,-38.5"/>
<text text-anchor="middle" x="207" y="-45.5" font-family="Helvetica,sans-Serif" font-size="10.00">pflib::GPIO</text>
</a>
</g>
</g>
<!-- Node0&#45;&gt;Node3 -->
<g id="edge3" class="edge">
<title>Node0&#45;&gt;Node3</title>
<path fill="none" stroke="midnightblue" d="M132.43,-57.71C146.48,-55.85 160.62,-53.99 172.69,-52.39"/>
<polygon fill="midnightblue" stroke="midnightblue" points="131.69,-54.27 122.23,-59.05 132.61,-61.21 131.69,-54.27"/>
</g>
<!-- Node4 -->
<g id="node5" class="node">
<title>Node4</title>
<g id="a_node5"><a xlink:href="classpflib_1_1I2C.html" target="_top" xlink:title="Class which encapsulates the I2C controller in the Polarfire.">
<polygon fill="none" stroke="black" points="177.5,-0.5 177.5,-19.5 236.5,-19.5 236.5,-0.5 177.5,-0.5"/>
<text text-anchor="middle" x="207" y="-7.5" font-family="Helvetica,sans-Serif" font-size="10.00">pflib::I2C</text>
</a>
</g>
</g>
<!-- Node0&#45;&gt;Node4 -->
<g id="edge4" class="edge">
<title>Node0&#45;&gt;Node4</title>
<path fill="none" stroke="midnightblue" d="M95.7,-53.66C122.11,-43.2 158.22,-28.91 181.82,-19.57"/>
<polygon fill="midnightblue" stroke="midnightblue" points="94.11,-50.52 86.1,-57.46 96.69,-57.03 94.11,-50.52"/>
</g>
</g>
</svg>
