<?xml version="1.0" encoding="UTF-8" standalone="no"?>
<!DOCTYPE svg PUBLIC "-//W3C//DTD SVG 1.1//EN"
 "http://www.w3.org/Graphics/SVG/1.1/DTD/svg11.dtd">
<!-- Generated by graphviz version 2.43.0 (0)
 -->
<!-- Title: tool/pftool.cc Pages: 1 -->
<svg width="1518pt" height="487pt"
 viewBox="0.00 0.00 1518.00 487.00" xmlns="http://www.w3.org/2000/svg" xmlns:xlink="http://www.w3.org/1999/xlink">
<g id="graph0" class="graph" transform="scale(1 1) rotate(0) translate(4 483)">
<title>tool/pftool.cc</title>
<!-- Node1 -->
<g id="node1" class="node">
<title>Node1</title>
<g id="a_node1"><a xlink:title="File defining the pftool menus and their commands.">
<polygon fill="#bfbfbf" stroke="black" points="818,-459.5 818,-478.5 898,-478.5 898,-459.5 818,-459.5"/>
<text text-anchor="middle" x="858" y="-466.5" font-family="Helvetica,sans-Serif" font-size="10.00">tool/pftool.cc</text>
</a>
</g>
</g>
<!-- Node2 -->
<g id="node2" class="node">
<title>Node2</title>
<g id="a_node2"><a xlink:title=" ">
<polygon fill="none" stroke="#bfbfbf" points="28,-342 28,-361 78,-361 78,-342 28,-342"/>
<text text-anchor="middle" x="53" y="-349" font-family="Helvetica,sans-Serif" font-size="10.00">stdio.h</text>
</a>
</g>
</g>
<!-- Node1&#45;&gt;Node2 -->
<g id="edge1" class="edge">
<title>Node1&#45;&gt;Node2</title>
<path fill="none" stroke="midnightblue" d="M817.78,-467.2C693.89,-464.41 319.36,-453.62 202,-423 154.48,-410.6 103.72,-383.15 75.41,-366.39"/>
<polygon fill="midnightblue" stroke="midnightblue" points="77.08,-363.31 66.71,-361.16 73.48,-369.31 77.08,-363.31"/>
</g>
<!-- Node3 -->
<g id="node3" class="node">
<title>Node3</title>
<g id="a_node3"><a xlink:title=" ">
<polygon fill="none" stroke="#bfbfbf" points="992.5,-403.5 992.5,-422.5 1045.5,-422.5 1045.5,-403.5 992.5,-403.5"/>
<text text-anchor="middle" x="1019" y="-410.5" font-family="Helvetica,sans-Serif" font-size="10.00">stdlib.h</text>
</a>
</g>
</g>
<!-- Node1&#45;&gt;Node3 -->
<g id="edge2" class="edge">
<title>Node1&#45;&gt;Node3</title>
<path fill="none" stroke="midnightblue" d="M883.51,-459.44C910.6,-450.36 953.59,-435.94 983.87,-425.78"/>
<polygon fill="midnightblue" stroke="midnightblue" points="985.24,-429.01 993.61,-422.52 983.01,-422.38 985.24,-429.01"/>
</g>
<!-- Node4 -->
<g id="node4" class="node">
<title>Node4</title>
<g id="a_node4"><a xlink:title=" ">
<polygon fill="none" stroke="#bfbfbf" points="1064,-403.5 1064,-422.5 1132,-422.5 1132,-403.5 1064,-403.5"/>
<text text-anchor="middle" x="1098" y="-410.5" font-family="Helvetica,sans-Serif" font-size="10.00">sys/time.h</text>
</a>
</g>
</g>
<!-- Node1&#45;&gt;Node4 -->
<g id="edge3" class="edge">
<title>Node1&#45;&gt;Node4</title>
<path fill="none" stroke="midnightblue" d="M896.03,-459.44C938.91,-449.79 1008.56,-434.12 1053.82,-423.94"/>
<polygon fill="midnightblue" stroke="midnightblue" points="1054.66,-427.34 1063.65,-421.73 1053.12,-420.51 1054.66,-427.34"/>
</g>
<!-- Node5 -->
<g id="node5" class="node">
<title>Node5</title>
<g id="a_node5"><a xlink:title=" ">
<polygon fill="none" stroke="#bfbfbf" points="1150,-403.5 1150,-422.5 1214,-422.5 1214,-403.5 1150,-403.5"/>
<text text-anchor="middle" x="1182" y="-410.5" font-family="Helvetica,sans-Serif" font-size="10.00">algorithm</text>
</a>
</g>
</g>
<!-- Node1&#45;&gt;Node5 -->
<g id="edge4" class="edge">
<title>Node1&#45;&gt;Node5</title>
<path fill="none" stroke="midnightblue" d="M898.43,-462.33C951.53,-454.71 1047.89,-440.33 1139.78,-423.14"/>
<polygon fill="midnightblue" stroke="midnightblue" points="1140.63,-426.54 1149.81,-421.25 1139.33,-419.67 1140.63,-426.54"/>
</g>
<!-- Node6 -->
<g id="node6" class="node">
<title>Node6</title>
<g id="a_node6"><a xlink:title=" ">
<polygon fill="none" stroke="#bfbfbf" points="1232.5,-403.5 1232.5,-422.5 1287.5,-422.5 1287.5,-403.5 1232.5,-403.5"/>
<text text-anchor="middle" x="1260" y="-410.5" font-family="Helvetica,sans-Serif" font-size="10.00">fstream</text>
</a>
</g>
</g>
<!-- Node1&#45;&gt;Node6 -->
<g id="edge5" class="edge">
<title>Node1&#45;&gt;Node6</title>
<path fill="none" stroke="midnightblue" d="M898.2,-464.58C963.9,-458.66 1098.52,-445.13 1222.17,-422.95"/>
<polygon fill="midnightblue" stroke="midnightblue" points="1222.98,-426.36 1232.19,-421.13 1221.73,-419.47 1222.98,-426.36"/>
</g>
<!-- Node7 -->
<g id="node7" class="node">
<title>Node7</title>
<g id="a_node7"><a xlink:title=" ">
<polygon fill="none" stroke="#bfbfbf" points="96,-342 96,-361 156,-361 156,-342 96,-342"/>
<text text-anchor="middle" x="126" y="-349" font-family="Helvetica,sans-Serif" font-size="10.00">iostream</text>
</a>
</g>
</g>
<!-- Node1&#45;&gt;Node7 -->
<g id="edge6" class="edge">
<title>Node1&#45;&gt;Node7</title>
<path fill="none" stroke="midnightblue" d="M817.94,-467.26C700.62,-464.74 359.34,-454.79 253,-423 212.08,-410.77 169.72,-383.86 145.73,-367.05"/>
<polygon fill="midnightblue" stroke="midnightblue" points="147.65,-364.12 137.48,-361.16 143.58,-369.82 147.65,-364.12"/>
</g>
<!-- Node8 -->
<g id="node8" class="node">
<title>Node8</title>
<g id="a_node8"><a xlink:title=" ">
<polygon fill="none" stroke="#bfbfbf" points="1306,-403.5 1306,-422.5 1362,-422.5 1362,-403.5 1306,-403.5"/>
<text text-anchor="middle" x="1334" y="-410.5" font-family="Helvetica,sans-Serif" font-size="10.00">sstream</text>
</a>
</g>
</g>
<!-- Node1&#45;&gt;Node8 -->
<g id="edge7" class="edge">
<title>Node1&#45;&gt;Node8</title>
<path fill="none" stroke="midnightblue" d="M898.2,-465.72C974.09,-461.02 1143.78,-448.62 1295.81,-422.99"/>
<polygon fill="midnightblue" stroke="midnightblue" points="1296.53,-426.41 1305.8,-421.28 1295.35,-419.51 1296.53,-426.41"/>
</g>
<!-- Node9 -->
<g id="node9" class="node">
<title>Node9</title>
<g id="a_node9"><a xlink:title=" ">
<polygon fill="none" stroke="#bfbfbf" points="524,-224.5 524,-243.5 562,-243.5 562,-224.5 524,-224.5"/>
<text text-anchor="middle" x="543" y="-231.5" font-family="Helvetica,sans-Serif" font-size="10.00">map</text>
</a>
</g>
</g>
<!-- Node1&#45;&gt;Node9 -->
<g id="edge8" class="edge">
<title>Node1&#45;&gt;Node9</title>
<path fill="none" stroke="midnightblue" d="M817.86,-464.16C761.25,-458.05 661.65,-444.56 633,-423 603.74,-400.98 564.5,-296.28 549.34,-253.39"/>
<polygon fill="midnightblue" stroke="midnightblue" points="552.55,-251.97 545.95,-243.69 545.94,-254.28 552.55,-251.97"/>
</g>
<!-- Node10 -->
<g id="node10" class="node">
<title>Node10</title>
<g id="a_node10"><a xlink:title=" ">
<polygon fill="none" stroke="#bfbfbf" points="1380,-403.5 1380,-422.5 1436,-422.5 1436,-403.5 1380,-403.5"/>
<text text-anchor="middle" x="1408" y="-410.5" font-family="Helvetica,sans-Serif" font-size="10.00">iomanip</text>
</a>
</g>
</g>
<!-- Node1&#45;&gt;Node10 -->
<g id="edge9" class="edge">
<title>Node1&#45;&gt;Node10</title>
<path fill="none" stroke="midnightblue" d="M898.17,-466.54C983.4,-463.01 1188.73,-452.14 1369.84,-422.95"/>
<polygon fill="midnightblue" stroke="midnightblue" points="1370.5,-426.39 1379.81,-421.32 1369.37,-419.48 1370.5,-426.39"/>
</g>
<!-- Node11 -->
<g id="node11" class="node">
<title>Node11</title>
<g id="a_node11"><a xlink:title=" ">
<polygon fill="none" stroke="#bfbfbf" points="1454,-403.5 1454,-422.5 1510,-422.5 1510,-403.5 1454,-403.5"/>
<text text-anchor="middle" x="1482" y="-410.5" font-family="Helvetica,sans-Serif" font-size="10.00">unistd.h</text>
</a>
</g>
</g>
<!-- Node1&#45;&gt;Node11 -->
<g id="edge10" class="edge">
<title>Node1&#45;&gt;Node11</title>
<path fill="none" stroke="midnightblue" d="M898.12,-467.16C992.01,-464.72 1233.4,-455.68 1443.82,-422.93"/>
<polygon fill="midnightblue" stroke="midnightblue" points="1444.48,-426.37 1453.81,-421.35 1443.39,-419.46 1444.48,-426.37"/>
</g>
<!-- Node12 -->
<g id="node12" class="node">
<title>Node12</title>
<g id="a_node12"><a xlink:title=" ">
<polygon fill="none" stroke="#bfbfbf" points="436,-0.5 436,-19.5 480,-19.5 480,-0.5 436,-0.5"/>
<text text-anchor="middle" x="458" y="-7.5" font-family="Helvetica,sans-Serif" font-size="10.00">string</text>
</a>
</g>
</g>
<!-- Node1&#45;&gt;Node12 -->
<g id="edge11" class="edge">
<title>Node1&#45;&gt;Node12</title>
<path fill="none" stroke="midnightblue" d="M817.93,-467.37C686.95,-465.02 272.46,-455.16 143,-423 74.23,-405.91 0,-423.36 0,-352.5 0,-352.5 0,-352.5 0,-121 0,-33.33 321.28,-15.35 425.67,-11.82"/>
<polygon fill="midnightblue" stroke="midnightblue" points="426.02,-15.32 435.91,-11.5 425.8,-8.32 426.02,-15.32"/>
</g>
<!-- Node13 -->
<g id="node13" class="node">
<title>Node13</title>
<g id="a_node13"><a xlink:title=" ">
<polygon fill="none" stroke="#bfbfbf" points="1026.5,-0.5 1026.5,-19.5 1091.5,-19.5 1091.5,-0.5 1026.5,-0.5"/>
<text text-anchor="middle" x="1059" y="-7.5" font-family="Helvetica,sans-Serif" font-size="10.00">exception</text>
</a>
</g>
</g>
<!-- Node1&#45;&gt;Node13 -->
<g id="edge12" class="edge">
<title>Node1&#45;&gt;Node13</title>
<path fill="none" stroke="midnightblue" d="M874.62,-459.4C908.67,-441.78 983.27,-403.21 984,-403 1071.85,-377.56 1324.44,-426.39 1394,-367 1420.48,-344.39 1413,-325.82 1413,-291 1413,-291 1413,-291 1413,-121 1413,-56.49 1195.89,-25.56 1101.72,-15.17"/>
<polygon fill="midnightblue" stroke="midnightblue" points="1101.99,-11.68 1091.67,-14.09 1101.24,-18.64 1101.99,-11.68"/>
</g>
<!-- Node14 -->
<g id="node14" class="node">
<title>Node14</title>
<g id="a_node14"><a xlink:href="PolarfireTarget_8h_source.html" target="_top" xlink:title=" ">
<polygon fill="none" stroke="black" points="642,-403.5 642,-422.5 762,-422.5 762,-403.5 642,-403.5"/>
<text text-anchor="middle" x="702" y="-410.5" font-family="Helvetica,sans-Serif" font-size="10.00">pflib/PolarfireTarget.h</text>
</a>
</g>
</g>
<!-- Node1&#45;&gt;Node14 -->
<g id="edge13" class="edge">
<title>Node1&#45;&gt;Node14</title>
<path fill="none" stroke="midnightblue" d="M833.28,-459.44C807.15,-450.4 765.74,-436.06 736.42,-425.92"/>
<polygon fill="midnightblue" stroke="midnightblue" points="737.2,-422.48 726.6,-422.52 734.91,-429.1 737.2,-422.48"/>
</g>
<!-- Node32 -->
<g id="node32" class="node">
<title>Node32</title>
<g id="a_node32"><a xlink:href="Compile_8h.html" target="_top" xlink:title="Definition of compiling and decompiling functions between page numbers, register numbers,...">
<polygon fill="none" stroke="black" points="456,-280.5 456,-299.5 546,-299.5 546,-280.5 456,-280.5"/>
<text text-anchor="middle" x="501" y="-287.5" font-family="Helvetica,sans-Serif" font-size="10.00">pflib/Compile.h</text>
</a>
</g>
</g>
<!-- Node1&#45;&gt;Node32 -->
<g id="edge52" class="edge">
<title>Node1&#45;&gt;Node32</title>
<path fill="none" stroke="midnightblue" d="M817.89,-466.33C747.48,-462.68 605.34,-451.87 566,-423 565.37,-422.54 527.37,-344.94 509.77,-308.95"/>
<polygon fill="midnightblue" stroke="midnightblue" points="512.75,-307.07 505.21,-299.62 506.46,-310.14 512.75,-307.07"/>
</g>
<!-- Node33 -->
<g id="node33" class="node">
<title>Node33</title>
<g id="a_node33"><a xlink:href="Menu_8h_source.html" target="_top" xlink:title=" ">
<polygon fill="none" stroke="black" points="262.5,-403.5 262.5,-422.5 315.5,-422.5 315.5,-403.5 262.5,-403.5"/>
<text text-anchor="middle" x="289" y="-410.5" font-family="Helvetica,sans-Serif" font-size="10.00">Menu.h</text>
</a>
</g>
</g>
<!-- Node1&#45;&gt;Node33 -->
<g id="edge56" class="edge">
<title>Node1&#45;&gt;Node33</title>
<path fill="none" stroke="midnightblue" d="M817.96,-464.62C734.32,-457.5 534.98,-440.18 368,-423 354.24,-421.58 339.15,-419.9 325.87,-418.37"/>
<polygon fill="midnightblue" stroke="midnightblue" points="326.02,-414.86 315.68,-417.19 325.21,-421.82 326.02,-414.86"/>
</g>
<!-- Node36 -->
<g id="node36" class="node">
<title>Node36</title>
<g id="a_node36"><a xlink:href="Rcfile_8h_source.html" target="_top" xlink:title=" ">
<polygon fill="none" stroke="black" points="338.5,-224.5 338.5,-243.5 391.5,-243.5 391.5,-224.5 338.5,-224.5"/>
<text text-anchor="middle" x="365" y="-231.5" font-family="Helvetica,sans-Serif" font-size="10.00">Rcfile.h</text>
</a>
</g>
</g>
<!-- Node1&#45;&gt;Node36 -->
<g id="edge65" class="edge">
<title>Node1&#45;&gt;Node36</title>
<path fill="none" stroke="midnightblue" d="M817.98,-466.16C758.66,-462.53 644.45,-452.09 552,-423 498.91,-406.3 480.38,-405.3 440,-367 405.05,-333.86 381.78,-280.77 371.32,-253.1"/>
<polygon fill="midnightblue" stroke="midnightblue" points="374.55,-251.73 367.84,-243.53 367.97,-254.12 374.55,-251.73"/>
</g>
<!-- Node37 -->
<g id="node37" class="node">
<title>Node37</title>
<g id="a_node37"><a xlink:href="SuperPacket_8h_source.html" target="_top" xlink:title=" ">
<polygon fill="none" stroke="black" points="780,-403.5 780,-422.5 936,-422.5 936,-403.5 780,-403.5"/>
<text text-anchor="middle" x="858" y="-410.5" font-family="Helvetica,sans-Serif" font-size="10.00">pflib/decoding/SuperPacket.h</text>
</a>
</g>
</g>
<!-- Node1&#45;&gt;Node37 -->
<g id="edge68" class="edge">
<title>Node1&#45;&gt;Node37</title>
<path fill="none" stroke="midnightblue" d="M858,-459.08C858,-452.01 858,-441.86 858,-432.99"/>
<polygon fill="midnightblue" stroke="midnightblue" points="861.5,-432.75 858,-422.75 854.5,-432.75 861.5,-432.75"/>
</g>
<!-- Node14&#45;&gt;Node12 -->
<g id="edge17" class="edge">
<title>Node14&#45;&gt;Node12</title>
<path fill="none" stroke="midnightblue" d="M694.3,-403.41C669,-374.25 590,-275.5 590,-179 590,-179 590,-179 590,-121 590,-68.89 528.53,-36.67 489.49,-21.47"/>
<polygon fill="midnightblue" stroke="midnightblue" points="490.69,-18.18 480.09,-17.97 488.24,-24.74 490.69,-18.18"/>
</g>
<!-- Node15 -->
<g id="node15" class="node">
<title>Node15</title>
<g id="a_node15"><a xlink:title=" ">
<polygon fill="none" stroke="#bfbfbf" points="1020.5,-342 1020.5,-361 1077.5,-361 1077.5,-342 1020.5,-342"/>
<text text-anchor="middle" x="1049" y="-349" font-family="Helvetica,sans-Serif" font-size="10.00">ostream</text>
</a>
</g>
</g>
<!-- Node14&#45;&gt;Node15 -->
<g id="edge14" class="edge">
<title>Node14&#45;&gt;Node15</title>
<path fill="none" stroke="midnightblue" d="M762.33,-403.94C845.41,-392.73 987.49,-373.12 1011,-367 1013.82,-366.27 1016.72,-365.39 1019.59,-364.44"/>
<polygon fill="midnightblue" stroke="midnightblue" points="1020.92,-367.69 1029.15,-361.02 1018.56,-361.1 1020.92,-367.69"/>
</g>
<!-- Node16 -->
<g id="node16" class="node">
<title>Node16</title>
<g id="a_node16"><a xlink:title=" ">
<polygon fill="none" stroke="#bfbfbf" points="944,-342 944,-361 1002,-361 1002,-342 944,-342"/>
<text text-anchor="middle" x="973" y="-349" font-family="Helvetica,sans-Serif" font-size="10.00">memory</text>
</a>
</g>
</g>
<!-- Node14&#45;&gt;Node16 -->
<g id="edge15" class="edge">
<title>Node14&#45;&gt;Node16</title>
<path fill="none" stroke="midnightblue" d="M761.56,-403.42C809.04,-395.89 876.96,-383.54 935,-367 937.58,-366.26 940.24,-365.43 942.89,-364.53"/>
<polygon fill="midnightblue" stroke="midnightblue" points="944.09,-367.82 952.31,-361.14 941.72,-361.23 944.09,-367.82"/>
</g>
<!-- Node17 -->
<g id="node17" class="node">
<title>Node17</title>
<g id="a_node17"><a xlink:title=" ">
<polygon fill="none" stroke="#bfbfbf" points="448.5,-342 448.5,-361 513.5,-361 513.5,-342 448.5,-342"/>
<text text-anchor="middle" x="481" y="-349" font-family="Helvetica,sans-Serif" font-size="10.00">functional</text>
</a>
</g>
</g>
<!-- Node14&#45;&gt;Node17 -->
<g id="edge16" class="edge">
<title>Node14&#45;&gt;Node17</title>
<path fill="none" stroke="midnightblue" d="M670.34,-403.48C631.44,-393 565.36,-375.21 522.45,-363.66"/>
<polygon fill="midnightblue" stroke="midnightblue" points="523.17,-360.23 512.61,-361.01 521.35,-366.99 523.17,-360.23"/>
</g>
<!-- Node18 -->
<g id="node18" class="node">
<title>Node18</title>
<g id="a_node18"><a xlink:href="WishboneInterface_8h_source.html" target="_top" xlink:title=" ">
<polygon fill="none" stroke="black" points="1019.5,-112.5 1019.5,-131.5 1160.5,-131.5 1160.5,-112.5 1019.5,-112.5"/>
<text text-anchor="middle" x="1090" y="-119.5" font-family="Helvetica,sans-Serif" font-size="10.00">pflib/WishboneInterface.h</text>
</a>
</g>
</g>
<!-- Node14&#45;&gt;Node18 -->
<g id="edge18" class="edge">
<title>Node14&#45;&gt;Node18</title>
<path fill="none" stroke="midnightblue" d="M762.2,-404.09C765.18,-403.72 768.12,-403.35 771,-403 1022.3,-372.3 1187.67,-461.05 1318,-244 1356.66,-179.62 1247,-147.68 1166.64,-133.29"/>
<polygon fill="midnightblue" stroke="midnightblue" points="1166.95,-129.79 1156.5,-131.54 1165.76,-136.69 1166.95,-129.79"/>
</g>
<!-- Node21 -->
<g id="node21" class="node">
<title>Node21</title>
<g id="a_node21"><a xlink:href="Backend_8h_source.html" target="_top" xlink:title=" ">
<polygon fill="none" stroke="black" points="656.5,-224.5 656.5,-243.5 747.5,-243.5 747.5,-224.5 656.5,-224.5"/>
<text text-anchor="middle" x="702" y="-231.5" font-family="Helvetica,sans-Serif" font-size="10.00">pflib/Backend.h</text>
</a>
</g>
</g>
<!-- Node14&#45;&gt;Node21 -->
<g id="edge23" class="edge">
<title>Node14&#45;&gt;Node21</title>
<path fill="none" stroke="midnightblue" d="M702,-403.46C702,-376.43 702,-292.24 702,-254.11"/>
<polygon fill="midnightblue" stroke="midnightblue" points="705.5,-253.87 702,-243.87 698.5,-253.87 705.5,-253.87"/>
</g>
<!-- Node23 -->
<g id="node23" class="node">
<title>Node23</title>
<g id="a_node23"><a xlink:href="Hcal_8h_source.html" target="_top" xlink:title=" ">
<polygon fill="none" stroke="black" points="854.5,-342 854.5,-361 925.5,-361 925.5,-342 854.5,-342"/>
<text text-anchor="middle" x="890" y="-349" font-family="Helvetica,sans-Serif" font-size="10.00">pflib/Hcal.h</text>
</a>
</g>
</g>
<!-- Node14&#45;&gt;Node23 -->
<g id="edge27" class="edge">
<title>Node14&#45;&gt;Node23</title>
<path fill="none" stroke="midnightblue" d="M728.94,-403.48C761.6,-393.14 816.82,-375.66 853.34,-364.1"/>
<polygon fill="midnightblue" stroke="midnightblue" points="854.64,-367.36 863.11,-361.01 852.52,-360.69 854.64,-367.36"/>
</g>
<!-- Node19 -->
<g id="node19" class="node">
<title>Node19</title>
<g id="a_node19"><a xlink:href="Exception_8h_source.html" target="_top" xlink:title=" ">
<polygon fill="none" stroke="black" points="656,-56.5 656,-75.5 754,-75.5 754,-56.5 656,-56.5"/>
<text text-anchor="middle" x="705" y="-63.5" font-family="Helvetica,sans-Serif" font-size="10.00">pflib/Exception.h</text>
</a>
</g>
</g>
<!-- Node18&#45;&gt;Node19 -->
<g id="edge19" class="edge">
<title>Node18&#45;&gt;Node19</title>
<path fill="none" stroke="midnightblue" d="M1029,-112.44C956.44,-102.27 836.16,-85.4 764.35,-75.32"/>
<polygon fill="midnightblue" stroke="midnightblue" points="764.5,-71.81 754.11,-73.89 763.53,-78.74 764.5,-71.81"/>
</g>
<!-- Node20 -->
<g id="node20" class="node">
<title>Node20</title>
<g id="a_node20"><a xlink:title=" ">
<polygon fill="none" stroke="#bfbfbf" points="1063.5,-56.5 1063.5,-75.5 1116.5,-75.5 1116.5,-56.5 1063.5,-56.5"/>
<text text-anchor="middle" x="1090" y="-63.5" font-family="Helvetica,sans-Serif" font-size="10.00">stdint.h</text>
</a>
</g>
</g>
<!-- Node18&#45;&gt;Node20 -->
<g id="edge22" class="edge">
<title>Node18&#45;&gt;Node20</title>
<path fill="none" stroke="midnightblue" d="M1090,-112.08C1090,-105.01 1090,-94.86 1090,-85.99"/>
<polygon fill="midnightblue" stroke="midnightblue" points="1093.5,-85.75 1090,-75.75 1086.5,-85.75 1093.5,-85.75"/>
</g>
<!-- Node19&#45;&gt;Node12 -->
<g id="edge21" class="edge">
<title>Node19&#45;&gt;Node12</title>
<path fill="none" stroke="midnightblue" d="M665.86,-56.44C617.15,-45.79 534.89,-27.81 489.85,-17.96"/>
<polygon fill="midnightblue" stroke="midnightblue" points="490.55,-14.53 480.03,-15.82 489.05,-21.37 490.55,-14.53"/>
</g>
<!-- Node19&#45;&gt;Node13 -->
<g id="edge20" class="edge">
<title>Node19&#45;&gt;Node13</title>
<path fill="none" stroke="midnightblue" d="M754.22,-57.49C823.83,-46.87 949.89,-27.64 1015.96,-17.56"/>
<polygon fill="midnightblue" stroke="midnightblue" points="1016.68,-21 1026.03,-16.03 1015.62,-14.08 1016.68,-21"/>
</g>
<!-- Node21&#45;&gt;Node19 -->
<g id="edge24" class="edge">
<title>Node21&#45;&gt;Node19</title>
<path fill="none" stroke="midnightblue" d="M702.16,-224.08C702.63,-197.95 704.02,-121.21 704.66,-85.58"/>
<polygon fill="midnightblue" stroke="midnightblue" points="708.16,-85.63 704.85,-75.57 701.16,-85.5 708.16,-85.63"/>
</g>
<!-- Node21&#45;&gt;Node20 -->
<g id="edge25" class="edge">
<title>Node21&#45;&gt;Node20</title>
<path fill="none" stroke="midnightblue" d="M710.57,-224.21C724.41,-210.45 753.1,-183.77 782,-168 873.33,-118.15 993.4,-87.62 1053.06,-74.51"/>
<polygon fill="midnightblue" stroke="midnightblue" points="1054.09,-77.87 1063.13,-72.34 1052.62,-71.02 1054.09,-77.87"/>
</g>
<!-- Node22 -->
<g id="node22" class="node">
<title>Node22</title>
<g id="a_node22"><a xlink:title=" ">
<polygon fill="none" stroke="#bfbfbf" points="790.5,-168.5 790.5,-187.5 837.5,-187.5 837.5,-168.5 790.5,-168.5"/>
<text text-anchor="middle" x="814" y="-175.5" font-family="Helvetica,sans-Serif" font-size="10.00">vector</text>
</a>
</g>
</g>
<!-- Node21&#45;&gt;Node22 -->
<g id="edge26" class="edge">
<title>Node21&#45;&gt;Node22</title>
<path fill="none" stroke="midnightblue" d="M719.99,-224.32C738.04,-215.62 766.05,-202.12 786.8,-192.11"/>
<polygon fill="midnightblue" stroke="midnightblue" points="788.56,-195.15 796.05,-187.65 785.52,-188.84 788.56,-195.15"/>
</g>
<!-- Node24 -->
<g id="node24" class="node">
<title>Node24</title>
<g id="a_node24"><a xlink:href="ROC_8h_source.html" target="_top" xlink:title=" ">
<polygon fill="none" stroke="black" points="733.5,-280.5 733.5,-299.5 804.5,-299.5 804.5,-280.5 733.5,-280.5"/>
<text text-anchor="middle" x="769" y="-287.5" font-family="Helvetica,sans-Serif" font-size="10.00">pflib/ROC.h</text>
</a>
</g>
</g>
<!-- Node23&#45;&gt;Node24 -->
<g id="edge28" class="edge">
<title>Node23&#45;&gt;Node24</title>
<path fill="none" stroke="midnightblue" d="M872.66,-341.98C852.45,-332.03 818.81,-315.49 795.36,-303.96"/>
<polygon fill="midnightblue" stroke="midnightblue" points="796.82,-300.78 786.3,-299.51 793.73,-307.06 796.82,-300.78"/>
</g>
<!-- Node25 -->
<g id="node25" class="node">
<title>Node25</title>
<g id="a_node25"><a xlink:href="I2C_8h_source.html" target="_top" xlink:title=" ">
<polygon fill="none" stroke="black" points="842.5,-224.5 842.5,-243.5 907.5,-243.5 907.5,-224.5 842.5,-224.5"/>
<text text-anchor="middle" x="875" y="-231.5" font-family="Helvetica,sans-Serif" font-size="10.00">pflib/I2C.h</text>
</a>
</g>
</g>
<!-- Node23&#45;&gt;Node25 -->
<g id="edge36" class="edge">
<title>Node23&#45;&gt;Node25</title>
<path fill="none" stroke="midnightblue" d="M894.19,-341.69C900.03,-328.22 909.22,-301.78 903,-280 900.1,-269.84 894.17,-259.75 888.51,-251.7"/>
<polygon fill="midnightblue" stroke="midnightblue" points="891.22,-249.48 882.41,-243.59 885.62,-253.69 891.22,-249.48"/>
</g>
<!-- Node27 -->
<g id="node27" class="node">
<title>Node27</title>
<g id="a_node27"><a xlink:href="Bias_8h_source.html" target="_top" xlink:title=" ">
<polygon fill="none" stroke="black" points="822.5,-280.5 822.5,-299.5 893.5,-299.5 893.5,-280.5 822.5,-280.5"/>
<text text-anchor="middle" x="858" y="-287.5" font-family="Helvetica,sans-Serif" font-size="10.00">pflib/Bias.h</text>
</a>
</g>
</g>
<!-- Node23&#45;&gt;Node27 -->
<g id="edge37" class="edge">
<title>Node23&#45;&gt;Node27</title>
<path fill="none" stroke="midnightblue" d="M885.42,-341.98C880.76,-333.32 873.41,-319.65 867.49,-308.65"/>
<polygon fill="midnightblue" stroke="midnightblue" points="870.4,-306.66 862.58,-299.51 864.23,-309.97 870.4,-306.66"/>
</g>
<!-- Node28 -->
<g id="node28" class="node">
<title>Node28</title>
<g id="a_node28"><a xlink:href="Elinks_8h_source.html" target="_top" xlink:title=" ">
<polygon fill="none" stroke="black" points="1140.5,-224.5 1140.5,-243.5 1219.5,-243.5 1219.5,-224.5 1140.5,-224.5"/>
<text text-anchor="middle" x="1180" y="-231.5" font-family="Helvetica,sans-Serif" font-size="10.00">pflib/Elinks.h</text>
</a>
</g>
</g>
<!-- Node23&#45;&gt;Node28 -->
<g id="edge40" class="edge">
<title>Node23&#45;&gt;Node28</title>
<path fill="none" stroke="midnightblue" d="M911.8,-341.82C962.73,-321.53 1089.68,-270.97 1148.79,-247.43"/>
<polygon fill="midnightblue" stroke="midnightblue" points="1150.35,-250.58 1158.35,-243.62 1147.76,-244.07 1150.35,-250.58"/>
</g>
<!-- Node29 -->
<g id="node29" class="node">
<title>Node29</title>
<g id="a_node29"><a xlink:href="GPIO_8h_source.html" target="_top" xlink:title=" ">
<polygon fill="none" stroke="black" points="926,-224.5 926,-243.5 1000,-243.5 1000,-224.5 926,-224.5"/>
<text text-anchor="middle" x="963" y="-231.5" font-family="Helvetica,sans-Serif" font-size="10.00">pflib/GPIO.h</text>
</a>
</g>
</g>
<!-- Node23&#45;&gt;Node29 -->
<g id="edge43" class="edge">
<title>Node23&#45;&gt;Node29</title>
<path fill="none" stroke="midnightblue" d="M895.49,-341.82C907.48,-322.84 936.23,-277.35 952.07,-252.29"/>
<polygon fill="midnightblue" stroke="midnightblue" points="955.07,-254.11 957.45,-243.78 949.15,-250.37 955.07,-254.11"/>
</g>
<!-- Node30 -->
<g id="node30" class="node">
<title>Node30</title>
<g id="a_node30"><a xlink:href="FastControl_8h_source.html" target="_top" xlink:title=" ">
<polygon fill="none" stroke="black" points="1018,-224.5 1018,-243.5 1122,-243.5 1122,-224.5 1018,-224.5"/>
<text text-anchor="middle" x="1070" y="-231.5" font-family="Helvetica,sans-Serif" font-size="10.00">pflib/FastControl.h</text>
</a>
</g>
</g>
<!-- Node23&#45;&gt;Node30 -->
<g id="edge46" class="edge">
<title>Node23&#45;&gt;Node30</title>
<path fill="none" stroke="midnightblue" d="M903.53,-341.82C934.28,-322.09 1009.69,-273.7 1047.55,-249.41"/>
<polygon fill="midnightblue" stroke="midnightblue" points="1049.79,-252.13 1056.31,-243.78 1046.01,-246.24 1049.79,-252.13"/>
</g>
<!-- Node31 -->
<g id="node31" class="node">
<title>Node31</title>
<g id="a_node31"><a xlink:href="DAQ_8h_source.html" target="_top" xlink:title=" ">
<polygon fill="none" stroke="black" points="1237.5,-224.5 1237.5,-243.5 1308.5,-243.5 1308.5,-224.5 1237.5,-224.5"/>
<text text-anchor="middle" x="1273" y="-231.5" font-family="Helvetica,sans-Serif" font-size="10.00">pflib/DAQ.h</text>
</a>
</g>
</g>
<!-- Node23&#45;&gt;Node31 -->
<g id="edge49" class="edge">
<title>Node23&#45;&gt;Node31</title>
<path fill="none" stroke="midnightblue" d="M916.14,-341.97C922.32,-339.99 928.89,-337.9 935,-336 1042.76,-302.54 1170.49,-264.93 1233.62,-246.47"/>
<polygon fill="midnightblue" stroke="midnightblue" points="1234.93,-249.73 1243.55,-243.57 1232.97,-243.02 1234.93,-249.73"/>
</g>
<!-- Node24&#45;&gt;Node9 -->
<g id="edge34" class="edge">
<title>Node24&#45;&gt;Node9</title>
<path fill="none" stroke="midnightblue" d="M733.44,-280.5C688.84,-269.85 613.24,-251.78 571.98,-241.92"/>
<polygon fill="midnightblue" stroke="midnightblue" points="572.57,-238.47 562.03,-239.55 570.94,-245.27 572.57,-238.47"/>
</g>
<!-- Node24&#45;&gt;Node12 -->
<g id="edge35" class="edge">
<title>Node24&#45;&gt;Node12</title>
<path fill="none" stroke="midnightblue" d="M733.34,-284.34C706.41,-279.01 670.39,-267.71 648,-244 627.25,-222.02 628,-209.23 628,-179 628,-179 628,-179 628,-121 628,-90.2 626.36,-77.17 604,-56 572.94,-26.59 523.07,-16.38 490.42,-12.84"/>
<polygon fill="midnightblue" stroke="midnightblue" points="490.34,-9.32 480.06,-11.88 489.69,-16.29 490.34,-9.32"/>
</g>
<!-- Node24&#45;&gt;Node22 -->
<g id="edge33" class="edge">
<title>Node24&#45;&gt;Node22</title>
<path fill="none" stroke="midnightblue" d="M772.53,-280.37C779.86,-262.46 796.85,-220.92 806.66,-196.95"/>
<polygon fill="midnightblue" stroke="midnightblue" points="809.94,-198.17 810.49,-187.59 803.46,-195.52 809.94,-198.17"/>
</g>
<!-- Node24&#45;&gt;Node25 -->
<g id="edge29" class="edge">
<title>Node24&#45;&gt;Node25</title>
<path fill="none" stroke="midnightblue" d="M786.03,-280.32C803.03,-271.66 829.38,-258.24 848.99,-248.25"/>
<polygon fill="midnightblue" stroke="midnightblue" points="850.69,-251.31 858.01,-243.65 847.51,-245.08 850.69,-251.31"/>
</g>
<!-- Node25&#45;&gt;Node22 -->
<g id="edge32" class="edge">
<title>Node25&#45;&gt;Node22</title>
<path fill="none" stroke="midnightblue" d="M865.2,-224.32C856.18,-216.34 842.59,-204.31 831.68,-194.65"/>
<polygon fill="midnightblue" stroke="midnightblue" points="833.79,-191.84 823.98,-187.83 829.15,-197.08 833.79,-191.84"/>
</g>
<!-- Node26 -->
<g id="node26" class="node">
<title>Node26</title>
<g id="a_node26"><a xlink:href="WishboneTarget_8h_source.html" target="_top" xlink:title=" ">
<polygon fill="none" stroke="black" points="1006,-168.5 1006,-187.5 1134,-187.5 1134,-168.5 1006,-168.5"/>
<text text-anchor="middle" x="1070" y="-175.5" font-family="Helvetica,sans-Serif" font-size="10.00">pflib/WishboneTarget.h</text>
</a>
</g>
</g>
<!-- Node25&#45;&gt;Node26 -->
<g id="edge30" class="edge">
<title>Node25&#45;&gt;Node26</title>
<path fill="none" stroke="midnightblue" d="M905.9,-224.44C939.27,-215.2 992.59,-200.44 1029.35,-190.26"/>
<polygon fill="midnightblue" stroke="midnightblue" points="1030.54,-193.56 1039.25,-187.52 1028.67,-186.81 1030.54,-193.56"/>
</g>
<!-- Node26&#45;&gt;Node18 -->
<g id="edge31" class="edge">
<title>Node26&#45;&gt;Node18</title>
<path fill="none" stroke="midnightblue" d="M1073.3,-168.08C1075.98,-160.85 1079.85,-150.41 1083.19,-141.4"/>
<polygon fill="midnightblue" stroke="midnightblue" points="1086.57,-142.34 1086.76,-131.75 1080,-139.91 1086.57,-142.34"/>
</g>
<!-- Node27&#45;&gt;Node22 -->
<g id="edge39" class="edge">
<title>Node27&#45;&gt;Node22</title>
<path fill="none" stroke="midnightblue" d="M852.7,-280.28C847.46,-271.39 839.44,-257.08 834,-244 827.62,-228.67 822.22,-210.57 818.64,-197.37"/>
<polygon fill="midnightblue" stroke="midnightblue" points="822,-196.39 816.08,-187.6 815.23,-198.16 822,-196.39"/>
</g>
<!-- Node27&#45;&gt;Node25 -->
<g id="edge38" class="edge">
<title>Node27&#45;&gt;Node25</title>
<path fill="none" stroke="midnightblue" d="M860.81,-280.08C863.08,-272.85 866.37,-262.41 869.21,-253.4"/>
<polygon fill="midnightblue" stroke="midnightblue" points="872.58,-254.34 872.25,-243.75 865.9,-252.24 872.58,-254.34"/>
</g>
<!-- Node28&#45;&gt;Node22 -->
<g id="edge42" class="edge">
<title>Node28&#45;&gt;Node22</title>
<path fill="none" stroke="midnightblue" d="M1140.44,-225.59C1137.25,-225.04 1134.07,-224.5 1131,-224 1027.96,-207.23 905.49,-190.85 847.56,-183.31"/>
<polygon fill="midnightblue" stroke="midnightblue" points="847.88,-179.82 837.51,-182.01 846.98,-186.76 847.88,-179.82"/>
</g>
<!-- Node28&#45;&gt;Node26 -->
<g id="edge41" class="edge">
<title>Node28&#45;&gt;Node26</title>
<path fill="none" stroke="midnightblue" d="M1162.33,-224.32C1144.61,-215.62 1117.1,-202.12 1096.71,-192.11"/>
<polygon fill="midnightblue" stroke="midnightblue" points="1098.15,-188.92 1087.63,-187.65 1095.06,-195.2 1098.15,-188.92"/>
</g>
<!-- Node29&#45;&gt;Node22 -->
<g id="edge45" class="edge">
<title>Node29&#45;&gt;Node22</title>
<path fill="none" stroke="midnightblue" d="M939.39,-224.44C914.54,-215.44 875.23,-201.19 847.25,-191.05"/>
<polygon fill="midnightblue" stroke="midnightblue" points="848.09,-187.63 837.5,-187.52 845.71,-194.21 848.09,-187.63"/>
</g>
<!-- Node29&#45;&gt;Node26 -->
<g id="edge44" class="edge">
<title>Node29&#45;&gt;Node26</title>
<path fill="none" stroke="midnightblue" d="M980.19,-224.32C997.35,-215.66 1023.95,-202.24 1043.75,-192.25"/>
<polygon fill="midnightblue" stroke="midnightblue" points="1045.5,-195.28 1052.85,-187.65 1042.35,-189.04 1045.5,-195.28"/>
</g>
<!-- Node30&#45;&gt;Node22 -->
<g id="edge48" class="edge">
<title>Node30&#45;&gt;Node22</title>
<path fill="none" stroke="midnightblue" d="M1029.44,-224.44C979.1,-213.83 894.22,-195.92 847.44,-186.05"/>
<polygon fill="midnightblue" stroke="midnightblue" points="848.02,-182.6 837.51,-183.96 846.57,-189.45 848.02,-182.6"/>
</g>
<!-- Node30&#45;&gt;Node26 -->
<g id="edge47" class="edge">
<title>Node30&#45;&gt;Node26</title>
<path fill="none" stroke="midnightblue" d="M1070,-224.08C1070,-217.01 1070,-206.86 1070,-197.99"/>
<polygon fill="midnightblue" stroke="midnightblue" points="1073.5,-197.75 1070,-187.75 1066.5,-197.75 1073.5,-197.75"/>
</g>
<!-- Node31&#45;&gt;Node18 -->
<g id="edge51" class="edge">
<title>Node31&#45;&gt;Node18</title>
<path fill="none" stroke="midnightblue" d="M1258.64,-224.37C1227.1,-205.41 1151.56,-160 1113.2,-136.94"/>
<polygon fill="midnightblue" stroke="midnightblue" points="1114.67,-133.74 1104.29,-131.59 1111.06,-139.74 1114.67,-133.74"/>
</g>
<!-- Node31&#45;&gt;Node22 -->
<g id="edge50" class="edge">
<title>Node31&#45;&gt;Node22</title>
<path fill="none" stroke="midnightblue" d="M1237.03,-225.36C1234.32,-224.87 1231.62,-224.41 1229,-224 1088.02,-201.99 918.41,-187.22 847.61,-181.57"/>
<polygon fill="midnightblue" stroke="midnightblue" points="847.75,-178.07 837.5,-180.77 847.2,-185.05 847.75,-178.07"/>
</g>
<!-- Node32&#45;&gt;Node9 -->
<g id="edge53" class="edge">
<title>Node32&#45;&gt;Node9</title>
<path fill="none" stroke="midnightblue" d="M507.94,-280.08C513.93,-272.38 522.75,-261.03 530.05,-251.65"/>
<polygon fill="midnightblue" stroke="midnightblue" points="532.82,-253.79 536.19,-243.75 527.29,-249.5 532.82,-253.79"/>
</g>
<!-- Node32&#45;&gt;Node12 -->
<g id="edge54" class="edge">
<title>Node32&#45;&gt;Node12</title>
<path fill="none" stroke="midnightblue" d="M495.02,-280.33C483.21,-262.32 458,-219.19 458,-179 458,-179 458,-179 458,-121 458,-88.95 458,-51.64 458,-29.75"/>
<polygon fill="midnightblue" stroke="midnightblue" points="461.5,-29.56 458,-19.56 454.5,-29.56 461.5,-29.56"/>
</g>
<!-- Node32&#45;&gt;Node22 -->
<g id="edge55" class="edge">
<title>Node32&#45;&gt;Node22</title>
<path fill="none" stroke="midnightblue" d="M500.06,-280.37C499.05,-266.35 499.35,-238.7 515,-224 552.76,-188.54 710.02,-181.01 780.07,-179.42"/>
<polygon fill="midnightblue" stroke="midnightblue" points="780.22,-182.92 790.15,-179.22 780.08,-175.92 780.22,-182.92"/>
</g>
<!-- Node33&#45;&gt;Node2 -->
<g id="edge57" class="edge">
<title>Node33&#45;&gt;Node2</title>
<path fill="none" stroke="midnightblue" d="M262.44,-407.69C223.42,-401 148.57,-386.8 87,-367 85.08,-366.38 83.11,-365.7 81.14,-364.97"/>
<polygon fill="midnightblue" stroke="midnightblue" points="82.06,-361.56 71.47,-361.11 79.46,-368.06 82.06,-361.56"/>
</g>
<!-- Node33&#45;&gt;Node7 -->
<g id="edge63" class="edge">
<title>Node33&#45;&gt;Node7</title>
<path fill="none" stroke="midnightblue" d="M265.65,-403.48C237.69,-393.27 190.67,-376.11 159.01,-364.55"/>
<polygon fill="midnightblue" stroke="midnightblue" points="159.9,-361.15 149.31,-361.01 157.5,-367.73 159.9,-361.15"/>
</g>
<!-- Node33&#45;&gt;Node12 -->
<g id="edge60" class="edge">
<title>Node33&#45;&gt;Node12</title>
<path fill="none" stroke="midnightblue" d="M262.24,-404.5C242.99,-397.76 217.9,-385.93 203,-367 181.47,-339.64 184,-325.82 184,-291 184,-291 184,-291 184,-121 184,-69.46 353.1,-31.01 425.61,-16.89"/>
<polygon fill="midnightblue" stroke="midnightblue" points="426.41,-20.3 435.58,-14.99 425.1,-13.43 426.41,-20.3"/>
</g>
<!-- Node33&#45;&gt;Node17 -->
<g id="edge62" class="edge">
<title>Node33&#45;&gt;Node17</title>
<path fill="none" stroke="midnightblue" d="M315.7,-403.73C348.99,-393.41 406.1,-375.71 443.7,-364.06"/>
<polygon fill="midnightblue" stroke="midnightblue" points="444.77,-367.39 453.29,-361.09 442.7,-360.71 444.77,-367.39"/>
</g>
<!-- Node33&#45;&gt;Node19 -->
<g id="edge64" class="edge">
<title>Node33&#45;&gt;Node19</title>
<path fill="none" stroke="midnightblue" d="M298.42,-403.4C306.85,-395.04 318.68,-381.5 324,-367 345.9,-307.28 293.66,-276.21 330,-224 402.85,-119.35 559.63,-84.22 645.6,-72.6"/>
<polygon fill="midnightblue" stroke="midnightblue" points="646.26,-76.04 655.73,-71.3 645.36,-69.1 646.26,-76.04"/>
</g>
<!-- Node33&#45;&gt;Node22 -->
<g id="edge61" class="edge">
<title>Node33&#45;&gt;Node22</title>
<path fill="none" stroke="midnightblue" d="M304.18,-403.39C318.6,-394.91 340.61,-381.21 358,-367 427.11,-310.52 419.31,-264.2 499,-224 547.79,-199.39 709.31,-185.94 780.17,-181.1"/>
<polygon fill="midnightblue" stroke="midnightblue" points="780.6,-184.58 790.34,-180.42 780.13,-177.6 780.6,-184.58"/>
</g>
<!-- Node34 -->
<g id="node34" class="node">
<title>Node34</title>
<g id="a_node34"><a xlink:title=" ">
<polygon fill="none" stroke="#bfbfbf" points="262.5,-342 262.5,-361 315.5,-361 315.5,-342 262.5,-342"/>
<text text-anchor="middle" x="289" y="-349" font-family="Helvetica,sans-Serif" font-size="10.00">string.h</text>
</a>
</g>
</g>
<!-- Node33&#45;&gt;Node34 -->
<g id="edge58" class="edge">
<title>Node33&#45;&gt;Node34</title>
<path fill="none" stroke="midnightblue" d="M289,-403.48C289,-395.08 289,-381.98 289,-371.16"/>
<polygon fill="midnightblue" stroke="midnightblue" points="292.5,-371.01 289,-361.01 285.5,-371.01 292.5,-371.01"/>
</g>
<!-- Node35 -->
<g id="node35" class="node">
<title>Node35</title>
<g id="a_node35"><a xlink:title=" ">
<polygon fill="none" stroke="#bfbfbf" points="212,-342 212,-361 244,-361 244,-342 212,-342"/>
<text text-anchor="middle" x="228" y="-349" font-family="Helvetica,sans-Serif" font-size="10.00">list</text>
</a>
</g>
</g>
<!-- Node33&#45;&gt;Node35 -->
<g id="edge59" class="edge">
<title>Node33&#45;&gt;Node35</title>
<path fill="none" stroke="midnightblue" d="M280.26,-403.48C270.84,-394.28 255.64,-379.46 244.05,-368.16"/>
<polygon fill="midnightblue" stroke="midnightblue" points="246.33,-365.49 236.72,-361.01 241.44,-370.5 246.33,-365.49"/>
</g>
<!-- Node36&#45;&gt;Node12 -->
<g id="edge66" class="edge">
<title>Node36&#45;&gt;Node12</title>
<path fill="none" stroke="midnightblue" d="M368.65,-224.3C382.39,-191.49 431.24,-74.88 450.3,-29.38"/>
<polygon fill="midnightblue" stroke="midnightblue" points="453.64,-30.46 454.28,-19.88 447.19,-27.75 453.64,-30.46"/>
</g>
<!-- Node36&#45;&gt;Node22 -->
<g id="edge67" class="edge">
<title>Node36&#45;&gt;Node22</title>
<path fill="none" stroke="midnightblue" d="M391.83,-226.68C396.53,-225.7 401.4,-224.76 406,-224 544.12,-201.29 710.47,-186.94 780.43,-181.49"/>
<polygon fill="midnightblue" stroke="midnightblue" points="780.72,-184.98 790.42,-180.72 780.18,-178 780.72,-184.98"/>
</g>
<!-- Node38 -->
<g id="node38" class="node">
<title>Node38</title>
<g id="a_node38"><a xlink:href="PolarfirePacket_8h_source.html" target="_top" xlink:title=" ">
<polygon fill="none" stroke="black" points="1257,-336.5 1257,-366.5 1385,-366.5 1385,-336.5 1257,-336.5"/>
<text text-anchor="start" x="1265" y="-354.5" font-family="Helvetica,sans-Serif" font-size="10.00">pflib/decoding/Polarfire</text>
<text text-anchor="middle" x="1321" y="-343.5" font-family="Helvetica,sans-Serif" font-size="10.00">Packet.h</text>
</a>
</g>
</g>
<!-- Node37&#45;&gt;Node38 -->
<g id="edge69" class="edge">
<title>Node37&#45;&gt;Node38</title>
<path fill="none" stroke="midnightblue" d="M936.25,-403.49C1031.2,-393.04 1185.69,-375.67 1243,-367 1244.26,-366.81 1245.54,-366.61 1246.82,-366.41"/>
<polygon fill="midnightblue" stroke="midnightblue" points="1247.48,-369.85 1256.78,-364.79 1246.35,-362.94 1247.48,-369.85"/>
</g>
<!-- Node39 -->
<g id="node39" class="node">
<title>Node39</title>
<g id="a_node39"><a xlink:href="RocPacket_8h_source.html" target="_top" xlink:title=" ">
<polygon fill="none" stroke="black" points="1199,-112.5 1199,-131.5 1345,-131.5 1345,-112.5 1199,-112.5"/>
<text text-anchor="middle" x="1272" y="-119.5" font-family="Helvetica,sans-Serif" font-size="10.00">pflib/decoding/RocPacket.h</text>
</a>
</g>
</g>
<!-- Node38&#45;&gt;Node39 -->
<g id="edge70" class="edge">
<title>Node38&#45;&gt;Node39</title>
<path fill="none" stroke="midnightblue" d="M1329.31,-336.09C1346.81,-303.68 1383.27,-223.52 1351,-168 1342.26,-152.97 1326.42,-142.54 1311.21,-135.54"/>
<polygon fill="midnightblue" stroke="midnightblue" points="1312.46,-132.27 1301.88,-131.61 1309.74,-138.72 1312.46,-132.27"/>
</g>
<!-- Node39&#45;&gt;Node20 -->
<g id="edge71" class="edge">
<title>Node39&#45;&gt;Node20</title>
<path fill="none" stroke="midnightblue" d="M1243.16,-112.44C1211.51,-103.05 1160.63,-87.95 1126.28,-77.77"/>
<polygon fill="midnightblue" stroke="midnightblue" points="1127.21,-74.39 1116.63,-74.9 1125.22,-81.1 1127.21,-74.39"/>
</g>
</g>
</svg>
