<?xml version="1.0" encoding="UTF-8" standalone="no"?>
<!DOCTYPE svg PUBLIC "-//W3C//DTD SVG 1.1//EN"
 "http://www.w3.org/Graphics/SVG/1.1/DTD/svg11.dtd">
<!-- Generated by graphviz version 2.43.0 (0)
 -->
<!-- Title: tool/pftool.cc Pages: 1 -->
<svg width="1111pt" height="476pt"
 viewBox="0.00 0.00 1111.00 476.00" xmlns="http://www.w3.org/2000/svg" xmlns:xlink="http://www.w3.org/1999/xlink">
<g id="graph0" class="graph" transform="scale(1 1) rotate(0) translate(4 472)">
<title>tool/pftool.cc</title>
<!-- Node1 -->
<g id="node1" class="node">
<title>Node1</title>
<g id="a_node1"><a xlink:title="File defining the pftool menus and their commands.">
<polygon fill="#bfbfbf" stroke="black" points="598,-448.5 598,-467.5 678,-467.5 678,-448.5 598,-448.5"/>
<text text-anchor="middle" x="638" y="-455.5" font-family="Helvetica,sans-Serif" font-size="10.00">tool/pftool.cc</text>
</a>
</g>
</g>
<!-- Node2 -->
<g id="node2" class="node">
<title>Node2</title>
<g id="a_node2"><a xlink:title=" ">
<polygon fill="none" stroke="#bfbfbf" points="585,-336.5 585,-355.5 635,-355.5 635,-336.5 585,-336.5"/>
<text text-anchor="middle" x="610" y="-343.5" font-family="Helvetica,sans-Serif" font-size="10.00">stdio.h</text>
</a>
</g>
</g>
<!-- Node1&#45;&gt;Node2 -->
<g id="edge1" class="edge">
<title>Node1&#45;&gt;Node2</title>
<path fill="none" stroke="midnightblue" d="M635.8,-448.37C631.28,-430.62 620.86,-389.67 614.73,-365.6"/>
<polygon fill="midnightblue" stroke="midnightblue" points="618.05,-364.42 612.19,-355.59 611.26,-366.15 618.05,-364.42"/>
</g>
<!-- Node3 -->
<g id="node3" class="node">
<title>Node3</title>
<g id="a_node3"><a xlink:title=" ">
<polygon fill="none" stroke="#bfbfbf" points="74.5,-392.5 74.5,-411.5 127.5,-411.5 127.5,-392.5 74.5,-392.5"/>
<text text-anchor="middle" x="101" y="-399.5" font-family="Helvetica,sans-Serif" font-size="10.00">stdlib.h</text>
</a>
</g>
</g>
<!-- Node1&#45;&gt;Node3 -->
<g id="edge2" class="edge">
<title>Node1&#45;&gt;Node3</title>
<path fill="none" stroke="midnightblue" d="M597.79,-455.51C513.98,-451.95 314.44,-441.09 137.64,-411.83"/>
<polygon fill="midnightblue" stroke="midnightblue" points="138.08,-408.35 127.64,-410.15 136.92,-415.26 138.08,-408.35"/>
</g>
<!-- Node4 -->
<g id="node4" class="node">
<title>Node4</title>
<g id="a_node4"><a xlink:title=" ">
<polygon fill="none" stroke="#bfbfbf" points="146,-392.5 146,-411.5 214,-411.5 214,-392.5 146,-392.5"/>
<text text-anchor="middle" x="180" y="-399.5" font-family="Helvetica,sans-Serif" font-size="10.00">sys/time.h</text>
</a>
</g>
</g>
<!-- Node1&#45;&gt;Node4 -->
<g id="edge3" class="edge">
<title>Node1&#45;&gt;Node4</title>
<path fill="none" stroke="midnightblue" d="M597.76,-453.96C525.18,-448.19 367.34,-434.34 224.47,-412.09"/>
<polygon fill="midnightblue" stroke="midnightblue" points="224.63,-408.58 214.21,-410.48 223.55,-415.49 224.63,-408.58"/>
</g>
<!-- Node5 -->
<g id="node5" class="node">
<title>Node5</title>
<g id="a_node5"><a xlink:title=" ">
<polygon fill="none" stroke="#bfbfbf" points="232,-392.5 232,-411.5 296,-411.5 296,-392.5 232,-392.5"/>
<text text-anchor="middle" x="264" y="-399.5" font-family="Helvetica,sans-Serif" font-size="10.00">algorithm</text>
</a>
</g>
</g>
<!-- Node1&#45;&gt;Node5 -->
<g id="edge4" class="edge">
<title>Node1&#45;&gt;Node5</title>
<path fill="none" stroke="midnightblue" d="M597.85,-452.65C536.96,-445.81 417.39,-431.48 306.22,-412.09"/>
<polygon fill="midnightblue" stroke="midnightblue" points="306.64,-408.61 296.18,-410.32 305.42,-415.51 306.64,-408.61"/>
</g>
<!-- Node6 -->
<g id="node6" class="node">
<title>Node6</title>
<g id="a_node6"><a xlink:title=" ">
<polygon fill="none" stroke="#bfbfbf" points="314.5,-392.5 314.5,-411.5 369.5,-411.5 369.5,-392.5 314.5,-392.5"/>
<text text-anchor="middle" x="342" y="-399.5" font-family="Helvetica,sans-Serif" font-size="10.00">fstream</text>
</a>
</g>
</g>
<!-- Node1&#45;&gt;Node6 -->
<g id="edge5" class="edge">
<title>Node1&#45;&gt;Node6</title>
<path fill="none" stroke="midnightblue" d="M597.91,-450.88C548.82,-443.21 462.93,-429.17 379.71,-412.03"/>
<polygon fill="midnightblue" stroke="midnightblue" points="380.34,-408.59 369.84,-409.98 378.91,-415.44 380.34,-408.59"/>
</g>
<!-- Node7 -->
<g id="node7" class="node">
<title>Node7</title>
<g id="a_node7"><a xlink:title=" ">
<polygon fill="none" stroke="#bfbfbf" points="889,-336.5 889,-355.5 949,-355.5 949,-336.5 889,-336.5"/>
<text text-anchor="middle" x="919" y="-343.5" font-family="Helvetica,sans-Serif" font-size="10.00">iostream</text>
</a>
</g>
</g>
<!-- Node1&#45;&gt;Node7 -->
<g id="edge6" class="edge">
<title>Node1&#45;&gt;Node7</title>
<path fill="none" stroke="midnightblue" d="M678.24,-454.79C722.36,-450.95 794.16,-440.5 849,-412 871.88,-400.11 892.79,-378.69 905.68,-363.69"/>
<polygon fill="midnightblue" stroke="midnightblue" points="908.6,-365.66 912.3,-355.73 903.22,-361.18 908.6,-365.66"/>
</g>
<!-- Node8 -->
<g id="node8" class="node">
<title>Node8</title>
<g id="a_node8"><a xlink:title=" ">
<polygon fill="none" stroke="#bfbfbf" points="526,-392.5 526,-411.5 582,-411.5 582,-392.5 526,-392.5"/>
<text text-anchor="middle" x="554" y="-399.5" font-family="Helvetica,sans-Serif" font-size="10.00">sstream</text>
</a>
</g>
</g>
<!-- Node1&#45;&gt;Node8 -->
<g id="edge7" class="edge">
<title>Node1&#45;&gt;Node8</title>
<path fill="none" stroke="midnightblue" d="M624.5,-448.32C611.4,-439.9 591.29,-426.97 575.89,-417.07"/>
<polygon fill="midnightblue" stroke="midnightblue" points="577.77,-414.12 567.46,-411.65 573.98,-420.01 577.77,-414.12"/>
</g>
<!-- Node9 -->
<g id="node9" class="node">
<title>Node9</title>
<g id="a_node9"><a xlink:title=" ">
<polygon fill="none" stroke="#bfbfbf" points="889,-224.5 889,-243.5 927,-243.5 927,-224.5 889,-224.5"/>
<text text-anchor="middle" x="908" y="-231.5" font-family="Helvetica,sans-Serif" font-size="10.00">map</text>
</a>
</g>
</g>
<!-- Node1&#45;&gt;Node9 -->
<g id="edge8" class="edge">
<title>Node1&#45;&gt;Node9</title>
<path fill="none" stroke="midnightblue" d="M678.17,-454.45C726.68,-450.24 809.96,-439.38 876,-412 916.77,-395.1 937.39,-395.03 958,-356 962.15,-348.14 960.23,-344.6 958,-336 953.41,-318.28 946.29,-316.32 938,-300 930.01,-284.26 921.65,-265.98 915.79,-252.82"/>
<polygon fill="midnightblue" stroke="midnightblue" points="918.92,-251.25 911.68,-243.51 912.52,-254.07 918.92,-251.25"/>
</g>
<!-- Node10 -->
<g id="node10" class="node">
<title>Node10</title>
<g id="a_node10"><a xlink:title=" ">
<polygon fill="none" stroke="#bfbfbf" points="638,-392.5 638,-411.5 694,-411.5 694,-392.5 638,-392.5"/>
<text text-anchor="middle" x="666" y="-399.5" font-family="Helvetica,sans-Serif" font-size="10.00">iomanip</text>
</a>
</g>
</g>
<!-- Node1&#45;&gt;Node10 -->
<g id="edge9" class="edge">
<title>Node1&#45;&gt;Node10</title>
<path fill="none" stroke="midnightblue" d="M642.62,-448.08C646.46,-440.69 652.02,-429.95 656.76,-420.81"/>
<polygon fill="midnightblue" stroke="midnightblue" points="659.97,-422.24 661.46,-411.75 653.75,-419.02 659.97,-422.24"/>
</g>
<!-- Node11 -->
<g id="node11" class="node">
<title>Node11</title>
<g id="a_node11"><a xlink:title=" ">
<polygon fill="none" stroke="#bfbfbf" points="712,-392.5 712,-411.5 768,-411.5 768,-392.5 712,-392.5"/>
<text text-anchor="middle" x="740" y="-399.5" font-family="Helvetica,sans-Serif" font-size="10.00">unistd.h</text>
</a>
</g>
</g>
<!-- Node1&#45;&gt;Node11 -->
<g id="edge10" class="edge">
<title>Node1&#45;&gt;Node11</title>
<path fill="none" stroke="midnightblue" d="M654.39,-448.32C670.67,-439.7 695.87,-426.36 714.72,-416.39"/>
<polygon fill="midnightblue" stroke="midnightblue" points="716.45,-419.43 723.65,-411.65 713.18,-413.24 716.45,-419.43"/>
</g>
<!-- Node12 -->
<g id="node12" class="node">
<title>Node12</title>
<g id="a_node12"><a xlink:title=" ">
<polygon fill="none" stroke="#bfbfbf" points="905,-0.5 905,-19.5 949,-19.5 949,-0.5 905,-0.5"/>
<text text-anchor="middle" x="927" y="-7.5" font-family="Helvetica,sans-Serif" font-size="10.00">string</text>
</a>
</g>
</g>
<!-- Node1&#45;&gt;Node12 -->
<g id="edge11" class="edge">
<title>Node1&#45;&gt;Node12</title>
<path fill="none" stroke="midnightblue" d="M678.3,-455.54C765.65,-451.87 969.58,-440.44 1032,-412 1070.93,-394.26 1103,-389.78 1103,-347 1103,-347 1103,-347 1103,-121 1103,-53.92 1009.92,-26.23 959.14,-16.11"/>
<polygon fill="midnightblue" stroke="midnightblue" points="959.76,-12.67 949.29,-14.27 958.47,-19.55 959.76,-12.67"/>
</g>
<!-- Node13 -->
<g id="node13" class="node">
<title>Node13</title>
<g id="a_node13"><a xlink:title=" ">
<polygon fill="none" stroke="#bfbfbf" points="83.5,-0.5 83.5,-19.5 148.5,-19.5 148.5,-0.5 83.5,-0.5"/>
<text text-anchor="middle" x="116" y="-7.5" font-family="Helvetica,sans-Serif" font-size="10.00">exception</text>
</a>
</g>
</g>
<!-- Node1&#45;&gt;Node13 -->
<g id="edge12" class="edge">
<title>Node1&#45;&gt;Node13</title>
<path fill="none" stroke="midnightblue" d="M597.96,-457.41C484,-458.04 160.04,-455.8 65,-412 27.9,-394.9 0,-387.86 0,-347 0,-347 0,-347 0,-121 0,-73.81 51.16,-40.79 85.53,-23.92"/>
<polygon fill="midnightblue" stroke="midnightblue" points="87.17,-27.02 94.72,-19.6 84.19,-20.69 87.17,-27.02"/>
</g>
<!-- Node14 -->
<g id="node14" class="node">
<title>Node14</title>
<g id="a_node14"><a xlink:href="PolarfireTarget_8h_source.html" target="_top" xlink:title=" ">
<polygon fill="none" stroke="black" points="388,-392.5 388,-411.5 508,-411.5 508,-392.5 388,-392.5"/>
<text text-anchor="middle" x="448" y="-399.5" font-family="Helvetica,sans-Serif" font-size="10.00">pflib/PolarfireTarget.h</text>
</a>
</g>
</g>
<!-- Node1&#45;&gt;Node14 -->
<g id="edge13" class="edge">
<title>Node1&#45;&gt;Node14</title>
<path fill="none" stroke="midnightblue" d="M607.89,-448.44C575.37,-439.2 523.42,-424.44 487.61,-414.26"/>
<polygon fill="midnightblue" stroke="midnightblue" points="488.54,-410.88 477.97,-411.52 486.63,-417.62 488.54,-410.88"/>
</g>
<!-- Node32 -->
<g id="node32" class="node">
<title>Node32</title>
<g id="a_node32"><a xlink:href="Compile_8h.html" target="_top" xlink:title="Definition of compiling and decompiling functions between page numbers, register numbers,...">
<polygon fill="none" stroke="black" points="947,-280.5 947,-299.5 1037,-299.5 1037,-280.5 947,-280.5"/>
<text text-anchor="middle" x="992" y="-287.5" font-family="Helvetica,sans-Serif" font-size="10.00">pflib/Compile.h</text>
</a>
</g>
</g>
<!-- Node1&#45;&gt;Node32 -->
<g id="edge51" class="edge">
<title>Node1&#45;&gt;Node32</title>
<path fill="none" stroke="midnightblue" d="M678.01,-454.82C766.06,-449.61 970.46,-435.13 991,-412 1016.02,-383.82 1006.47,-335.73 998.51,-309.46"/>
<polygon fill="midnightblue" stroke="midnightblue" points="1001.74,-308.07 995.3,-299.66 995.09,-310.25 1001.74,-308.07"/>
</g>
<!-- Node33 -->
<g id="node33" class="node">
<title>Node33</title>
<g id="a_node33"><a xlink:href="Menu_8h_source.html" target="_top" xlink:title=" ">
<polygon fill="none" stroke="black" points="786.5,-392.5 786.5,-411.5 839.5,-411.5 839.5,-392.5 786.5,-392.5"/>
<text text-anchor="middle" x="813" y="-399.5" font-family="Helvetica,sans-Serif" font-size="10.00">Menu.h</text>
</a>
</g>
</g>
<!-- Node1&#45;&gt;Node33 -->
<g id="edge55" class="edge">
<title>Node1&#45;&gt;Node33</title>
<path fill="none" stroke="midnightblue" d="M665.73,-448.44C695.69,-439.2 743.55,-424.43 776.54,-414.25"/>
<polygon fill="midnightblue" stroke="midnightblue" points="777.74,-417.54 786.26,-411.25 775.67,-410.85 777.74,-417.54"/>
</g>
<!-- Node36 -->
<g id="node36" class="node">
<title>Node36</title>
<g id="a_node36"><a xlink:href="Rcfile_8h_source.html" target="_top" xlink:title=" ">
<polygon fill="none" stroke="black" points="1021.5,-224.5 1021.5,-243.5 1074.5,-243.5 1074.5,-224.5 1021.5,-224.5"/>
<text text-anchor="middle" x="1048" y="-231.5" font-family="Helvetica,sans-Serif" font-size="10.00">Rcfile.h</text>
</a>
</g>
</g>
<!-- Node1&#45;&gt;Node36 -->
<g id="edge64" class="edge">
<title>Node1&#45;&gt;Node36</title>
<path fill="none" stroke="midnightblue" d="M678.01,-457.43C763.48,-457.53 960.14,-453.16 1010,-412 1057.23,-373.02 1054.58,-290.84 1050.62,-253.8"/>
<polygon fill="midnightblue" stroke="midnightblue" points="1054.09,-253.36 1049.4,-243.86 1047.14,-254.21 1054.09,-253.36"/>
</g>
<!-- Node15 -->
<g id="node15" class="node">
<title>Node15</title>
<g id="a_node15"><a xlink:title=" ">
<polygon fill="none" stroke="#bfbfbf" points="28.5,-336.5 28.5,-355.5 85.5,-355.5 85.5,-336.5 28.5,-336.5"/>
<text text-anchor="middle" x="57" y="-343.5" font-family="Helvetica,sans-Serif" font-size="10.00">ostream</text>
</a>
</g>
</g>
<!-- Node14&#45;&gt;Node15 -->
<g id="edge14" class="edge">
<title>Node14&#45;&gt;Node15</title>
<path fill="none" stroke="midnightblue" d="M387.67,-393.24C384.4,-392.82 381.16,-392.4 378,-392 255.43,-376.32 221.46,-378.52 95.59,-355.93"/>
<polygon fill="midnightblue" stroke="midnightblue" points="96.03,-352.45 85.57,-354.11 94.78,-359.34 96.03,-352.45"/>
</g>
<!-- Node16 -->
<g id="node16" class="node">
<title>Node16</title>
<g id="a_node16"><a xlink:title=" ">
<polygon fill="none" stroke="#bfbfbf" points="104,-336.5 104,-355.5 162,-355.5 162,-336.5 104,-336.5"/>
<text text-anchor="middle" x="133" y="-343.5" font-family="Helvetica,sans-Serif" font-size="10.00">memory</text>
</a>
</g>
</g>
<!-- Node14&#45;&gt;Node16 -->
<g id="edge15" class="edge">
<title>Node14&#45;&gt;Node16</title>
<path fill="none" stroke="midnightblue" d="M392.14,-392.47C337.07,-383.89 250.57,-369.97 176,-356 174.73,-355.76 173.45,-355.52 172.15,-355.27"/>
<polygon fill="midnightblue" stroke="midnightblue" points="172.6,-351.79 162.11,-353.27 171.23,-358.65 172.6,-351.79"/>
</g>
<!-- Node17 -->
<g id="node17" class="node">
<title>Node17</title>
<g id="a_node17"><a xlink:title=" ">
<polygon fill="none" stroke="#bfbfbf" points="501.5,-336.5 501.5,-355.5 566.5,-355.5 566.5,-336.5 501.5,-336.5"/>
<text text-anchor="middle" x="534" y="-343.5" font-family="Helvetica,sans-Serif" font-size="10.00">functional</text>
</a>
</g>
</g>
<!-- Node14&#45;&gt;Node17 -->
<g id="edge16" class="edge">
<title>Node14&#45;&gt;Node17</title>
<path fill="none" stroke="midnightblue" d="M461.82,-392.32C475.23,-383.9 495.82,-370.97 511.59,-361.07"/>
<polygon fill="midnightblue" stroke="midnightblue" points="513.61,-363.94 520.22,-355.65 509.89,-358.01 513.61,-363.94"/>
</g>
<!-- Node18 -->
<g id="node18" class="node">
<title>Node18</title>
<g id="a_node18"><a xlink:href="WishboneInterface_8h_source.html" target="_top" xlink:title=" ">
<polygon fill="none" stroke="black" points="160.5,-112.5 160.5,-131.5 301.5,-131.5 301.5,-112.5 160.5,-112.5"/>
<text text-anchor="middle" x="231" y="-119.5" font-family="Helvetica,sans-Serif" font-size="10.00">pflib/WishboneInterface.h</text>
</a>
</g>
</g>
<!-- Node14&#45;&gt;Node18 -->
<g id="edge17" class="edge">
<title>Node14&#45;&gt;Node18</title>
<path fill="none" stroke="midnightblue" d="M413.51,-392.49C325.84,-370.07 98.45,-306.81 57,-244 20.64,-188.91 120.69,-151.61 183.82,-134.22"/>
<polygon fill="midnightblue" stroke="midnightblue" points="184.86,-137.57 193.61,-131.6 183.05,-130.8 184.86,-137.57"/>
</g>
<!-- Node21 -->
<g id="node21" class="node">
<title>Node21</title>
<g id="a_node21"><a xlink:href="Backend_8h_source.html" target="_top" xlink:title=" ">
<polygon fill="none" stroke="black" points="66.5,-224.5 66.5,-243.5 157.5,-243.5 157.5,-224.5 66.5,-224.5"/>
<text text-anchor="middle" x="112" y="-231.5" font-family="Helvetica,sans-Serif" font-size="10.00">pflib/Backend.h</text>
</a>
</g>
</g>
<!-- Node14&#45;&gt;Node21 -->
<g id="edge22" class="edge">
<title>Node14&#45;&gt;Node21</title>
<path fill="none" stroke="midnightblue" d="M430.41,-392.31C375.18,-365.02 205,-280.95 138.77,-248.22"/>
<polygon fill="midnightblue" stroke="midnightblue" points="139.93,-244.9 129.42,-243.61 136.83,-251.17 139.93,-244.9"/>
</g>
<!-- Node23 -->
<g id="node23" class="node">
<title>Node23</title>
<g id="a_node23"><a xlink:href="Hcal_8h_source.html" target="_top" xlink:title=" ">
<polygon fill="none" stroke="black" points="412.5,-336.5 412.5,-355.5 483.5,-355.5 483.5,-336.5 412.5,-336.5"/>
<text text-anchor="middle" x="448" y="-343.5" font-family="Helvetica,sans-Serif" font-size="10.00">pflib/Hcal.h</text>
</a>
</g>
</g>
<!-- Node14&#45;&gt;Node23 -->
<g id="edge26" class="edge">
<title>Node14&#45;&gt;Node23</title>
<path fill="none" stroke="midnightblue" d="M448,-392.08C448,-385.01 448,-374.86 448,-365.99"/>
<polygon fill="midnightblue" stroke="midnightblue" points="451.5,-365.75 448,-355.75 444.5,-365.75 451.5,-365.75"/>
</g>
<!-- Node19 -->
<g id="node19" class="node">
<title>Node19</title>
<g id="a_node19"><a xlink:href="Exception_8h_source.html" target="_top" xlink:title=" ">
<polygon fill="none" stroke="black" points="182,-56.5 182,-75.5 280,-75.5 280,-56.5 182,-56.5"/>
<text text-anchor="middle" x="231" y="-63.5" font-family="Helvetica,sans-Serif" font-size="10.00">pflib/Exception.h</text>
</a>
</g>
</g>
<!-- Node18&#45;&gt;Node19 -->
<g id="edge18" class="edge">
<title>Node18&#45;&gt;Node19</title>
<path fill="none" stroke="midnightblue" d="M231,-112.08C231,-105.01 231,-94.86 231,-85.99"/>
<polygon fill="midnightblue" stroke="midnightblue" points="234.5,-85.75 231,-75.75 227.5,-85.75 234.5,-85.75"/>
</g>
<!-- Node20 -->
<g id="node20" class="node">
<title>Node20</title>
<g id="a_node20"><a xlink:title=" ">
<polygon fill="none" stroke="#bfbfbf" points="89.5,-56.5 89.5,-75.5 142.5,-75.5 142.5,-56.5 89.5,-56.5"/>
<text text-anchor="middle" x="116" y="-63.5" font-family="Helvetica,sans-Serif" font-size="10.00">stdint.h</text>
</a>
</g>
</g>
<!-- Node18&#45;&gt;Node20 -->
<g id="edge21" class="edge">
<title>Node18&#45;&gt;Node20</title>
<path fill="none" stroke="midnightblue" d="M212.78,-112.44C194.1,-103.68 164.84,-89.94 143.38,-79.86"/>
<polygon fill="midnightblue" stroke="midnightblue" points="144.68,-76.6 134.14,-75.52 141.7,-82.93 144.68,-76.6"/>
</g>
<!-- Node19&#45;&gt;Node12 -->
<g id="edge20" class="edge">
<title>Node19&#45;&gt;Node12</title>
<path fill="none" stroke="midnightblue" d="M280.22,-61.18C414.17,-50.79 782.71,-22.19 894.46,-13.52"/>
<polygon fill="midnightblue" stroke="midnightblue" points="895.05,-16.99 904.75,-12.73 894.51,-10.01 895.05,-16.99"/>
</g>
<!-- Node19&#45;&gt;Node13 -->
<g id="edge19" class="edge">
<title>Node19&#45;&gt;Node13</title>
<path fill="none" stroke="midnightblue" d="M212.78,-56.44C194.1,-47.68 164.84,-33.94 143.38,-23.86"/>
<polygon fill="midnightblue" stroke="midnightblue" points="144.68,-20.6 134.14,-19.52 141.7,-26.93 144.68,-20.6"/>
</g>
<!-- Node21&#45;&gt;Node19 -->
<g id="edge23" class="edge">
<title>Node21&#45;&gt;Node19</title>
<path fill="none" stroke="midnightblue" d="M112.65,-224.37C114.66,-203 122.51,-146.87 151,-112 162.77,-97.59 180.45,-86.97 196.2,-79.67"/>
<polygon fill="midnightblue" stroke="midnightblue" points="197.9,-82.74 205.68,-75.55 195.11,-76.32 197.9,-82.74"/>
</g>
<!-- Node21&#45;&gt;Node20 -->
<g id="edge24" class="edge">
<title>Node21&#45;&gt;Node20</title>
<path fill="none" stroke="midnightblue" d="M112.22,-224.08C112.84,-197.95 114.69,-121.21 115.55,-85.58"/>
<polygon fill="midnightblue" stroke="midnightblue" points="119.05,-85.65 115.79,-75.57 112.05,-85.48 119.05,-85.65"/>
</g>
<!-- Node22 -->
<g id="node22" class="node">
<title>Node22</title>
<g id="a_node22"><a xlink:title=" ">
<polygon fill="none" stroke="#bfbfbf" points="586.5,-168.5 586.5,-187.5 633.5,-187.5 633.5,-168.5 586.5,-168.5"/>
<text text-anchor="middle" x="610" y="-175.5" font-family="Helvetica,sans-Serif" font-size="10.00">vector</text>
</a>
</g>
</g>
<!-- Node21&#45;&gt;Node22 -->
<g id="edge25" class="edge">
<title>Node21&#45;&gt;Node22</title>
<path fill="none" stroke="midnightblue" d="M157.63,-225.18C160.46,-224.76 163.27,-224.37 166,-224 318.61,-203.57 501.84,-187.74 576.19,-181.68"/>
<polygon fill="midnightblue" stroke="midnightblue" points="576.67,-185.15 586.35,-180.86 576.1,-178.18 576.67,-185.15"/>
</g>
<!-- Node24 -->
<g id="node24" class="node">
<title>Node24</title>
<g id="a_node24"><a xlink:href="ROC_8h_source.html" target="_top" xlink:title=" ">
<polygon fill="none" stroke="black" points="673.5,-280.5 673.5,-299.5 744.5,-299.5 744.5,-280.5 673.5,-280.5"/>
<text text-anchor="middle" x="709" y="-287.5" font-family="Helvetica,sans-Serif" font-size="10.00">pflib/ROC.h</text>
</a>
</g>
</g>
<!-- Node23&#45;&gt;Node24 -->
<g id="edge27" class="edge">
<title>Node23&#45;&gt;Node24</title>
<path fill="none" stroke="midnightblue" d="M483.74,-337.6C530.47,-327.94 612.36,-310.99 663.48,-300.42"/>
<polygon fill="midnightblue" stroke="midnightblue" points="664.19,-303.85 673.27,-298.39 662.77,-296.99 664.19,-303.85"/>
</g>
<!-- Node25 -->
<g id="node25" class="node">
<title>Node25</title>
<g id="a_node25"><a xlink:href="I2C_8h_source.html" target="_top" xlink:title=" ">
<polygon fill="none" stroke="black" points="577.5,-224.5 577.5,-243.5 642.5,-243.5 642.5,-224.5 577.5,-224.5"/>
<text text-anchor="middle" x="610" y="-231.5" font-family="Helvetica,sans-Serif" font-size="10.00">pflib/I2C.h</text>
</a>
</g>
</g>
<!-- Node23&#45;&gt;Node25 -->
<g id="edge35" class="edge">
<title>Node23&#45;&gt;Node25</title>
<path fill="none" stroke="midnightblue" d="M460.71,-336.37C488.51,-317.49 554.94,-272.38 589.03,-249.24"/>
<polygon fill="midnightblue" stroke="midnightblue" points="591.04,-252.1 597.35,-243.59 587.11,-246.31 591.04,-252.1"/>
</g>
<!-- Node27 -->
<g id="node27" class="node">
<title>Node27</title>
<g id="a_node27"><a xlink:href="Bias_8h_source.html" target="_top" xlink:title=" ">
<polygon fill="none" stroke="black" points="574.5,-280.5 574.5,-299.5 645.5,-299.5 645.5,-280.5 574.5,-280.5"/>
<text text-anchor="middle" x="610" y="-287.5" font-family="Helvetica,sans-Serif" font-size="10.00">pflib/Bias.h</text>
</a>
</g>
</g>
<!-- Node23&#45;&gt;Node27 -->
<g id="edge36" class="edge">
<title>Node23&#45;&gt;Node27</title>
<path fill="none" stroke="midnightblue" d="M473.67,-336.44C500.92,-327.36 544.18,-312.94 574.65,-302.78"/>
<polygon fill="midnightblue" stroke="midnightblue" points="576.07,-306 584.45,-299.52 573.86,-299.36 576.07,-306"/>
</g>
<!-- Node28 -->
<g id="node28" class="node">
<title>Node28</title>
<g id="a_node28"><a xlink:href="Elinks_8h_source.html" target="_top" xlink:title=" ">
<polygon fill="none" stroke="black" points="387.5,-224.5 387.5,-243.5 466.5,-243.5 466.5,-224.5 387.5,-224.5"/>
<text text-anchor="middle" x="427" y="-231.5" font-family="Helvetica,sans-Serif" font-size="10.00">pflib/Elinks.h</text>
</a>
</g>
</g>
<!-- Node23&#45;&gt;Node28 -->
<g id="edge39" class="edge">
<title>Node23&#45;&gt;Node28</title>
<path fill="none" stroke="midnightblue" d="M446.35,-336.37C442.96,-318.62 435.15,-277.67 430.55,-253.6"/>
<polygon fill="midnightblue" stroke="midnightblue" points="433.95,-252.76 428.64,-243.59 427.08,-254.07 433.95,-252.76"/>
</g>
<!-- Node29 -->
<g id="node29" class="node">
<title>Node29</title>
<g id="a_node29"><a xlink:href="GPIO_8h_source.html" target="_top" xlink:title=" ">
<polygon fill="none" stroke="black" points="485,-224.5 485,-243.5 559,-243.5 559,-224.5 485,-224.5"/>
<text text-anchor="middle" x="522" y="-231.5" font-family="Helvetica,sans-Serif" font-size="10.00">pflib/GPIO.h</text>
</a>
</g>
</g>
<!-- Node23&#45;&gt;Node29 -->
<g id="edge42" class="edge">
<title>Node23&#45;&gt;Node29</title>
<path fill="none" stroke="midnightblue" d="M453.81,-336.37C466.02,-318.22 494.55,-275.8 510.57,-251.99"/>
<polygon fill="midnightblue" stroke="midnightblue" points="513.54,-253.84 516.22,-243.59 507.73,-249.94 513.54,-253.84"/>
</g>
<!-- Node30 -->
<g id="node30" class="node">
<title>Node30</title>
<g id="a_node30"><a xlink:href="FastControl_8h_source.html" target="_top" xlink:title=" ">
<polygon fill="none" stroke="black" points="265,-224.5 265,-243.5 369,-243.5 369,-224.5 265,-224.5"/>
<text text-anchor="middle" x="317" y="-231.5" font-family="Helvetica,sans-Serif" font-size="10.00">pflib/FastControl.h</text>
</a>
</g>
</g>
<!-- Node23&#45;&gt;Node30 -->
<g id="edge45" class="edge">
<title>Node23&#45;&gt;Node30</title>
<path fill="none" stroke="midnightblue" d="M437.72,-336.37C415.53,-317.73 362.89,-273.53 335.02,-250.13"/>
<polygon fill="midnightblue" stroke="midnightblue" points="337.14,-247.34 327.23,-243.59 332.64,-252.7 337.14,-247.34"/>
</g>
<!-- Node31 -->
<g id="node31" class="node">
<title>Node31</title>
<g id="a_node31"><a xlink:href="DAQ_8h_source.html" target="_top" xlink:title=" ">
<polygon fill="none" stroke="black" points="175.5,-224.5 175.5,-243.5 246.5,-243.5 246.5,-224.5 175.5,-224.5"/>
<text text-anchor="middle" x="211" y="-231.5" font-family="Helvetica,sans-Serif" font-size="10.00">pflib/DAQ.h</text>
</a>
</g>
</g>
<!-- Node23&#45;&gt;Node31 -->
<g id="edge48" class="edge">
<title>Node23&#45;&gt;Node31</title>
<path fill="none" stroke="midnightblue" d="M429.4,-336.37C387.95,-317.13 287.8,-270.65 238.86,-247.93"/>
<polygon fill="midnightblue" stroke="midnightblue" points="240.05,-244.63 229.51,-243.59 237.11,-250.98 240.05,-244.63"/>
</g>
<!-- Node24&#45;&gt;Node9 -->
<g id="edge33" class="edge">
<title>Node24&#45;&gt;Node9</title>
<path fill="none" stroke="midnightblue" d="M740.53,-280.44C778.54,-270.13 841.88,-252.94 878.81,-242.92"/>
<polygon fill="midnightblue" stroke="midnightblue" points="880.19,-246.17 888.92,-240.18 878.35,-239.42 880.19,-246.17"/>
</g>
<!-- Node24&#45;&gt;Node12 -->
<g id="edge34" class="edge">
<title>Node24&#45;&gt;Node12</title>
<path fill="none" stroke="midnightblue" d="M714.28,-280.23C724.73,-262.04 747,-218.6 747,-179 747,-179 747,-179 747,-121 747,-52.47 843.16,-25.36 894.91,-15.72"/>
<polygon fill="midnightblue" stroke="midnightblue" points="895.68,-19.14 904.93,-13.97 894.48,-12.25 895.68,-19.14"/>
</g>
<!-- Node24&#45;&gt;Node22 -->
<g id="edge32" class="edge">
<title>Node24&#45;&gt;Node22</title>
<path fill="none" stroke="midnightblue" d="M704.46,-280.41C697.32,-267.37 682.59,-242.2 666,-224 655.66,-212.65 642.31,-201.81 631.25,-193.62"/>
<polygon fill="midnightblue" stroke="midnightblue" points="633.12,-190.65 622.96,-187.65 629.03,-196.34 633.12,-190.65"/>
</g>
<!-- Node24&#45;&gt;Node25 -->
<g id="edge28" class="edge">
<title>Node24&#45;&gt;Node25</title>
<path fill="none" stroke="midnightblue" d="M693.09,-280.32C677.36,-271.74 653.06,-258.49 634.79,-248.52"/>
<polygon fill="midnightblue" stroke="midnightblue" points="636.32,-245.37 625.87,-243.65 632.97,-251.52 636.32,-245.37"/>
</g>
<!-- Node25&#45;&gt;Node22 -->
<g id="edge31" class="edge">
<title>Node25&#45;&gt;Node22</title>
<path fill="none" stroke="midnightblue" d="M610,-224.08C610,-217.01 610,-206.86 610,-197.99"/>
<polygon fill="midnightblue" stroke="midnightblue" points="613.5,-197.75 610,-187.75 606.5,-197.75 613.5,-197.75"/>
</g>
<!-- Node26 -->
<g id="node26" class="node">
<title>Node26</title>
<g id="a_node26"><a xlink:href="WishboneTarget_8h_source.html" target="_top" xlink:title=" ">
<polygon fill="none" stroke="black" points="363,-168.5 363,-187.5 491,-187.5 491,-168.5 363,-168.5"/>
<text text-anchor="middle" x="427" y="-175.5" font-family="Helvetica,sans-Serif" font-size="10.00">pflib/WishboneTarget.h</text>
</a>
</g>
</g>
<!-- Node25&#45;&gt;Node26 -->
<g id="edge29" class="edge">
<title>Node25&#45;&gt;Node26</title>
<path fill="none" stroke="midnightblue" d="M581,-224.44C549.82,-215.24 500.07,-200.56 465.59,-190.39"/>
<polygon fill="midnightblue" stroke="midnightblue" points="466.44,-186.99 455.86,-187.52 464.46,-193.7 466.44,-186.99"/>
</g>
<!-- Node26&#45;&gt;Node18 -->
<g id="edge30" class="edge">
<title>Node26&#45;&gt;Node18</title>
<path fill="none" stroke="midnightblue" d="M395.94,-168.44C362.4,-159.2 308.8,-144.44 271.86,-134.26"/>
<polygon fill="midnightblue" stroke="midnightblue" points="272.48,-130.8 261.91,-131.52 270.62,-137.55 272.48,-130.8"/>
</g>
<!-- Node27&#45;&gt;Node22 -->
<g id="edge38" class="edge">
<title>Node27&#45;&gt;Node22</title>
<path fill="none" stroke="midnightblue" d="M621.54,-280.49C631.48,-272.38 645.12,-259.18 651,-244 658.09,-225.69 643.49,-206.96 629.79,-194.34"/>
<polygon fill="midnightblue" stroke="midnightblue" points="631.86,-191.51 621.99,-187.66 627.31,-196.82 631.86,-191.51"/>
</g>
<!-- Node27&#45;&gt;Node25 -->
<g id="edge37" class="edge">
<title>Node27&#45;&gt;Node25</title>
<path fill="none" stroke="midnightblue" d="M610,-280.08C610,-273.01 610,-262.86 610,-253.99"/>
<polygon fill="midnightblue" stroke="midnightblue" points="613.5,-253.75 610,-243.75 606.5,-253.75 613.5,-253.75"/>
</g>
<!-- Node28&#45;&gt;Node22 -->
<g id="edge41" class="edge">
<title>Node28&#45;&gt;Node22</title>
<path fill="none" stroke="midnightblue" d="M456,-224.44C488.84,-214.75 542.25,-198.99 576.75,-188.81"/>
<polygon fill="midnightblue" stroke="midnightblue" points="577.78,-192.16 586.38,-185.97 575.79,-185.44 577.78,-192.16"/>
</g>
<!-- Node28&#45;&gt;Node26 -->
<g id="edge40" class="edge">
<title>Node28&#45;&gt;Node26</title>
<path fill="none" stroke="midnightblue" d="M427,-224.08C427,-217.01 427,-206.86 427,-197.99"/>
<polygon fill="midnightblue" stroke="midnightblue" points="430.5,-197.75 427,-187.75 423.5,-197.75 430.5,-197.75"/>
</g>
<!-- Node29&#45;&gt;Node22 -->
<g id="edge44" class="edge">
<title>Node29&#45;&gt;Node22</title>
<path fill="none" stroke="midnightblue" d="M536.14,-224.32C549.87,-215.9 570.94,-202.97 587.06,-193.07"/>
<polygon fill="midnightblue" stroke="midnightblue" points="589.2,-195.87 595.9,-187.65 585.54,-189.9 589.2,-195.87"/>
</g>
<!-- Node29&#45;&gt;Node26 -->
<g id="edge43" class="edge">
<title>Node29&#45;&gt;Node26</title>
<path fill="none" stroke="midnightblue" d="M506.74,-224.32C491.78,-215.82 468.75,-202.73 451.27,-192.8"/>
<polygon fill="midnightblue" stroke="midnightblue" points="452.65,-189.55 442.23,-187.65 449.19,-195.64 452.65,-189.55"/>
</g>
<!-- Node30&#45;&gt;Node22 -->
<g id="edge47" class="edge">
<title>Node30&#45;&gt;Node22</title>
<path fill="none" stroke="midnightblue" d="M363.43,-224.44C422.6,-213.54 523.51,-194.94 576.01,-185.26"/>
<polygon fill="midnightblue" stroke="midnightblue" points="576.94,-188.65 586.14,-183.4 575.67,-181.77 576.94,-188.65"/>
</g>
<!-- Node30&#45;&gt;Node26 -->
<g id="edge46" class="edge">
<title>Node30&#45;&gt;Node26</title>
<path fill="none" stroke="midnightblue" d="M334.67,-224.32C352.39,-215.62 379.9,-202.12 400.29,-192.11"/>
<polygon fill="midnightblue" stroke="midnightblue" points="401.94,-195.2 409.37,-187.65 398.85,-188.92 401.94,-195.2"/>
</g>
<!-- Node31&#45;&gt;Node18 -->
<g id="edge50" class="edge">
<title>Node31&#45;&gt;Node18</title>
<path fill="none" stroke="midnightblue" d="M212.57,-224.37C215.8,-206.62 223.24,-165.67 227.62,-141.6"/>
<polygon fill="midnightblue" stroke="midnightblue" points="231.09,-142.06 229.44,-131.59 224.21,-140.8 231.09,-142.06"/>
</g>
<!-- Node31&#45;&gt;Node22 -->
<g id="edge49" class="edge">
<title>Node31&#45;&gt;Node22</title>
<path fill="none" stroke="midnightblue" d="M246.82,-225.6C249.92,-225.03 253.01,-224.49 256,-224 373.04,-204.88 512.98,-189.19 576.13,-182.5"/>
<polygon fill="midnightblue" stroke="midnightblue" points="576.72,-185.95 586.3,-181.42 575.99,-178.99 576.72,-185.95"/>
</g>
<!-- Node32&#45;&gt;Node9 -->
<g id="edge52" class="edge">
<title>Node32&#45;&gt;Node9</title>
<path fill="none" stroke="midnightblue" d="M978.5,-280.32C965.4,-271.9 945.29,-258.97 929.89,-249.07"/>
<polygon fill="midnightblue" stroke="midnightblue" points="931.77,-246.12 921.46,-243.65 927.98,-252.01 931.77,-246.12"/>
</g>
<!-- Node32&#45;&gt;Node12 -->
<g id="edge53" class="edge">
<title>Node32&#45;&gt;Node12</title>
<path fill="none" stroke="midnightblue" d="M992.13,-280.44C992.4,-261.94 993,-216.81 993,-179 993,-179 993,-179 993,-121 993,-82.86 963.46,-46.52 943.91,-26.64"/>
<polygon fill="midnightblue" stroke="midnightblue" points="946.33,-24.12 936.74,-19.63 941.44,-29.12 946.33,-24.12"/>
</g>
<!-- Node32&#45;&gt;Node22 -->
<g id="edge54" class="edge">
<title>Node32&#45;&gt;Node22</title>
<path fill="none" stroke="midnightblue" d="M987.19,-280.05C978.87,-265.56 960.33,-237.24 936,-224 886.02,-196.8 716.43,-184.68 643.64,-180.65"/>
<polygon fill="midnightblue" stroke="midnightblue" points="643.8,-177.15 633.63,-180.11 643.43,-184.14 643.8,-177.15"/>
</g>
<!-- Node33&#45;&gt;Node2 -->
<g id="edge56" class="edge">
<title>Node33&#45;&gt;Node2</title>
<path fill="none" stroke="midnightblue" d="M786.46,-393.94C750.28,-384.31 685.37,-367.05 645.17,-356.36"/>
<polygon fill="midnightblue" stroke="midnightblue" points="645.83,-352.91 635.27,-353.72 644.03,-359.67 645.83,-352.91"/>
</g>
<!-- Node33&#45;&gt;Node7 -->
<g id="edge62" class="edge">
<title>Node33&#45;&gt;Node7</title>
<path fill="none" stroke="midnightblue" d="M830.03,-392.32C847.03,-383.66 873.38,-370.24 892.99,-360.25"/>
<polygon fill="midnightblue" stroke="midnightblue" points="894.69,-363.31 902.01,-355.65 891.51,-357.08 894.69,-363.31"/>
</g>
<!-- Node33&#45;&gt;Node12 -->
<g id="edge59" class="edge">
<title>Node33&#45;&gt;Node12</title>
<path fill="none" stroke="midnightblue" d="M819.67,-392.44C832.86,-374.62 861,-331.84 861,-291 861,-291 861,-291 861,-121 861,-82.86 890.54,-46.52 910.09,-26.64"/>
<polygon fill="midnightblue" stroke="midnightblue" points="912.56,-29.12 917.26,-19.63 907.67,-24.12 912.56,-29.12"/>
</g>
<!-- Node33&#45;&gt;Node17 -->
<g id="edge61" class="edge">
<title>Node33&#45;&gt;Node17</title>
<path fill="none" stroke="midnightblue" d="M786.31,-394.11C783.18,-393.37 780.02,-392.65 777,-392 691.29,-373.63 666.71,-373.5 576.38,-356.01"/>
<polygon fill="midnightblue" stroke="midnightblue" points="577.02,-352.57 566.54,-354.09 575.68,-359.44 577.02,-352.57"/>
</g>
<!-- Node33&#45;&gt;Node19 -->
<g id="edge63" class="edge">
<title>Node33&#45;&gt;Node19</title>
<path fill="none" stroke="midnightblue" d="M788.43,-392.37C763.87,-383.18 728.67,-368.29 721,-356 716.29,-348.46 717.02,-343.95 721,-336 732.93,-312.15 757.07,-323.85 769,-300 772.98,-292.05 771.66,-288.48 769,-280 746.46,-208.2 711.2,-197.57 642,-168 522.45,-116.91 371.83,-88.2 290.19,-75.33"/>
<polygon fill="midnightblue" stroke="midnightblue" points="290.52,-71.84 280.1,-73.77 289.45,-78.76 290.52,-71.84"/>
</g>
<!-- Node33&#45;&gt;Node22 -->
<g id="edge60" class="edge">
<title>Node33&#45;&gt;Node22</title>
<path fill="none" stroke="midnightblue" d="M786.4,-393.28C751.22,-382.8 692.94,-364.43 687,-356 681.88,-348.73 682.44,-343.63 687,-336 704.35,-306.99 736.65,-329.01 754,-300 758.56,-292.37 757.73,-288.07 754,-280 732.72,-234.03 678.54,-205.22 643.05,-190.64"/>
<polygon fill="midnightblue" stroke="midnightblue" points="644.16,-187.32 633.57,-186.9 641.59,-193.83 644.16,-187.32"/>
</g>
<!-- Node34 -->
<g id="node34" class="node">
<title>Node34</title>
<g id="a_node34"><a xlink:title=" ">
<polygon fill="none" stroke="#bfbfbf" points="729.5,-336.5 729.5,-355.5 782.5,-355.5 782.5,-336.5 729.5,-336.5"/>
<text text-anchor="middle" x="756" y="-343.5" font-family="Helvetica,sans-Serif" font-size="10.00">string.h</text>
</a>
</g>
</g>
<!-- Node33&#45;&gt;Node34 -->
<g id="edge57" class="edge">
<title>Node33&#45;&gt;Node34</title>
<path fill="none" stroke="midnightblue" d="M803.84,-392.32C795.5,-384.42 782.97,-372.55 772.82,-362.94"/>
<polygon fill="midnightblue" stroke="midnightblue" points="774.99,-360.17 765.32,-355.83 770.18,-365.25 774.99,-360.17"/>
</g>
<!-- Node35 -->
<g id="node35" class="node">
<title>Node35</title>
<g id="a_node35"><a xlink:title=" ">
<polygon fill="none" stroke="#bfbfbf" points="801,-336.5 801,-355.5 833,-355.5 833,-336.5 801,-336.5"/>
<text text-anchor="middle" x="817" y="-343.5" font-family="Helvetica,sans-Serif" font-size="10.00">list</text>
</a>
</g>
</g>
<!-- Node33&#45;&gt;Node35 -->
<g id="edge58" class="edge">
<title>Node33&#45;&gt;Node35</title>
<path fill="none" stroke="midnightblue" d="M813.66,-392.08C814.18,-385.01 814.94,-374.86 815.59,-365.99"/>
<polygon fill="midnightblue" stroke="midnightblue" points="819.1,-365.98 816.35,-355.75 812.12,-365.47 819.1,-365.98"/>
</g>
<!-- Node36&#45;&gt;Node12 -->
<g id="edge65" class="edge">
<title>Node36&#45;&gt;Node12</title>
<path fill="none" stroke="midnightblue" d="M1048.33,-224.25C1048.92,-196.6 1047.29,-109.77 1007,-56 994.94,-39.9 975.32,-28.74 958.53,-21.56"/>
<polygon fill="midnightblue" stroke="midnightblue" points="959.64,-18.23 949.05,-17.78 957.05,-24.73 959.64,-18.23"/>
</g>
<!-- Node36&#45;&gt;Node22 -->
<g id="edge66" class="edge">
<title>Node36&#45;&gt;Node22</title>
<path fill="none" stroke="midnightblue" d="M1021.26,-229.7C945.2,-220.33 727.74,-193.52 643.71,-183.16"/>
<polygon fill="midnightblue" stroke="midnightblue" points="644.04,-179.67 633.68,-181.92 643.18,-186.62 644.04,-179.67"/>
</g>
</g>
</svg>
