<?xml version="1.0" encoding="UTF-8" standalone="no"?>
<!DOCTYPE svg PUBLIC "-//W3C//DTD SVG 1.1//EN"
 "http://www.w3.org/Graphics/SVG/1.1/DTD/svg11.dtd">
<!-- Generated by graphviz version 2.43.0 (0)
 -->
<!-- Title: tool/pftool.cc Pages: 1 -->
<svg width="1288pt" height="476pt"
 viewBox="0.00 0.00 1288.00 476.00" xmlns="http://www.w3.org/2000/svg" xmlns:xlink="http://www.w3.org/1999/xlink">
<g id="graph0" class="graph" transform="scale(1 1) rotate(0) translate(4 472)">
<title>tool/pftool.cc</title>
<!-- Node1 -->
<g id="node1" class="node">
<title>Node1</title>
<g id="a_node1"><a xlink:title="File defining the pftool menus and their commands.">
<polygon fill="#bfbfbf" stroke="black" points="730,-448.5 730,-467.5 810,-467.5 810,-448.5 730,-448.5"/>
<text text-anchor="middle" x="770" y="-455.5" font-family="Helvetica,sans-Serif" font-size="10.00">tool/pftool.cc</text>
</a>
</g>
</g>
<!-- Node2 -->
<g id="node2" class="node">
<title>Node2</title>
<g id="a_node2"><a xlink:title=" ">
<polygon fill="none" stroke="#bfbfbf" points="66,-336.5 66,-355.5 116,-355.5 116,-336.5 66,-336.5"/>
<text text-anchor="middle" x="91" y="-343.5" font-family="Helvetica,sans-Serif" font-size="10.00">stdio.h</text>
</a>
</g>
</g>
<!-- Node1&#45;&gt;Node2 -->
<g id="edge1" class="edge">
<title>Node1&#45;&gt;Node2</title>
<path fill="none" stroke="midnightblue" d="M729.99,-455.65C620.65,-451.64 318.63,-438.45 223,-412 181.96,-400.65 138.39,-376.52 113,-361.07"/>
<polygon fill="midnightblue" stroke="midnightblue" points="114.54,-357.9 104.2,-355.61 110.85,-363.85 114.54,-357.9"/>
</g>
<!-- Node3 -->
<g id="node3" class="node">
<title>Node3</title>
<g id="a_node3"><a xlink:title=" ">
<polygon fill="none" stroke="#bfbfbf" points="836.5,-392.5 836.5,-411.5 889.5,-411.5 889.5,-392.5 836.5,-392.5"/>
<text text-anchor="middle" x="863" y="-399.5" font-family="Helvetica,sans-Serif" font-size="10.00">stdlib.h</text>
</a>
</g>
</g>
<!-- Node1&#45;&gt;Node3 -->
<g id="edge2" class="edge">
<title>Node1&#45;&gt;Node3</title>
<path fill="none" stroke="midnightblue" d="M784.94,-448.32C799.59,-439.82 822.13,-426.73 839.24,-416.8"/>
<polygon fill="midnightblue" stroke="midnightblue" points="841.2,-419.7 848.1,-411.65 837.69,-413.65 841.2,-419.7"/>
</g>
<!-- Node4 -->
<g id="node4" class="node">
<title>Node4</title>
<g id="a_node4"><a xlink:title=" ">
<polygon fill="none" stroke="#bfbfbf" points="908,-392.5 908,-411.5 976,-411.5 976,-392.5 908,-392.5"/>
<text text-anchor="middle" x="942" y="-399.5" font-family="Helvetica,sans-Serif" font-size="10.00">sys/time.h</text>
</a>
</g>
</g>
<!-- Node1&#45;&gt;Node4 -->
<g id="edge3" class="edge">
<title>Node1&#45;&gt;Node4</title>
<path fill="none" stroke="midnightblue" d="M797.25,-448.44C826.44,-439.28 872.92,-424.69 905.31,-414.52"/>
<polygon fill="midnightblue" stroke="midnightblue" points="906.38,-417.85 914.87,-411.52 904.28,-411.17 906.38,-417.85"/>
</g>
<!-- Node5 -->
<g id="node5" class="node">
<title>Node5</title>
<g id="a_node5"><a xlink:title=" ">
<polygon fill="none" stroke="#bfbfbf" points="994,-392.5 994,-411.5 1058,-411.5 1058,-392.5 994,-392.5"/>
<text text-anchor="middle" x="1026" y="-399.5" font-family="Helvetica,sans-Serif" font-size="10.00">algorithm</text>
</a>
</g>
</g>
<!-- Node1&#45;&gt;Node5 -->
<g id="edge4" class="edge">
<title>Node1&#45;&gt;Node5</title>
<path fill="none" stroke="midnightblue" d="M810.05,-448.74C851.22,-440.22 917.46,-426.44 983.97,-412.21"/>
<polygon fill="midnightblue" stroke="midnightblue" points="984.73,-415.62 993.78,-410.1 983.27,-408.78 984.73,-415.62"/>
</g>
<!-- Node6 -->
<g id="node6" class="node">
<title>Node6</title>
<g id="a_node6"><a xlink:title=" ">
<polygon fill="none" stroke="#bfbfbf" points="1076.5,-392.5 1076.5,-411.5 1131.5,-411.5 1131.5,-392.5 1076.5,-392.5"/>
<text text-anchor="middle" x="1104" y="-399.5" font-family="Helvetica,sans-Serif" font-size="10.00">fstream</text>
</a>
</g>
</g>
<!-- Node1&#45;&gt;Node6 -->
<g id="edge5" class="edge">
<title>Node1&#45;&gt;Node6</title>
<path fill="none" stroke="midnightblue" d="M810.07,-452.07C865.4,-445.01 968.53,-430.96 1066.14,-412.02"/>
<polygon fill="midnightblue" stroke="midnightblue" points="1067.04,-415.41 1076.18,-410.05 1065.69,-408.54 1067.04,-415.41"/>
</g>
<!-- Node7 -->
<g id="node7" class="node">
<title>Node7</title>
<g id="a_node7"><a xlink:title=" ">
<polygon fill="none" stroke="#bfbfbf" points="134,-336.5 134,-355.5 194,-355.5 194,-336.5 134,-336.5"/>
<text text-anchor="middle" x="164" y="-343.5" font-family="Helvetica,sans-Serif" font-size="10.00">iostream</text>
</a>
</g>
</g>
<!-- Node1&#45;&gt;Node7 -->
<g id="edge6" class="edge">
<title>Node1&#45;&gt;Node7</title>
<path fill="none" stroke="midnightblue" d="M729.9,-455.78C626.74,-452.26 354.33,-440.46 269,-412 235.69,-400.89 202.03,-377.4 182.1,-361.91"/>
<polygon fill="midnightblue" stroke="midnightblue" points="184.2,-359.11 174.2,-355.62 179.84,-364.59 184.2,-359.11"/>
</g>
<!-- Node8 -->
<g id="node8" class="node">
<title>Node8</title>
<g id="a_node8"><a xlink:title=" ">
<polygon fill="none" stroke="#bfbfbf" points="1150,-392.5 1150,-411.5 1206,-411.5 1206,-392.5 1150,-392.5"/>
<text text-anchor="middle" x="1178" y="-399.5" font-family="Helvetica,sans-Serif" font-size="10.00">sstream</text>
</a>
</g>
</g>
<!-- Node1&#45;&gt;Node8 -->
<g id="edge7" class="edge">
<title>Node1&#45;&gt;Node8</title>
<path fill="none" stroke="midnightblue" d="M810.04,-453.7C876.51,-447.89 1013.97,-434.44 1139.61,-412.06"/>
<polygon fill="midnightblue" stroke="midnightblue" points="1140.57,-415.45 1149.79,-410.22 1139.33,-408.56 1140.57,-415.45"/>
</g>
<!-- Node9 -->
<g id="node9" class="node">
<title>Node9</title>
<g id="a_node9"><a xlink:title=" ">
<polygon fill="none" stroke="#bfbfbf" points="531,-224.5 531,-243.5 569,-243.5 569,-224.5 531,-224.5"/>
<text text-anchor="middle" x="550" y="-231.5" font-family="Helvetica,sans-Serif" font-size="10.00">map</text>
</a>
</g>
</g>
<!-- Node1&#45;&gt;Node9 -->
<g id="edge8" class="edge">
<title>Node1&#45;&gt;Node9</title>
<path fill="none" stroke="midnightblue" d="M771.42,-448.44C774.51,-426.76 779.43,-369.05 751,-336 716.35,-295.72 684.28,-324.24 637,-300 610.71,-286.52 584.01,-265.19 567.25,-250.67"/>
<polygon fill="midnightblue" stroke="midnightblue" points="569.26,-247.78 559.45,-243.78 564.62,-253.02 569.26,-247.78"/>
</g>
<!-- Node10 -->
<g id="node10" class="node">
<title>Node10</title>
<g id="a_node10"><a xlink:title=" ">
<polygon fill="none" stroke="#bfbfbf" points="1224,-392.5 1224,-411.5 1280,-411.5 1280,-392.5 1224,-392.5"/>
<text text-anchor="middle" x="1252" y="-399.5" font-family="Helvetica,sans-Serif" font-size="10.00">iomanip</text>
</a>
</g>
</g>
<!-- Node1&#45;&gt;Node10 -->
<g id="edge9" class="edge">
<title>Node1&#45;&gt;Node10</title>
<path fill="none" stroke="midnightblue" d="M810.14,-454.8C886.77,-450.2 1059.28,-437.92 1213.66,-412.01"/>
<polygon fill="midnightblue" stroke="midnightblue" points="1214.53,-415.41 1223.8,-410.28 1213.36,-408.51 1214.53,-415.41"/>
</g>
<!-- Node11 -->
<g id="node11" class="node">
<title>Node11</title>
<g id="a_node11"><a xlink:title=" ">
<polygon fill="none" stroke="#bfbfbf" points="238,-0.5 238,-19.5 282,-19.5 282,-0.5 238,-0.5"/>
<text text-anchor="middle" x="260" y="-7.5" font-family="Helvetica,sans-Serif" font-size="10.00">string</text>
</a>
</g>
</g>
<!-- Node1&#45;&gt;Node11 -->
<g id="edge10" class="edge">
<title>Node1&#45;&gt;Node11</title>
<path fill="none" stroke="midnightblue" d="M729.82,-457.23C602.41,-457.51 208.82,-454.81 90,-412 43.58,-395.28 0,-396.34 0,-347 0,-347 0,-347 0,-121 0,-23.3 157.64,-11.06 227.42,-10.42"/>
<polygon fill="midnightblue" stroke="midnightblue" points="227.84,-13.92 237.83,-10.41 227.83,-6.92 227.84,-13.92"/>
</g>
<!-- Node12 -->
<g id="node12" class="node">
<title>Node12</title>
<g id="a_node12"><a xlink:title=" ">
<polygon fill="none" stroke="#bfbfbf" points="762.5,-0.5 762.5,-19.5 827.5,-19.5 827.5,-0.5 762.5,-0.5"/>
<text text-anchor="middle" x="795" y="-7.5" font-family="Helvetica,sans-Serif" font-size="10.00">exception</text>
</a>
</g>
</g>
<!-- Node1&#45;&gt;Node12 -->
<g id="edge11" class="edge">
<title>Node1&#45;&gt;Node12</title>
<path fill="none" stroke="midnightblue" d="M775.13,-448.15C783.95,-433.81 803.44,-405.72 828,-392 976.45,-309.1 1197,-461.03 1197,-291 1197,-291 1197,-291 1197,-121 1197,-47.11 941.14,-21.11 837.66,-13.61"/>
<polygon fill="midnightblue" stroke="midnightblue" points="837.78,-10.11 827.56,-12.9 837.29,-17.09 837.78,-10.11"/>
</g>
<!-- Node13 -->
<g id="node13" class="node">
<title>Node13</title>
<g id="a_node13"><a xlink:href="PolarfireTarget_8h_source.html" target="_top" xlink:title=" ">
<polygon fill="none" stroke="black" points="622,-392.5 622,-411.5 742,-411.5 742,-392.5 622,-392.5"/>
<text text-anchor="middle" x="682" y="-399.5" font-family="Helvetica,sans-Serif" font-size="10.00">pflib/PolarfireTarget.h</text>
</a>
</g>
</g>
<!-- Node1&#45;&gt;Node13 -->
<g id="edge12" class="edge">
<title>Node1&#45;&gt;Node13</title>
<path fill="none" stroke="midnightblue" d="M755.86,-448.32C742.13,-439.9 721.06,-426.97 704.94,-417.07"/>
<polygon fill="midnightblue" stroke="midnightblue" points="706.46,-413.9 696.1,-411.65 702.8,-419.87 706.46,-413.9"/>
</g>
<!-- Node31 -->
<g id="node31" class="node">
<title>Node31</title>
<g id="a_node31"><a xlink:href="Compile_8h.html" target="_top" xlink:title="Definition of compiling and decompiling functions between page numbers, register numbers,...">
<polygon fill="none" stroke="black" points="455,-280.5 455,-299.5 545,-299.5 545,-280.5 455,-280.5"/>
<text text-anchor="middle" x="500" y="-287.5" font-family="Helvetica,sans-Serif" font-size="10.00">pflib/Compile.h</text>
</a>
</g>
</g>
<!-- Node1&#45;&gt;Node31 -->
<g id="edge50" class="edge">
<title>Node1&#45;&gt;Node31</title>
<path fill="none" stroke="midnightblue" d="M729.94,-457.12C663.84,-454.86 533.71,-439.42 478,-356 468.12,-341.21 477.25,-321.56 486.57,-307.75"/>
<polygon fill="midnightblue" stroke="midnightblue" points="489.44,-309.77 492.53,-299.63 483.79,-305.63 489.44,-309.77"/>
</g>
<!-- Node32 -->
<g id="node32" class="node">
<title>Node32</title>
<g id="a_node32"><a xlink:href="Menu_8h_source.html" target="_top" xlink:title=" ">
<polygon fill="none" stroke="black" points="277.5,-392.5 277.5,-411.5 330.5,-411.5 330.5,-392.5 277.5,-392.5"/>
<text text-anchor="middle" x="304" y="-399.5" font-family="Helvetica,sans-Serif" font-size="10.00">Menu.h</text>
</a>
</g>
</g>
<!-- Node1&#45;&gt;Node32 -->
<g id="edge54" class="edge">
<title>Node1&#45;&gt;Node32</title>
<path fill="none" stroke="midnightblue" d="M729.87,-452.35C640.64,-442.01 426.93,-417.25 340.85,-407.27"/>
<polygon fill="midnightblue" stroke="midnightblue" points="341.1,-403.78 330.77,-406.1 340.3,-410.73 341.1,-403.78"/>
</g>
<!-- Node35 -->
<g id="node35" class="node">
<title>Node35</title>
<g id="a_node35"><a xlink:href="Rcfile_8h_source.html" target="_top" xlink:title=" ">
<polygon fill="none" stroke="black" points="159.5,-224.5 159.5,-243.5 212.5,-243.5 212.5,-224.5 159.5,-224.5"/>
<text text-anchor="middle" x="186" y="-231.5" font-family="Helvetica,sans-Serif" font-size="10.00">Rcfile.h</text>
</a>
</g>
</g>
<!-- Node1&#45;&gt;Node35 -->
<g id="edge63" class="edge">
<title>Node1&#45;&gt;Node35</title>
<path fill="none" stroke="midnightblue" d="M729.92,-455.99C613.36,-452.75 276.03,-441.06 170,-412 115.94,-397.19 86.55,-403.63 57,-356 27.39,-308.28 105.94,-266.98 153.21,-247.29"/>
<polygon fill="midnightblue" stroke="midnightblue" points="154.53,-250.53 162.49,-243.53 151.91,-244.04 154.53,-250.53"/>
</g>
<!-- Node14 -->
<g id="node14" class="node">
<title>Node14</title>
<g id="a_node14"><a xlink:title=" ">
<polygon fill="none" stroke="#bfbfbf" points="608.5,-336.5 608.5,-355.5 665.5,-355.5 665.5,-336.5 608.5,-336.5"/>
<text text-anchor="middle" x="637" y="-343.5" font-family="Helvetica,sans-Serif" font-size="10.00">ostream</text>
</a>
</g>
</g>
<!-- Node13&#45;&gt;Node14 -->
<g id="edge13" class="edge">
<title>Node13&#45;&gt;Node14</title>
<path fill="none" stroke="midnightblue" d="M674.57,-392.08C668.15,-384.38 658.69,-373.03 650.88,-363.65"/>
<polygon fill="midnightblue" stroke="midnightblue" points="653.38,-361.19 644.29,-355.75 648.01,-365.67 653.38,-361.19"/>
</g>
<!-- Node15 -->
<g id="node15" class="node">
<title>Node15</title>
<g id="a_node15"><a xlink:title=" ">
<polygon fill="none" stroke="#bfbfbf" points="684,-336.5 684,-355.5 742,-355.5 742,-336.5 684,-336.5"/>
<text text-anchor="middle" x="713" y="-343.5" font-family="Helvetica,sans-Serif" font-size="10.00">memory</text>
</a>
</g>
</g>
<!-- Node13&#45;&gt;Node15 -->
<g id="edge14" class="edge">
<title>Node13&#45;&gt;Node15</title>
<path fill="none" stroke="midnightblue" d="M687.12,-392.08C691.41,-384.61 697.66,-373.72 702.94,-364.52"/>
<polygon fill="midnightblue" stroke="midnightblue" points="706.03,-366.17 707.98,-355.75 699.96,-362.68 706.03,-366.17"/>
</g>
<!-- Node16 -->
<g id="node16" class="node">
<title>Node16</title>
<g id="a_node16"><a xlink:title=" ">
<polygon fill="none" stroke="#bfbfbf" points="486.5,-336.5 486.5,-355.5 551.5,-355.5 551.5,-336.5 486.5,-336.5"/>
<text text-anchor="middle" x="519" y="-343.5" font-family="Helvetica,sans-Serif" font-size="10.00">functional</text>
</a>
</g>
</g>
<!-- Node13&#45;&gt;Node16 -->
<g id="edge15" class="edge">
<title>Node13&#45;&gt;Node16</title>
<path fill="none" stroke="midnightblue" d="M656.17,-392.44C628.75,-383.36 585.22,-368.94 554.57,-358.78"/>
<polygon fill="midnightblue" stroke="midnightblue" points="555.3,-355.34 544.71,-355.52 553.1,-361.98 555.3,-355.34"/>
</g>
<!-- Node17 -->
<g id="node17" class="node">
<title>Node17</title>
<g id="a_node17"><a xlink:href="WishboneInterface_8h_source.html" target="_top" xlink:title=" ">
<polygon fill="none" stroke="black" points="783.5,-112.5 783.5,-131.5 924.5,-131.5 924.5,-112.5 783.5,-112.5"/>
<text text-anchor="middle" x="854" y="-119.5" font-family="Helvetica,sans-Serif" font-size="10.00">pflib/WishboneInterface.h</text>
</a>
</g>
</g>
<!-- Node13&#45;&gt;Node17 -->
<g id="edge16" class="edge">
<title>Node13&#45;&gt;Node17</title>
<path fill="none" stroke="midnightblue" d="M742.41,-393.36C870.77,-376.3 1159,-333.28 1159,-291 1159,-291 1159,-291 1159,-233 1159,-182.73 1010.52,-149.06 920.76,-133.3"/>
<polygon fill="midnightblue" stroke="midnightblue" points="921.1,-129.8 910.65,-131.55 919.91,-136.7 921.1,-129.8"/>
</g>
<!-- Node20 -->
<g id="node20" class="node">
<title>Node20</title>
<g id="a_node20"><a xlink:href="Backend_8h_source.html" target="_top" xlink:title=" ">
<polygon fill="none" stroke="black" points="345.5,-224.5 345.5,-243.5 436.5,-243.5 436.5,-224.5 345.5,-224.5"/>
<text text-anchor="middle" x="391" y="-231.5" font-family="Helvetica,sans-Serif" font-size="10.00">pflib/Backend.h</text>
</a>
</g>
</g>
<!-- Node13&#45;&gt;Node20 -->
<g id="edge21" class="edge">
<title>Node13&#45;&gt;Node20</title>
<path fill="none" stroke="midnightblue" d="M659.43,-392.46C641.71,-384.9 617.23,-372.52 600,-356 571.5,-328.68 585.48,-303.83 554,-280 523.14,-256.64 480.82,-245.4 447.04,-240"/>
<polygon fill="midnightblue" stroke="midnightblue" points="447.26,-236.5 436.85,-238.5 446.24,-243.42 447.26,-236.5"/>
</g>
<!-- Node22 -->
<g id="node22" class="node">
<title>Node22</title>
<g id="a_node22"><a xlink:href="Hcal_8h_source.html" target="_top" xlink:title=" ">
<polygon fill="none" stroke="black" points="811.5,-336.5 811.5,-355.5 882.5,-355.5 882.5,-336.5 811.5,-336.5"/>
<text text-anchor="middle" x="847" y="-343.5" font-family="Helvetica,sans-Serif" font-size="10.00">pflib/Hcal.h</text>
</a>
</g>
</g>
<!-- Node13&#45;&gt;Node22 -->
<g id="edge25" class="edge">
<title>Node13&#45;&gt;Node22</title>
<path fill="none" stroke="midnightblue" d="M708.14,-392.44C736.02,-383.32 780.35,-368.81 811.4,-358.65"/>
<polygon fill="midnightblue" stroke="midnightblue" points="812.56,-361.95 820.98,-355.52 810.38,-355.3 812.56,-361.95"/>
</g>
<!-- Node18 -->
<g id="node18" class="node">
<title>Node18</title>
<g id="a_node18"><a xlink:href="Exception_8h_source.html" target="_top" xlink:title=" ">
<polygon fill="none" stroke="black" points="345,-56.5 345,-75.5 443,-75.5 443,-56.5 345,-56.5"/>
<text text-anchor="middle" x="394" y="-63.5" font-family="Helvetica,sans-Serif" font-size="10.00">pflib/Exception.h</text>
</a>
</g>
</g>
<!-- Node17&#45;&gt;Node18 -->
<g id="edge17" class="edge">
<title>Node17&#45;&gt;Node18</title>
<path fill="none" stroke="midnightblue" d="M783.38,-112.71C692.87,-102.08 537.57,-83.85 453.04,-73.93"/>
<polygon fill="midnightblue" stroke="midnightblue" points="453.43,-70.45 443.09,-72.76 452.61,-77.4 453.43,-70.45"/>
</g>
<!-- Node19 -->
<g id="node19" class="node">
<title>Node19</title>
<g id="a_node19"><a xlink:title=" ">
<polygon fill="none" stroke="#bfbfbf" points="668.5,-56.5 668.5,-75.5 721.5,-75.5 721.5,-56.5 668.5,-56.5"/>
<text text-anchor="middle" x="695" y="-63.5" font-family="Helvetica,sans-Serif" font-size="10.00">stdint.h</text>
</a>
</g>
</g>
<!-- Node17&#45;&gt;Node19 -->
<g id="edge20" class="edge">
<title>Node17&#45;&gt;Node19</title>
<path fill="none" stroke="midnightblue" d="M828.81,-112.44C802.06,-103.36 759.6,-88.94 729.69,-78.78"/>
<polygon fill="midnightblue" stroke="midnightblue" points="730.67,-75.42 720.08,-75.52 728.42,-82.05 730.67,-75.42"/>
</g>
<!-- Node18&#45;&gt;Node11 -->
<g id="edge19" class="edge">
<title>Node18&#45;&gt;Node11</title>
<path fill="none" stroke="midnightblue" d="M372.77,-56.44C350.62,-47.52 315.68,-33.44 290.56,-23.32"/>
<polygon fill="midnightblue" stroke="midnightblue" points="291.72,-20.01 281.13,-19.52 289.1,-26.5 291.72,-20.01"/>
</g>
<!-- Node18&#45;&gt;Node12 -->
<g id="edge18" class="edge">
<title>Node18&#45;&gt;Node12</title>
<path fill="none" stroke="midnightblue" d="M443.17,-58.38C522.47,-47.7 677.27,-26.85 752.26,-16.76"/>
<polygon fill="midnightblue" stroke="midnightblue" points="752.85,-20.21 762.29,-15.4 751.91,-13.27 752.85,-20.21"/>
</g>
<!-- Node20&#45;&gt;Node18 -->
<g id="edge22" class="edge">
<title>Node20&#45;&gt;Node18</title>
<path fill="none" stroke="midnightblue" d="M391.16,-224.08C391.63,-197.95 393.02,-121.21 393.66,-85.58"/>
<polygon fill="midnightblue" stroke="midnightblue" points="397.16,-85.63 393.85,-75.57 390.16,-85.5 397.16,-85.63"/>
</g>
<!-- Node20&#45;&gt;Node19 -->
<g id="edge23" class="edge">
<title>Node20&#45;&gt;Node19</title>
<path fill="none" stroke="midnightblue" d="M406.92,-224.31C456.78,-197.08 610.23,-113.29 670.41,-80.43"/>
<polygon fill="midnightblue" stroke="midnightblue" points="672.14,-83.47 679.24,-75.61 668.79,-77.33 672.14,-83.47"/>
</g>
<!-- Node21 -->
<g id="node21" class="node">
<title>Node21</title>
<g id="a_node21"><a xlink:title=" ">
<polygon fill="none" stroke="#bfbfbf" points="611.5,-168.5 611.5,-187.5 658.5,-187.5 658.5,-168.5 611.5,-168.5"/>
<text text-anchor="middle" x="635" y="-175.5" font-family="Helvetica,sans-Serif" font-size="10.00">vector</text>
</a>
</g>
</g>
<!-- Node20&#45;&gt;Node21 -->
<g id="edge24" class="edge">
<title>Node20&#45;&gt;Node21</title>
<path fill="none" stroke="midnightblue" d="M429.66,-224.44C477.04,-213.96 556.52,-196.37 601.44,-186.43"/>
<polygon fill="midnightblue" stroke="midnightblue" points="602.27,-189.83 611.27,-184.25 600.75,-182.99 602.27,-189.83"/>
</g>
<!-- Node23 -->
<g id="node23" class="node">
<title>Node23</title>
<g id="a_node23"><a xlink:href="ROC_8h_source.html" target="_top" xlink:title=" ">
<polygon fill="none" stroke="black" points="645.5,-280.5 645.5,-299.5 716.5,-299.5 716.5,-280.5 645.5,-280.5"/>
<text text-anchor="middle" x="681" y="-287.5" font-family="Helvetica,sans-Serif" font-size="10.00">pflib/ROC.h</text>
</a>
</g>
</g>
<!-- Node22&#45;&gt;Node23 -->
<g id="edge26" class="edge">
<title>Node22&#45;&gt;Node23</title>
<path fill="none" stroke="midnightblue" d="M820.7,-336.44C792.65,-327.32 748.06,-312.81 716.82,-302.65"/>
<polygon fill="midnightblue" stroke="midnightblue" points="717.77,-299.28 707.18,-299.52 715.61,-305.94 717.77,-299.28"/>
</g>
<!-- Node24 -->
<g id="node24" class="node">
<title>Node24</title>
<g id="a_node24"><a xlink:href="I2C_8h_source.html" target="_top" xlink:title=" ">
<polygon fill="none" stroke="black" points="663.5,-224.5 663.5,-243.5 728.5,-243.5 728.5,-224.5 663.5,-224.5"/>
<text text-anchor="middle" x="696" y="-231.5" font-family="Helvetica,sans-Serif" font-size="10.00">pflib/I2C.h</text>
</a>
</g>
</g>
<!-- Node22&#45;&gt;Node24 -->
<g id="edge34" class="edge">
<title>Node22&#45;&gt;Node24</title>
<path fill="none" stroke="midnightblue" d="M844.9,-336.16C841.17,-322.33 832.13,-295.56 815,-280 802.96,-269.06 765.35,-255.81 735.61,-246.53"/>
<polygon fill="midnightblue" stroke="midnightblue" points="736.45,-243.12 725.87,-243.54 734.4,-249.82 736.45,-243.12"/>
</g>
<!-- Node26 -->
<g id="node26" class="node">
<title>Node26</title>
<g id="a_node26"><a xlink:href="Bias_8h_source.html" target="_top" xlink:title=" ">
<polygon fill="none" stroke="black" points="734.5,-280.5 734.5,-299.5 805.5,-299.5 805.5,-280.5 734.5,-280.5"/>
<text text-anchor="middle" x="770" y="-287.5" font-family="Helvetica,sans-Serif" font-size="10.00">pflib/Bias.h</text>
</a>
</g>
</g>
<!-- Node22&#45;&gt;Node26 -->
<g id="edge35" class="edge">
<title>Node22&#45;&gt;Node26</title>
<path fill="none" stroke="midnightblue" d="M834.63,-336.32C822.84,-328.06 804.87,-315.45 790.86,-305.63"/>
<polygon fill="midnightblue" stroke="midnightblue" points="792.54,-302.53 782.34,-299.65 788.52,-308.26 792.54,-302.53"/>
</g>
<!-- Node27 -->
<g id="node27" class="node">
<title>Node27</title>
<g id="a_node27"><a xlink:href="Elinks_8h_source.html" target="_top" xlink:title=" ">
<polygon fill="none" stroke="black" points="869.5,-224.5 869.5,-243.5 948.5,-243.5 948.5,-224.5 869.5,-224.5"/>
<text text-anchor="middle" x="909" y="-231.5" font-family="Helvetica,sans-Serif" font-size="10.00">pflib/Elinks.h</text>
</a>
</g>
</g>
<!-- Node22&#45;&gt;Node27 -->
<g id="edge38" class="edge">
<title>Node22&#45;&gt;Node27</title>
<path fill="none" stroke="midnightblue" d="M851.87,-336.37C862.05,-318.3 885.79,-276.18 899.24,-252.31"/>
<polygon fill="midnightblue" stroke="midnightblue" points="902.3,-254.02 904.16,-243.59 896.2,-250.58 902.3,-254.02"/>
</g>
<!-- Node28 -->
<g id="node28" class="node">
<title>Node28</title>
<g id="a_node28"><a xlink:href="GPIO_8h_source.html" target="_top" xlink:title=" ">
<polygon fill="none" stroke="black" points="967,-224.5 967,-243.5 1041,-243.5 1041,-224.5 967,-224.5"/>
<text text-anchor="middle" x="1004" y="-231.5" font-family="Helvetica,sans-Serif" font-size="10.00">pflib/GPIO.h</text>
</a>
</g>
</g>
<!-- Node22&#45;&gt;Node28 -->
<g id="edge41" class="edge">
<title>Node22&#45;&gt;Node28</title>
<path fill="none" stroke="midnightblue" d="M859.32,-336.37C886.15,-317.57 950.09,-272.77 983.26,-249.53"/>
<polygon fill="midnightblue" stroke="midnightblue" points="985.56,-252.2 991.74,-243.59 981.54,-246.46 985.56,-252.2"/>
</g>
<!-- Node29 -->
<g id="node29" class="node">
<title>Node29</title>
<g id="a_node29"><a xlink:href="FastControl_8h_source.html" target="_top" xlink:title=" ">
<polygon fill="none" stroke="black" points="747,-224.5 747,-243.5 851,-243.5 851,-224.5 747,-224.5"/>
<text text-anchor="middle" x="799" y="-231.5" font-family="Helvetica,sans-Serif" font-size="10.00">pflib/FastControl.h</text>
</a>
</g>
</g>
<!-- Node22&#45;&gt;Node29 -->
<g id="edge44" class="edge">
<title>Node22&#45;&gt;Node29</title>
<path fill="none" stroke="midnightblue" d="M849.37,-336.13C852.36,-323.18 856.17,-298.6 848,-280 842.61,-267.73 832.04,-257.34 822.1,-249.65"/>
<polygon fill="midnightblue" stroke="midnightblue" points="823.83,-246.58 813.66,-243.6 819.75,-252.27 823.83,-246.58"/>
</g>
<!-- Node30 -->
<g id="node30" class="node">
<title>Node30</title>
<g id="a_node30"><a xlink:href="DAQ_8h_source.html" target="_top" xlink:title=" ">
<polygon fill="none" stroke="black" points="1059.5,-224.5 1059.5,-243.5 1130.5,-243.5 1130.5,-224.5 1059.5,-224.5"/>
<text text-anchor="middle" x="1095" y="-231.5" font-family="Helvetica,sans-Serif" font-size="10.00">pflib/DAQ.h</text>
</a>
</g>
</g>
<!-- Node22&#45;&gt;Node30 -->
<g id="edge47" class="edge">
<title>Node22&#45;&gt;Node30</title>
<path fill="none" stroke="midnightblue" d="M866.46,-336.37C910.01,-317.05 1015.51,-270.26 1066.48,-247.65"/>
<polygon fill="midnightblue" stroke="midnightblue" points="1067.91,-250.85 1075.63,-243.59 1065.07,-244.45 1067.91,-250.85"/>
</g>
<!-- Node23&#45;&gt;Node9 -->
<g id="edge32" class="edge">
<title>Node23&#45;&gt;Node9</title>
<path fill="none" stroke="midnightblue" d="M660.24,-280.44C638.3,-271.4 603.53,-257.07 578.92,-246.92"/>
<polygon fill="midnightblue" stroke="midnightblue" points="579.96,-243.56 569.38,-242.99 577.29,-250.04 579.96,-243.56"/>
</g>
<!-- Node23&#45;&gt;Node11 -->
<g id="edge33" class="edge">
<title>Node23&#45;&gt;Node11</title>
<path fill="none" stroke="midnightblue" d="M645.26,-286.5C561.98,-280.38 360.3,-263.67 337,-244 313.91,-224.5 317,-209.23 317,-179 317,-179 317,-179 317,-121 317,-84.3 291.68,-47.66 274.79,-27.3"/>
<polygon fill="midnightblue" stroke="midnightblue" points="277.35,-24.9 268.17,-19.62 272.05,-29.48 277.35,-24.9"/>
</g>
<!-- Node23&#45;&gt;Node21 -->
<g id="edge31" class="edge">
<title>Node23&#45;&gt;Node21</title>
<path fill="none" stroke="midnightblue" d="M661.7,-280.48C647.57,-273.08 629.44,-260.89 621,-244 613.6,-229.19 618.88,-210.57 624.97,-197.06"/>
<polygon fill="midnightblue" stroke="midnightblue" points="628.22,-198.38 629.57,-187.87 621.96,-195.24 628.22,-198.38"/>
</g>
<!-- Node23&#45;&gt;Node24 -->
<g id="edge27" class="edge">
<title>Node23&#45;&gt;Node24</title>
<path fill="none" stroke="midnightblue" d="M683.48,-280.08C685.49,-272.85 688.39,-262.41 690.89,-253.4"/>
<polygon fill="midnightblue" stroke="midnightblue" points="694.26,-254.32 693.57,-243.75 687.52,-252.45 694.26,-254.32"/>
</g>
<!-- Node24&#45;&gt;Node21 -->
<g id="edge30" class="edge">
<title>Node24&#45;&gt;Node21</title>
<path fill="none" stroke="midnightblue" d="M686.2,-224.32C677.18,-216.34 663.59,-204.31 652.68,-194.65"/>
<polygon fill="midnightblue" stroke="midnightblue" points="654.79,-191.84 644.98,-187.83 650.15,-197.08 654.79,-191.84"/>
</g>
<!-- Node25 -->
<g id="node25" class="node">
<title>Node25</title>
<g id="a_node25"><a xlink:href="WishboneTarget_8h_source.html" target="_top" xlink:title=" ">
<polygon fill="none" stroke="black" points="790,-168.5 790,-187.5 918,-187.5 918,-168.5 790,-168.5"/>
<text text-anchor="middle" x="854" y="-175.5" font-family="Helvetica,sans-Serif" font-size="10.00">pflib/WishboneTarget.h</text>
</a>
</g>
</g>
<!-- Node24&#45;&gt;Node25 -->
<g id="edge28" class="edge">
<title>Node24&#45;&gt;Node25</title>
<path fill="none" stroke="midnightblue" d="M721.04,-224.44C747.62,-215.36 789.81,-200.94 819.52,-190.78"/>
<polygon fill="midnightblue" stroke="midnightblue" points="820.75,-194.06 829.08,-187.52 818.49,-187.44 820.75,-194.06"/>
</g>
<!-- Node25&#45;&gt;Node17 -->
<g id="edge29" class="edge">
<title>Node25&#45;&gt;Node17</title>
<path fill="none" stroke="midnightblue" d="M854,-168.08C854,-161.01 854,-150.86 854,-141.99"/>
<polygon fill="midnightblue" stroke="midnightblue" points="857.5,-141.75 854,-131.75 850.5,-141.75 857.5,-141.75"/>
</g>
<!-- Node26&#45;&gt;Node21 -->
<g id="edge37" class="edge">
<title>Node26&#45;&gt;Node21</title>
<path fill="none" stroke="midnightblue" d="M739.93,-280.49C709.99,-271.46 666.85,-256.77 655,-244 643.34,-231.44 638.47,-212.22 636.44,-197.93"/>
<polygon fill="midnightblue" stroke="midnightblue" points="639.9,-197.32 635.35,-187.75 632.94,-198.07 639.9,-197.32"/>
</g>
<!-- Node26&#45;&gt;Node24 -->
<g id="edge36" class="edge">
<title>Node26&#45;&gt;Node24</title>
<path fill="none" stroke="midnightblue" d="M758.11,-280.32C746.85,-272.11 729.71,-259.6 716.29,-249.81"/>
<polygon fill="midnightblue" stroke="midnightblue" points="718.25,-246.9 708.11,-243.83 714.12,-252.56 718.25,-246.9"/>
</g>
<!-- Node27&#45;&gt;Node21 -->
<g id="edge40" class="edge">
<title>Node27&#45;&gt;Node21</title>
<path fill="none" stroke="midnightblue" d="M869.45,-225.21C815.38,-214.55 719.31,-195.62 668.56,-185.61"/>
<polygon fill="midnightblue" stroke="midnightblue" points="669.23,-182.18 658.75,-183.68 667.88,-189.05 669.23,-182.18"/>
</g>
<!-- Node27&#45;&gt;Node25 -->
<g id="edge39" class="edge">
<title>Node27&#45;&gt;Node25</title>
<path fill="none" stroke="midnightblue" d="M899.92,-224.08C891.83,-216.14 879.8,-204.34 870.09,-194.8"/>
<polygon fill="midnightblue" stroke="midnightblue" points="872.5,-192.26 862.91,-187.75 867.6,-197.25 872.5,-192.26"/>
</g>
<!-- Node28&#45;&gt;Node21 -->
<g id="edge43" class="edge">
<title>Node28&#45;&gt;Node21</title>
<path fill="none" stroke="midnightblue" d="M966.87,-225.56C963.88,-225.01 960.89,-224.48 958,-224 852.86,-206.4 727.66,-190.35 668.78,-183.09"/>
<polygon fill="midnightblue" stroke="midnightblue" points="668.93,-179.58 658.57,-181.83 668.07,-186.53 668.93,-179.58"/>
</g>
<!-- Node28&#45;&gt;Node25 -->
<g id="edge42" class="edge">
<title>Node28&#45;&gt;Node25</title>
<path fill="none" stroke="midnightblue" d="M980.23,-224.44C955.11,-215.4 915.29,-201.06 887.1,-190.92"/>
<polygon fill="midnightblue" stroke="midnightblue" points="888.25,-187.61 877.66,-187.52 885.88,-194.2 888.25,-187.61"/>
</g>
<!-- Node29&#45;&gt;Node21 -->
<g id="edge46" class="edge">
<title>Node29&#45;&gt;Node21</title>
<path fill="none" stroke="midnightblue" d="M773.01,-224.44C744.77,-215.15 699.56,-200.26 668.63,-190.07"/>
<polygon fill="midnightblue" stroke="midnightblue" points="669.33,-186.62 658.73,-186.82 667.14,-193.27 669.33,-186.62"/>
</g>
<!-- Node29&#45;&gt;Node25 -->
<g id="edge45" class="edge">
<title>Node29&#45;&gt;Node25</title>
<path fill="none" stroke="midnightblue" d="M808.08,-224.08C816.17,-216.14 828.2,-204.34 837.91,-194.8"/>
<polygon fill="midnightblue" stroke="midnightblue" points="840.4,-197.25 845.09,-187.75 835.5,-192.26 840.4,-197.25"/>
</g>
<!-- Node30&#45;&gt;Node17 -->
<g id="edge49" class="edge">
<title>Node30&#45;&gt;Node17</title>
<path fill="none" stroke="midnightblue" d="M1076.09,-224.37C1033.85,-205.09 931.68,-158.45 882.02,-135.79"/>
<polygon fill="midnightblue" stroke="midnightblue" points="883.37,-132.56 872.82,-131.59 880.47,-138.93 883.37,-132.56"/>
</g>
<!-- Node30&#45;&gt;Node21 -->
<g id="edge48" class="edge">
<title>Node30&#45;&gt;Node21</title>
<path fill="none" stroke="midnightblue" d="M1059.19,-225.54C1056.09,-224.98 1052.99,-224.46 1050,-224 909.31,-202.35 740.21,-187.43 669.11,-181.66"/>
<polygon fill="midnightblue" stroke="midnightblue" points="669.21,-178.16 658.96,-180.84 668.64,-185.13 669.21,-178.16"/>
</g>
<!-- Node31&#45;&gt;Node9 -->
<g id="edge51" class="edge">
<title>Node31&#45;&gt;Node9</title>
<path fill="none" stroke="midnightblue" d="M508.26,-280.08C515.46,-272.3 526.11,-260.8 534.85,-251.37"/>
<polygon fill="midnightblue" stroke="midnightblue" points="537.67,-253.47 541.9,-243.75 532.53,-248.71 537.67,-253.47"/>
</g>
<!-- Node31&#45;&gt;Node11 -->
<g id="edge52" class="edge">
<title>Node31&#45;&gt;Node11</title>
<path fill="none" stroke="midnightblue" d="M454.92,-283.72C403.99,-276.91 325.27,-263.57 303,-244 279.86,-223.67 279,-209.8 279,-179 279,-179 279,-179 279,-121 279,-88.49 270.84,-51.35 265.22,-29.61"/>
<polygon fill="midnightblue" stroke="midnightblue" points="268.54,-28.5 262.56,-19.75 261.78,-30.32 268.54,-28.5"/>
</g>
<!-- Node31&#45;&gt;Node21 -->
<g id="edge53" class="edge">
<title>Node31&#45;&gt;Node21</title>
<path fill="none" stroke="midnightblue" d="M500.66,-280.24C502.15,-266.52 506.91,-239.9 522,-224 543.08,-201.78 576.54,-190.3 601.59,-184.51"/>
<polygon fill="midnightblue" stroke="midnightblue" points="602.35,-187.93 611.41,-182.43 600.9,-181.08 602.35,-187.93"/>
</g>
<!-- Node32&#45;&gt;Node2 -->
<g id="edge55" class="edge">
<title>Node32&#45;&gt;Node2</title>
<path fill="none" stroke="midnightblue" d="M277.29,-394.39C244.13,-386.17 185.58,-371.58 126.17,-356.28"/>
<polygon fill="midnightblue" stroke="midnightblue" points="126.8,-352.83 116.24,-353.72 125.05,-359.61 126.8,-352.83"/>
</g>
<!-- Node32&#45;&gt;Node7 -->
<g id="edge61" class="edge">
<title>Node32&#45;&gt;Node7</title>
<path fill="none" stroke="midnightblue" d="M281.82,-392.44C258.57,-383.48 221.85,-369.31 195.58,-359.18"/>
<polygon fill="midnightblue" stroke="midnightblue" points="196.67,-355.85 186.08,-355.52 194.15,-362.38 196.67,-355.85"/>
</g>
<!-- Node32&#45;&gt;Node11 -->
<g id="edge58" class="edge">
<title>Node32&#45;&gt;Node11</title>
<path fill="none" stroke="midnightblue" d="M291.28,-392.47C251.33,-365.21 131,-279.43 131,-235 131,-235 131,-235 131,-121 131,-70.07 189.94,-37.73 228.14,-22.12"/>
<polygon fill="midnightblue" stroke="midnightblue" points="229.78,-25.24 237.82,-18.34 227.24,-18.72 229.78,-25.24"/>
</g>
<!-- Node32&#45;&gt;Node16 -->
<g id="edge60" class="edge">
<title>Node32&#45;&gt;Node16</title>
<path fill="none" stroke="midnightblue" d="M330.8,-394.27C367.27,-385.11 432.96,-368.61 476.27,-357.73"/>
<polygon fill="midnightblue" stroke="midnightblue" points="477.38,-361.06 486.23,-355.23 475.68,-354.27 477.38,-361.06"/>
</g>
<!-- Node32&#45;&gt;Node18 -->
<g id="edge62" class="edge">
<title>Node32&#45;&gt;Node18</title>
<path fill="none" stroke="midnightblue" d="M297.37,-392.27C291.23,-383.61 282.54,-369.67 279,-356 276.77,-347.4 277.22,-344.71 279,-336 299.57,-235.58 359.18,-126.31 383.49,-84.55"/>
<polygon fill="midnightblue" stroke="midnightblue" points="386.56,-86.24 388.62,-75.85 380.53,-82.69 386.56,-86.24"/>
</g>
<!-- Node32&#45;&gt;Node21 -->
<g id="edge59" class="edge">
<title>Node32&#45;&gt;Node21</title>
<path fill="none" stroke="midnightblue" d="M330.77,-393.43C351.78,-386.43 380.76,-374.31 401,-356 430.11,-329.67 421.4,-310.59 446,-280 468.86,-251.57 474.78,-242.86 506,-224 536.07,-205.84 574.51,-193.63 601.58,-186.57"/>
<polygon fill="midnightblue" stroke="midnightblue" points="602.52,-189.94 611.36,-184.11 600.81,-183.15 602.52,-189.94"/>
</g>
<!-- Node33 -->
<g id="node33" class="node">
<title>Node33</title>
<g id="a_node33"><a xlink:title=" ">
<polygon fill="none" stroke="#bfbfbf" points="338.5,-336.5 338.5,-355.5 391.5,-355.5 391.5,-336.5 338.5,-336.5"/>
<text text-anchor="middle" x="365" y="-343.5" font-family="Helvetica,sans-Serif" font-size="10.00">string.h</text>
</a>
</g>
</g>
<!-- Node32&#45;&gt;Node33 -->
<g id="edge56" class="edge">
<title>Node32&#45;&gt;Node33</title>
<path fill="none" stroke="midnightblue" d="M313.8,-392.32C322.82,-384.34 336.41,-372.31 347.32,-362.65"/>
<polygon fill="midnightblue" stroke="midnightblue" points="349.85,-365.08 355.02,-355.83 345.21,-359.84 349.85,-365.08"/>
</g>
<!-- Node34 -->
<g id="node34" class="node">
<title>Node34</title>
<g id="a_node34"><a xlink:title=" ">
<polygon fill="none" stroke="#bfbfbf" points="288,-336.5 288,-355.5 320,-355.5 320,-336.5 288,-336.5"/>
<text text-anchor="middle" x="304" y="-343.5" font-family="Helvetica,sans-Serif" font-size="10.00">list</text>
</a>
</g>
</g>
<!-- Node32&#45;&gt;Node34 -->
<g id="edge57" class="edge">
<title>Node32&#45;&gt;Node34</title>
<path fill="none" stroke="midnightblue" d="M304,-392.08C304,-385.01 304,-374.86 304,-365.99"/>
<polygon fill="midnightblue" stroke="midnightblue" points="307.5,-365.75 304,-355.75 300.5,-365.75 307.5,-365.75"/>
</g>
<!-- Node35&#45;&gt;Node11 -->
<g id="edge64" class="edge">
<title>Node35&#45;&gt;Node11</title>
<path fill="none" stroke="midnightblue" d="M188.9,-224.3C199.84,-191.49 238.71,-74.88 253.87,-29.38"/>
<polygon fill="midnightblue" stroke="midnightblue" points="257.2,-30.48 257.04,-19.88 250.56,-28.26 257.2,-30.48"/>
</g>
<!-- Node35&#45;&gt;Node21 -->
<g id="edge65" class="edge">
<title>Node35&#45;&gt;Node21</title>
<path fill="none" stroke="midnightblue" d="M212.74,-229.78C290.4,-220.44 515.83,-193.33 601.46,-183.03"/>
<polygon fill="midnightblue" stroke="midnightblue" points="601.92,-186.5 611.43,-181.84 601.08,-179.55 601.92,-186.5"/>
</g>
</g>
</svg>
