<?xml version="1.0" encoding="UTF-8" standalone="no"?>
<!DOCTYPE svg PUBLIC "-//W3C//DTD SVG 1.1//EN"
 "http://www.w3.org/Graphics/SVG/1.1/DTD/svg11.dtd">
<!-- Generated by graphviz version 2.43.0 (0)
 -->
<!-- Title: tool/pftool.cc Pages: 1 -->
<svg width="1684pt" height="532pt"
 viewBox="0.00 0.00 1684.00 532.00" xmlns="http://www.w3.org/2000/svg" xmlns:xlink="http://www.w3.org/1999/xlink">
<g id="graph0" class="graph" transform="scale(1 1) rotate(0) translate(4 528)">
<title>tool/pftool.cc</title>
<!-- Node1 -->
<g id="node1" class="node">
<title>Node1</title>
<g id="a_node1"><a xlink:title="File defining the pftool executable.">
<polygon fill="#bfbfbf" stroke="black" points="1090,-504.5 1090,-523.5 1170,-523.5 1170,-504.5 1090,-504.5"/>
<text text-anchor="middle" x="1130" y="-511.5" font-family="Helvetica,sans-Serif" font-size="10.00">tool/pftool.cc</text>
</a>
</g>
</g>
<!-- Node2 -->
<g id="node2" class="node">
<title>Node2</title>
<g id="a_node2"><a xlink:href="pftool_8h_source.html" target="_top" xlink:title=" ">
<polygon fill="none" stroke="black" points="1103.5,-448.5 1103.5,-467.5 1156.5,-467.5 1156.5,-448.5 1103.5,-448.5"/>
<text text-anchor="middle" x="1130" y="-455.5" font-family="Helvetica,sans-Serif" font-size="10.00">pftool.h</text>
</a>
</g>
</g>
<!-- Node1&#45;&gt;Node2 -->
<g id="edge1" class="edge">
<title>Node1&#45;&gt;Node2</title>
<path fill="none" stroke="midnightblue" d="M1130,-504.08C1130,-497.01 1130,-486.86 1130,-477.99"/>
<polygon fill="midnightblue" stroke="midnightblue" points="1133.5,-477.75 1130,-467.75 1126.5,-477.75 1133.5,-477.75"/>
</g>
<!-- Node3 -->
<g id="node3" class="node">
<title>Node3</title>
<g id="a_node3"><a xlink:title=" ">
<polygon fill="none" stroke="#bfbfbf" points="66,-336.5 66,-355.5 116,-355.5 116,-336.5 66,-336.5"/>
<text text-anchor="middle" x="91" y="-343.5" font-family="Helvetica,sans-Serif" font-size="10.00">stdio.h</text>
</a>
</g>
</g>
<!-- Node2&#45;&gt;Node3 -->
<g id="edge2" class="edge">
<title>Node2&#45;&gt;Node3</title>
<path fill="none" stroke="midnightblue" d="M1103.45,-457C973.64,-456.82 405.21,-453.61 234,-412 189.2,-401.11 141.2,-376.26 113.77,-360.63"/>
<polygon fill="midnightblue" stroke="midnightblue" points="115.37,-357.51 104.97,-355.53 111.86,-363.57 115.37,-357.51"/>
</g>
<!-- Node4 -->
<g id="node4" class="node">
<title>Node4</title>
<g id="a_node4"><a xlink:title=" ">
<polygon fill="none" stroke="#bfbfbf" points="1232.5,-392.5 1232.5,-411.5 1285.5,-411.5 1285.5,-392.5 1232.5,-392.5"/>
<text text-anchor="middle" x="1259" y="-399.5" font-family="Helvetica,sans-Serif" font-size="10.00">stdlib.h</text>
</a>
</g>
</g>
<!-- Node2&#45;&gt;Node4 -->
<g id="edge3" class="edge">
<title>Node2&#45;&gt;Node4</title>
<path fill="none" stroke="midnightblue" d="M1150.44,-448.44C1171.67,-439.56 1205.1,-425.56 1229.25,-415.45"/>
<polygon fill="midnightblue" stroke="midnightblue" points="1230.78,-418.61 1238.66,-411.52 1228.08,-412.15 1230.78,-418.61"/>
</g>
<!-- Node5 -->
<g id="node5" class="node">
<title>Node5</title>
<g id="a_node5"><a xlink:title=" ">
<polygon fill="none" stroke="#bfbfbf" points="1304,-392.5 1304,-411.5 1372,-411.5 1372,-392.5 1304,-392.5"/>
<text text-anchor="middle" x="1338" y="-399.5" font-family="Helvetica,sans-Serif" font-size="10.00">sys/time.h</text>
</a>
</g>
</g>
<!-- Node2&#45;&gt;Node5 -->
<g id="edge4" class="edge">
<title>Node2&#45;&gt;Node5</title>
<path fill="none" stroke="midnightblue" d="M1156.77,-450.05C1191.84,-440.95 1253.76,-424.87 1295.33,-414.08"/>
<polygon fill="midnightblue" stroke="midnightblue" points="1296.37,-417.42 1305.17,-411.52 1294.61,-410.65 1296.37,-417.42"/>
</g>
<!-- Node6 -->
<g id="node6" class="node">
<title>Node6</title>
<g id="a_node6"><a xlink:title=" ">
<polygon fill="none" stroke="#bfbfbf" points="1390,-392.5 1390,-411.5 1454,-411.5 1454,-392.5 1390,-392.5"/>
<text text-anchor="middle" x="1422" y="-399.5" font-family="Helvetica,sans-Serif" font-size="10.00">algorithm</text>
</a>
</g>
</g>
<!-- Node2&#45;&gt;Node6 -->
<g id="edge5" class="edge">
<title>Node2&#45;&gt;Node6</title>
<path fill="none" stroke="midnightblue" d="M1156.81,-452.54C1201.08,-445.11 1292.48,-429.45 1379.73,-412.19"/>
<polygon fill="midnightblue" stroke="midnightblue" points="1380.67,-415.58 1389.8,-410.19 1379.31,-408.71 1380.67,-415.58"/>
</g>
<!-- Node7 -->
<g id="node7" class="node">
<title>Node7</title>
<g id="a_node7"><a xlink:title=" ">
<polygon fill="none" stroke="#bfbfbf" points="1472.5,-392.5 1472.5,-411.5 1527.5,-411.5 1527.5,-392.5 1472.5,-392.5"/>
<text text-anchor="middle" x="1500" y="-399.5" font-family="Helvetica,sans-Serif" font-size="10.00">fstream</text>
</a>
</g>
</g>
<!-- Node2&#45;&gt;Node7 -->
<g id="edge6" class="edge">
<title>Node2&#45;&gt;Node7</title>
<path fill="none" stroke="midnightblue" d="M1156.91,-454.33C1212.2,-448.63 1342.67,-434.13 1462.14,-411.98"/>
<polygon fill="midnightblue" stroke="midnightblue" points="1463,-415.38 1472.19,-410.09 1461.71,-408.5 1463,-415.38"/>
</g>
<!-- Node8 -->
<g id="node8" class="node">
<title>Node8</title>
<g id="a_node8"><a xlink:title=" ">
<polygon fill="none" stroke="#bfbfbf" points="134,-336.5 134,-355.5 194,-355.5 194,-336.5 134,-336.5"/>
<text text-anchor="middle" x="164" y="-343.5" font-family="Helvetica,sans-Serif" font-size="10.00">iostream</text>
</a>
</g>
</g>
<!-- Node2&#45;&gt;Node8 -->
<g id="edge7" class="edge">
<title>Node2&#45;&gt;Node8</title>
<path fill="none" stroke="midnightblue" d="M1103.32,-457.11C977.87,-457.41 446.1,-455.99 287,-412 248.16,-401.26 207.7,-376.91 184.23,-361.25"/>
<polygon fill="midnightblue" stroke="midnightblue" points="186.06,-358.26 175.82,-355.53 182.12,-364.05 186.06,-358.26"/>
</g>
<!-- Node9 -->
<g id="node9" class="node">
<title>Node9</title>
<g id="a_node9"><a xlink:title=" ">
<polygon fill="none" stroke="#bfbfbf" points="1546,-392.5 1546,-411.5 1602,-411.5 1602,-392.5 1546,-392.5"/>
<text text-anchor="middle" x="1574" y="-399.5" font-family="Helvetica,sans-Serif" font-size="10.00">sstream</text>
</a>
</g>
</g>
<!-- Node2&#45;&gt;Node9 -->
<g id="edge8" class="edge">
<title>Node2&#45;&gt;Node9</title>
<path fill="none" stroke="midnightblue" d="M1156.84,-455.23C1220.76,-450.76 1387.17,-437.64 1535.6,-412.04"/>
<polygon fill="midnightblue" stroke="midnightblue" points="1536.55,-415.43 1545.8,-410.26 1535.34,-408.53 1536.55,-415.43"/>
</g>
<!-- Node10 -->
<g id="node10" class="node">
<title>Node10</title>
<g id="a_node10"><a xlink:title=" ">
<polygon fill="none" stroke="#bfbfbf" points="1144,-224.5 1144,-243.5 1182,-243.5 1182,-224.5 1144,-224.5"/>
<text text-anchor="middle" x="1163" y="-231.5" font-family="Helvetica,sans-Serif" font-size="10.00">map</text>
</a>
</g>
</g>
<!-- Node2&#45;&gt;Node10 -->
<g id="edge9" class="edge">
<title>Node2&#45;&gt;Node10</title>
<path fill="none" stroke="midnightblue" d="M1131.64,-448.17C1136.04,-424.34 1148.26,-356.66 1156,-300 1158.11,-284.52 1159.98,-266.89 1161.25,-253.9"/>
<polygon fill="midnightblue" stroke="midnightblue" points="1164.74,-254.14 1162.21,-243.85 1157.78,-253.47 1164.74,-254.14"/>
</g>
<!-- Node11 -->
<g id="node11" class="node">
<title>Node11</title>
<g id="a_node11"><a xlink:title=" ">
<polygon fill="none" stroke="#bfbfbf" points="212,-336.5 212,-355.5 268,-355.5 268,-336.5 212,-336.5"/>
<text text-anchor="middle" x="240" y="-343.5" font-family="Helvetica,sans-Serif" font-size="10.00">iomanip</text>
</a>
</g>
</g>
<!-- Node2&#45;&gt;Node11 -->
<g id="edge10" class="edge">
<title>Node2&#45;&gt;Node11</title>
<path fill="none" stroke="midnightblue" d="M1103.43,-456.42C972.72,-453.45 401.3,-439.02 327,-412 298.63,-401.68 271.72,-378.85 255.54,-363.19"/>
<polygon fill="midnightblue" stroke="midnightblue" points="257.65,-360.35 248.1,-355.76 252.7,-365.3 257.65,-360.35"/>
</g>
<!-- Node12 -->
<g id="node12" class="node">
<title>Node12</title>
<g id="a_node12"><a xlink:title=" ">
<polygon fill="none" stroke="#bfbfbf" points="1620,-392.5 1620,-411.5 1676,-411.5 1676,-392.5 1620,-392.5"/>
<text text-anchor="middle" x="1648" y="-399.5" font-family="Helvetica,sans-Serif" font-size="10.00">unistd.h</text>
</a>
</g>
</g>
<!-- Node2&#45;&gt;Node12 -->
<g id="edge11" class="edge">
<title>Node2&#45;&gt;Node12</title>
<path fill="none" stroke="midnightblue" d="M1156.51,-455.87C1228.1,-452.55 1431.42,-441.21 1609.72,-411.98"/>
<polygon fill="midnightblue" stroke="midnightblue" points="1610.52,-415.4 1619.81,-410.31 1609.37,-408.49 1610.52,-415.4"/>
</g>
<!-- Node13 -->
<g id="node13" class="node">
<title>Node13</title>
<g id="a_node13"><a xlink:title=" ">
<polygon fill="none" stroke="#bfbfbf" points="290,-0.5 290,-19.5 334,-19.5 334,-0.5 290,-0.5"/>
<text text-anchor="middle" x="312" y="-7.5" font-family="Helvetica,sans-Serif" font-size="10.00">string</text>
</a>
</g>
</g>
<!-- Node2&#45;&gt;Node13 -->
<g id="edge12" class="edge">
<title>Node2&#45;&gt;Node13</title>
<path fill="none" stroke="midnightblue" d="M1103.06,-456.75C949.61,-455.19 189.16,-445.81 91,-412 44.01,-395.81 0,-396.7 0,-347 0,-347 0,-347 0,-121 0,-62.19 199.69,-27.07 279.56,-15.38"/>
<polygon fill="midnightblue" stroke="midnightblue" points="280.16,-18.83 289.56,-13.95 279.17,-11.9 280.16,-18.83"/>
</g>
<!-- Node14 -->
<g id="node14" class="node">
<title>Node14</title>
<g id="a_node14"><a xlink:title=" ">
<polygon fill="none" stroke="#bfbfbf" points="765.5,-0.5 765.5,-19.5 830.5,-19.5 830.5,-0.5 765.5,-0.5"/>
<text text-anchor="middle" x="798" y="-7.5" font-family="Helvetica,sans-Serif" font-size="10.00">exception</text>
</a>
</g>
</g>
<!-- Node2&#45;&gt;Node14 -->
<g id="edge13" class="edge">
<title>Node2&#45;&gt;Node14</title>
<path fill="none" stroke="midnightblue" d="M1137.96,-448.41C1158.73,-425.07 1213,-357.7 1213,-291 1213,-291 1213,-291 1213,-121 1213,-44.54 946.44,-19.98 840.59,-13.24"/>
<polygon fill="midnightblue" stroke="midnightblue" points="840.76,-9.75 830.56,-12.63 840.33,-16.74 840.76,-9.75"/>
</g>
<!-- Node15 -->
<g id="node15" class="node">
<title>Node15</title>
<g id="a_node15"><a xlink:href="PolarfireTarget_8h_source.html" target="_top" xlink:title=" ">
<polygon fill="none" stroke="black" points="730,-392.5 730,-411.5 850,-411.5 850,-392.5 730,-392.5"/>
<text text-anchor="middle" x="790" y="-399.5" font-family="Helvetica,sans-Serif" font-size="10.00">pflib/PolarfireTarget.h</text>
</a>
</g>
</g>
<!-- Node2&#45;&gt;Node15 -->
<g id="edge14" class="edge">
<title>Node2&#45;&gt;Node15</title>
<path fill="none" stroke="midnightblue" d="M1103.32,-452.76C1050.02,-444.3 929.05,-425.08 853.98,-413.16"/>
<polygon fill="midnightblue" stroke="midnightblue" points="854.13,-409.64 843.7,-411.53 853.03,-416.55 854.13,-409.64"/>
</g>
<!-- Node33 -->
<g id="node33" class="node">
<title>Node33</title>
<g id="a_node33"><a xlink:href="Compile_8h.html" target="_top" xlink:title="Definition of compiling and decompiling functions between page numbers, register numbers,...">
<polygon fill="none" stroke="black" points="1057,-280.5 1057,-299.5 1147,-299.5 1147,-280.5 1057,-280.5"/>
<text text-anchor="middle" x="1102" y="-287.5" font-family="Helvetica,sans-Serif" font-size="10.00">pflib/Compile.h</text>
</a>
</g>
</g>
<!-- Node2&#45;&gt;Node33 -->
<g id="edge53" class="edge">
<title>Node2&#45;&gt;Node33</title>
<path fill="none" stroke="midnightblue" d="M1128.49,-448.08C1124.09,-421.95 1111.14,-345.21 1105.13,-309.58"/>
<polygon fill="midnightblue" stroke="midnightblue" points="1108.56,-308.85 1103.45,-299.57 1101.66,-310.01 1108.56,-308.85"/>
</g>
<!-- Node34 -->
<g id="node34" class="node">
<title>Node34</title>
<g id="a_node34"><a xlink:href="Menu_8h_source.html" target="_top" xlink:title=" ">
<polygon fill="none" stroke="black" points="335.5,-392.5 335.5,-411.5 388.5,-411.5 388.5,-392.5 335.5,-392.5"/>
<text text-anchor="middle" x="362" y="-399.5" font-family="Helvetica,sans-Serif" font-size="10.00">Menu.h</text>
</a>
</g>
</g>
<!-- Node2&#45;&gt;Node34 -->
<g id="edge57" class="edge">
<title>Node2&#45;&gt;Node34</title>
<path fill="none" stroke="midnightblue" d="M1103.12,-455.11C987.44,-446.98 531.95,-414.95 398.76,-405.58"/>
<polygon fill="midnightblue" stroke="midnightblue" points="398.89,-402.08 388.67,-404.87 398.39,-409.07 398.89,-402.08"/>
</g>
<!-- Node37 -->
<g id="node37" class="node">
<title>Node37</title>
<g id="a_node37"><a xlink:href="Rcfile_8h_source.html" target="_top" xlink:title=" ">
<polygon fill="none" stroke="black" points="97.5,-224.5 97.5,-243.5 150.5,-243.5 150.5,-224.5 97.5,-224.5"/>
<text text-anchor="middle" x="124" y="-231.5" font-family="Helvetica,sans-Serif" font-size="10.00">Rcfile.h</text>
</a>
</g>
</g>
<!-- Node2&#45;&gt;Node37 -->
<g id="edge67" class="edge">
<title>Node2&#45;&gt;Node37</title>
<path fill="none" stroke="midnightblue" d="M1103.46,-457.17C968.45,-457.82 357.08,-458.11 174,-412 118.1,-397.92 87.73,-404.78 57,-356 33.68,-318.99 77.47,-273.39 104.67,-250.16"/>
<polygon fill="midnightblue" stroke="midnightblue" points="107.01,-252.77 112.49,-243.7 102.55,-247.37 107.01,-252.77"/>
</g>
<!-- Node15&#45;&gt;Node13 -->
<g id="edge18" class="edge">
<title>Node15&#45;&gt;Node13</title>
<path fill="none" stroke="midnightblue" d="M845.7,-392.45C875.75,-385.94 912.42,-374.77 941,-356 979.18,-330.93 1078,-199.79 1078,-179 1078,-179 1078,-179 1078,-121 1078,-45.63 489.51,-17.88 344.16,-12.17"/>
<polygon fill="midnightblue" stroke="midnightblue" points="344.23,-8.67 334.1,-11.78 343.96,-15.67 344.23,-8.67"/>
</g>
<!-- Node16 -->
<g id="node16" class="node">
<title>Node16</title>
<g id="a_node16"><a xlink:title=" ">
<polygon fill="none" stroke="#bfbfbf" points="720.5,-336.5 720.5,-355.5 777.5,-355.5 777.5,-336.5 720.5,-336.5"/>
<text text-anchor="middle" x="749" y="-343.5" font-family="Helvetica,sans-Serif" font-size="10.00">ostream</text>
</a>
</g>
</g>
<!-- Node15&#45;&gt;Node16 -->
<g id="edge15" class="edge">
<title>Node15&#45;&gt;Node16</title>
<path fill="none" stroke="midnightblue" d="M783.23,-392.08C777.44,-384.46 768.94,-373.26 761.86,-363.94"/>
<polygon fill="midnightblue" stroke="midnightblue" points="764.48,-361.6 755.64,-355.75 758.9,-365.83 764.48,-361.6"/>
</g>
<!-- Node17 -->
<g id="node17" class="node">
<title>Node17</title>
<g id="a_node17"><a xlink:title=" ">
<polygon fill="none" stroke="#bfbfbf" points="606,-336.5 606,-355.5 664,-355.5 664,-336.5 606,-336.5"/>
<text text-anchor="middle" x="635" y="-343.5" font-family="Helvetica,sans-Serif" font-size="10.00">memory</text>
</a>
</g>
</g>
<!-- Node15&#45;&gt;Node17 -->
<g id="edge16" class="edge">
<title>Node15&#45;&gt;Node17</title>
<path fill="none" stroke="midnightblue" d="M765.44,-392.44C739.48,-383.4 698.33,-369.06 669.2,-358.92"/>
<polygon fill="midnightblue" stroke="midnightblue" points="670.04,-355.5 659.45,-355.52 667.74,-362.11 670.04,-355.5"/>
</g>
<!-- Node18 -->
<g id="node18" class="node">
<title>Node18</title>
<g id="a_node18"><a xlink:title=" ">
<polygon fill="none" stroke="#bfbfbf" points="522.5,-336.5 522.5,-355.5 587.5,-355.5 587.5,-336.5 522.5,-336.5"/>
<text text-anchor="middle" x="555" y="-343.5" font-family="Helvetica,sans-Serif" font-size="10.00">functional</text>
</a>
</g>
</g>
<!-- Node15&#45;&gt;Node18 -->
<g id="edge17" class="edge">
<title>Node15&#45;&gt;Node18</title>
<path fill="none" stroke="midnightblue" d="M752.76,-392.44C710.5,-382.73 641.7,-366.92 597.4,-356.74"/>
<polygon fill="midnightblue" stroke="midnightblue" points="598.05,-353.3 587.52,-354.47 596.48,-360.12 598.05,-353.3"/>
</g>
<!-- Node19 -->
<g id="node19" class="node">
<title>Node19</title>
<g id="a_node19"><a xlink:href="WishboneInterface_8h_source.html" target="_top" xlink:title=" ">
<polygon fill="none" stroke="black" points="357.5,-112.5 357.5,-131.5 498.5,-131.5 498.5,-112.5 357.5,-112.5"/>
<text text-anchor="middle" x="428" y="-119.5" font-family="Helvetica,sans-Serif" font-size="10.00">pflib/WishboneInterface.h</text>
</a>
</g>
</g>
<!-- Node15&#45;&gt;Node19 -->
<g id="edge19" class="edge">
<title>Node15&#45;&gt;Node19</title>
<path fill="none" stroke="midnightblue" d="M827.46,-392.5C871.18,-380.33 941.4,-353.27 972,-300 991.94,-265.28 933.06,-228.18 927,-224 860.84,-178.32 833.35,-186 755,-168 671.99,-148.94 575.15,-136.84 508.52,-130.05"/>
<polygon fill="midnightblue" stroke="midnightblue" points="508.8,-126.56 498.5,-129.04 508.1,-133.52 508.8,-126.56"/>
</g>
<!-- Node22 -->
<g id="node22" class="node">
<title>Node22</title>
<g id="a_node22"><a xlink:href="Backend_8h_source.html" target="_top" xlink:title=" ">
<polygon fill="none" stroke="black" points="245.5,-224.5 245.5,-243.5 336.5,-243.5 336.5,-224.5 245.5,-224.5"/>
<text text-anchor="middle" x="291" y="-231.5" font-family="Helvetica,sans-Serif" font-size="10.00">pflib/Backend.h</text>
</a>
</g>
</g>
<!-- Node15&#45;&gt;Node22 -->
<g id="edge24" class="edge">
<title>Node15&#45;&gt;Node22</title>
<path fill="none" stroke="midnightblue" d="M775.03,-392.41C745.89,-375.73 683.51,-340.23 673,-336 611.64,-311.29 425.92,-266.49 338.05,-245.89"/>
<polygon fill="midnightblue" stroke="midnightblue" points="338.62,-242.43 328.08,-243.56 337.02,-249.25 338.62,-242.43"/>
</g>
<!-- Node24 -->
<g id="node24" class="node">
<title>Node24</title>
<g id="a_node24"><a xlink:href="Hcal_8h_source.html" target="_top" xlink:title=" ">
<polygon fill="none" stroke="black" points="795.5,-336.5 795.5,-355.5 866.5,-355.5 866.5,-336.5 795.5,-336.5"/>
<text text-anchor="middle" x="831" y="-343.5" font-family="Helvetica,sans-Serif" font-size="10.00">pflib/Hcal.h</text>
</a>
</g>
</g>
<!-- Node15&#45;&gt;Node24 -->
<g id="edge28" class="edge">
<title>Node15&#45;&gt;Node24</title>
<path fill="none" stroke="midnightblue" d="M796.77,-392.08C802.56,-384.46 811.06,-373.26 818.14,-363.94"/>
<polygon fill="midnightblue" stroke="midnightblue" points="821.1,-365.83 824.36,-355.75 815.52,-361.6 821.1,-365.83"/>
</g>
<!-- Node20 -->
<g id="node20" class="node">
<title>Node20</title>
<g id="a_node20"><a xlink:href="Exception_8h_source.html" target="_top" xlink:title=" ">
<polygon fill="none" stroke="black" points="263,-56.5 263,-75.5 361,-75.5 361,-56.5 263,-56.5"/>
<text text-anchor="middle" x="312" y="-63.5" font-family="Helvetica,sans-Serif" font-size="10.00">pflib/Exception.h</text>
</a>
</g>
</g>
<!-- Node19&#45;&gt;Node20 -->
<g id="edge20" class="edge">
<title>Node19&#45;&gt;Node20</title>
<path fill="none" stroke="midnightblue" d="M409.62,-112.44C390.78,-103.68 361.27,-89.94 339.62,-79.86"/>
<polygon fill="midnightblue" stroke="midnightblue" points="340.84,-76.56 330.29,-75.52 337.88,-82.91 340.84,-76.56"/>
</g>
<!-- Node21 -->
<g id="node21" class="node">
<title>Node21</title>
<g id="a_node21"><a xlink:title=" ">
<polygon fill="none" stroke="#bfbfbf" points="390.5,-56.5 390.5,-75.5 443.5,-75.5 443.5,-56.5 390.5,-56.5"/>
<text text-anchor="middle" x="417" y="-63.5" font-family="Helvetica,sans-Serif" font-size="10.00">stdint.h</text>
</a>
</g>
</g>
<!-- Node19&#45;&gt;Node21 -->
<g id="edge23" class="edge">
<title>Node19&#45;&gt;Node21</title>
<path fill="none" stroke="midnightblue" d="M426.18,-112.08C424.73,-104.93 422.63,-94.64 420.81,-85.69"/>
<polygon fill="midnightblue" stroke="midnightblue" points="424.21,-84.85 418.78,-75.75 417.35,-86.25 424.21,-84.85"/>
</g>
<!-- Node20&#45;&gt;Node13 -->
<g id="edge22" class="edge">
<title>Node20&#45;&gt;Node13</title>
<path fill="none" stroke="midnightblue" d="M312,-56.08C312,-49.01 312,-38.86 312,-29.99"/>
<polygon fill="midnightblue" stroke="midnightblue" points="315.5,-29.75 312,-19.75 308.5,-29.75 315.5,-29.75"/>
</g>
<!-- Node20&#45;&gt;Node14 -->
<g id="edge21" class="edge">
<title>Node20&#45;&gt;Node14</title>
<path fill="none" stroke="midnightblue" d="M361.32,-58.53C368.26,-57.66 375.31,-56.79 382,-56 518.25,-39.87 679.88,-23.05 755.29,-15.33"/>
<polygon fill="midnightblue" stroke="midnightblue" points="755.75,-18.8 765.35,-14.31 755.04,-11.84 755.75,-18.8"/>
</g>
<!-- Node22&#45;&gt;Node20 -->
<g id="edge25" class="edge">
<title>Node22&#45;&gt;Node20</title>
<path fill="none" stroke="midnightblue" d="M292.13,-224.08C295.43,-197.95 305.14,-121.21 309.65,-85.58"/>
<polygon fill="midnightblue" stroke="midnightblue" points="313.13,-85.93 310.92,-75.57 306.19,-85.05 313.13,-85.93"/>
</g>
<!-- Node22&#45;&gt;Node21 -->
<g id="edge26" class="edge">
<title>Node22&#45;&gt;Node21</title>
<path fill="none" stroke="midnightblue" d="M294.83,-224.33C306.44,-198.18 340.89,-121.31 349,-112 360.33,-98.99 376.29,-88.17 389.89,-80.4"/>
<polygon fill="midnightblue" stroke="midnightblue" points="391.75,-83.38 398.85,-75.52 388.4,-77.23 391.75,-83.38"/>
</g>
<!-- Node23 -->
<g id="node23" class="node">
<title>Node23</title>
<g id="a_node23"><a xlink:title=" ">
<polygon fill="none" stroke="#bfbfbf" points="548.5,-168.5 548.5,-187.5 595.5,-187.5 595.5,-168.5 548.5,-168.5"/>
<text text-anchor="middle" x="572" y="-175.5" font-family="Helvetica,sans-Serif" font-size="10.00">vector</text>
</a>
</g>
</g>
<!-- Node22&#45;&gt;Node23 -->
<g id="edge27" class="edge">
<title>Node22&#45;&gt;Node23</title>
<path fill="none" stroke="midnightblue" d="M335.53,-224.44C391.87,-213.62 487.67,-195.21 538.31,-185.47"/>
<polygon fill="midnightblue" stroke="midnightblue" points="539.24,-188.86 548.4,-183.54 537.92,-181.99 539.24,-188.86"/>
</g>
<!-- Node25 -->
<g id="node25" class="node">
<title>Node25</title>
<g id="a_node25"><a xlink:href="ROC_8h_source.html" target="_top" xlink:title=" ">
<polygon fill="none" stroke="black" points="891.5,-280.5 891.5,-299.5 962.5,-299.5 962.5,-280.5 891.5,-280.5"/>
<text text-anchor="middle" x="927" y="-287.5" font-family="Helvetica,sans-Serif" font-size="10.00">pflib/ROC.h</text>
</a>
</g>
</g>
<!-- Node24&#45;&gt;Node25 -->
<g id="edge29" class="edge">
<title>Node24&#45;&gt;Node25</title>
<path fill="none" stroke="midnightblue" d="M846.42,-336.32C861.54,-327.82 884.82,-314.73 902.47,-304.8"/>
<polygon fill="midnightblue" stroke="midnightblue" points="904.61,-307.61 911.61,-299.65 901.18,-301.51 904.61,-307.61"/>
</g>
<!-- Node26 -->
<g id="node26" class="node">
<title>Node26</title>
<g id="a_node26"><a xlink:href="I2C_8h_source.html" target="_top" xlink:title=" ">
<polygon fill="none" stroke="black" points="832.5,-224.5 832.5,-243.5 897.5,-243.5 897.5,-224.5 832.5,-224.5"/>
<text text-anchor="middle" x="865" y="-231.5" font-family="Helvetica,sans-Serif" font-size="10.00">pflib/I2C.h</text>
</a>
</g>
</g>
<!-- Node24&#45;&gt;Node26 -->
<g id="edge37" class="edge">
<title>Node24&#45;&gt;Node26</title>
<path fill="none" stroke="midnightblue" d="M833.67,-336.37C839.18,-318.54 851.93,-277.3 859.35,-253.27"/>
<polygon fill="midnightblue" stroke="midnightblue" points="862.74,-254.18 862.34,-243.59 856.05,-252.11 862.74,-254.18"/>
</g>
<!-- Node28 -->
<g id="node28" class="node">
<title>Node28</title>
<g id="a_node28"><a xlink:href="Bias_8h_source.html" target="_top" xlink:title=" ">
<polygon fill="none" stroke="black" points="763.5,-280.5 763.5,-299.5 834.5,-299.5 834.5,-280.5 763.5,-280.5"/>
<text text-anchor="middle" x="799" y="-287.5" font-family="Helvetica,sans-Serif" font-size="10.00">pflib/Bias.h</text>
</a>
</g>
</g>
<!-- Node24&#45;&gt;Node28 -->
<g id="edge38" class="edge">
<title>Node24&#45;&gt;Node28</title>
<path fill="none" stroke="midnightblue" d="M825.72,-336.08C821.29,-328.61 814.84,-317.72 809.38,-308.52"/>
<polygon fill="midnightblue" stroke="midnightblue" points="812.29,-306.57 804.19,-299.75 806.27,-310.14 812.29,-306.57"/>
</g>
<!-- Node29 -->
<g id="node29" class="node">
<title>Node29</title>
<g id="a_node29"><a xlink:href="Elinks_8h_source.html" target="_top" xlink:title=" ">
<polygon fill="none" stroke="black" points="642.5,-224.5 642.5,-243.5 721.5,-243.5 721.5,-224.5 642.5,-224.5"/>
<text text-anchor="middle" x="682" y="-231.5" font-family="Helvetica,sans-Serif" font-size="10.00">pflib/Elinks.h</text>
</a>
</g>
</g>
<!-- Node24&#45;&gt;Node29 -->
<g id="edge41" class="edge">
<title>Node24&#45;&gt;Node29</title>
<path fill="none" stroke="midnightblue" d="M811.36,-336.49C793.7,-328.39 767.46,-315.19 747,-300 727.69,-285.66 708.58,-265.68 696.14,-251.66"/>
<polygon fill="midnightblue" stroke="midnightblue" points="698.51,-249.06 689.31,-243.81 693.23,-253.65 698.51,-249.06"/>
</g>
<!-- Node30 -->
<g id="node30" class="node">
<title>Node30</title>
<g id="a_node30"><a xlink:href="GPIO_8h_source.html" target="_top" xlink:title=" ">
<polygon fill="none" stroke="black" points="740,-224.5 740,-243.5 814,-243.5 814,-224.5 740,-224.5"/>
<text text-anchor="middle" x="777" y="-231.5" font-family="Helvetica,sans-Serif" font-size="10.00">pflib/GPIO.h</text>
</a>
</g>
</g>
<!-- Node24&#45;&gt;Node30 -->
<g id="edge44" class="edge">
<title>Node24&#45;&gt;Node30</title>
<path fill="none" stroke="midnightblue" d="M802.98,-336.4C785.83,-329.51 765.25,-317.98 755,-300 746.37,-284.86 754.78,-265.81 763.58,-252.25"/>
<polygon fill="midnightblue" stroke="midnightblue" points="766.6,-254.04 769.53,-243.86 760.89,-249.99 766.6,-254.04"/>
</g>
<!-- Node31 -->
<g id="node31" class="node">
<title>Node31</title>
<g id="a_node31"><a xlink:href="FastControl_8h_source.html" target="_top" xlink:title=" ">
<polygon fill="none" stroke="black" points="520,-224.5 520,-243.5 624,-243.5 624,-224.5 520,-224.5"/>
<text text-anchor="middle" x="572" y="-231.5" font-family="Helvetica,sans-Serif" font-size="10.00">pflib/FastControl.h</text>
</a>
</g>
</g>
<!-- Node24&#45;&gt;Node31 -->
<g id="edge47" class="edge">
<title>Node24&#45;&gt;Node31</title>
<path fill="none" stroke="midnightblue" d="M809.02,-336.43C786.37,-327.53 750.09,-313.11 719,-300 677.42,-282.46 629.71,-261.14 600.21,-247.82"/>
<polygon fill="midnightblue" stroke="midnightblue" points="601.49,-244.56 590.94,-243.62 598.61,-250.93 601.49,-244.56"/>
</g>
<!-- Node32 -->
<g id="node32" class="node">
<title>Node32</title>
<g id="a_node32"><a xlink:href="DAQ_8h_source.html" target="_top" xlink:title=" ">
<polygon fill="none" stroke="black" points="354.5,-224.5 354.5,-243.5 425.5,-243.5 425.5,-224.5 354.5,-224.5"/>
<text text-anchor="middle" x="390" y="-231.5" font-family="Helvetica,sans-Serif" font-size="10.00">pflib/DAQ.h</text>
</a>
</g>
</g>
<!-- Node24&#45;&gt;Node32 -->
<g id="edge50" class="edge">
<title>Node24&#45;&gt;Node32</title>
<path fill="none" stroke="midnightblue" d="M796.76,-336.46C717.63,-316.72 522.12,-267.96 434.15,-246.01"/>
<polygon fill="midnightblue" stroke="midnightblue" points="434.77,-242.56 424.22,-243.53 433.07,-249.35 434.77,-242.56"/>
</g>
<!-- Node25&#45;&gt;Node10 -->
<g id="edge35" class="edge">
<title>Node25&#45;&gt;Node10</title>
<path fill="none" stroke="midnightblue" d="M962.59,-280.86C1009.34,-270.16 1090.56,-251.58 1133.86,-241.67"/>
<polygon fill="midnightblue" stroke="midnightblue" points="1134.79,-245.05 1143.75,-239.4 1133.23,-238.22 1134.79,-245.05"/>
</g>
<!-- Node25&#45;&gt;Node13 -->
<g id="edge36" class="edge">
<title>Node25&#45;&gt;Node13</title>
<path fill="none" stroke="midnightblue" d="M931.99,-280.49C942.09,-262.44 964,-218.69 964,-179 964,-179 964,-179 964,-121 964,-57.43 475.79,-21.51 344.29,-12.99"/>
<polygon fill="midnightblue" stroke="midnightblue" points="344.27,-9.48 334.07,-12.34 343.82,-16.47 344.27,-9.48"/>
</g>
<!-- Node25&#45;&gt;Node23 -->
<g id="edge34" class="edge">
<title>Node25&#45;&gt;Node23</title>
<path fill="none" stroke="midnightblue" d="M927.11,-280.24C926.77,-266.02 923.85,-238.08 907,-224 855.82,-181.22 674.63,-199.9 609,-188 607.93,-187.81 606.84,-187.6 605.74,-187.38"/>
<polygon fill="midnightblue" stroke="midnightblue" points="606.31,-183.92 595.8,-185.23 604.83,-190.77 606.31,-183.92"/>
</g>
<!-- Node25&#45;&gt;Node26 -->
<g id="edge30" class="edge">
<title>Node25&#45;&gt;Node26</title>
<path fill="none" stroke="midnightblue" d="M917.04,-280.32C907.87,-272.34 894.06,-260.31 882.97,-250.65"/>
<polygon fill="midnightblue" stroke="midnightblue" points="884.98,-247.76 875.14,-243.83 880.38,-253.04 884.98,-247.76"/>
</g>
<!-- Node26&#45;&gt;Node23 -->
<g id="edge33" class="edge">
<title>Node26&#45;&gt;Node23</title>
<path fill="none" stroke="midnightblue" d="M832.47,-225.88C829.27,-225.23 826.08,-224.59 823,-224 728.27,-205.89 703.47,-207.41 609,-188 607.93,-187.78 606.85,-187.55 605.75,-187.32"/>
<polygon fill="midnightblue" stroke="midnightblue" points="606.35,-183.86 595.83,-185.06 604.8,-190.69 606.35,-183.86"/>
</g>
<!-- Node27 -->
<g id="node27" class="node">
<title>Node27</title>
<g id="a_node27"><a xlink:href="WishboneTarget_8h_source.html" target="_top" xlink:title=" ">
<polygon fill="none" stroke="black" points="618,-168.5 618,-187.5 746,-187.5 746,-168.5 618,-168.5"/>
<text text-anchor="middle" x="682" y="-175.5" font-family="Helvetica,sans-Serif" font-size="10.00">pflib/WishboneTarget.h</text>
</a>
</g>
</g>
<!-- Node26&#45;&gt;Node27 -->
<g id="edge31" class="edge">
<title>Node26&#45;&gt;Node27</title>
<path fill="none" stroke="midnightblue" d="M836,-224.44C804.82,-215.24 755.07,-200.56 720.59,-190.39"/>
<polygon fill="midnightblue" stroke="midnightblue" points="721.44,-186.99 710.86,-187.52 719.46,-193.7 721.44,-186.99"/>
</g>
<!-- Node27&#45;&gt;Node19 -->
<g id="edge32" class="edge">
<title>Node27&#45;&gt;Node19</title>
<path fill="none" stroke="midnightblue" d="M641.75,-168.44C597.35,-159 525.85,-143.8 477.91,-133.61"/>
<polygon fill="midnightblue" stroke="midnightblue" points="478.57,-130.17 468.06,-131.52 477.11,-137.02 478.57,-130.17"/>
</g>
<!-- Node28&#45;&gt;Node23 -->
<g id="edge40" class="edge">
<title>Node28&#45;&gt;Node23</title>
<path fill="none" stroke="midnightblue" d="M763.47,-288.94C693.78,-287.99 543.12,-281.53 511,-244 495.19,-225.52 521.77,-205.24 544.66,-192.33"/>
<polygon fill="midnightblue" stroke="midnightblue" points="546.32,-195.41 553.47,-187.6 543.01,-189.24 546.32,-195.41"/>
</g>
<!-- Node28&#45;&gt;Node26 -->
<g id="edge39" class="edge">
<title>Node28&#45;&gt;Node26</title>
<path fill="none" stroke="midnightblue" d="M809.6,-280.32C819.46,-272.26 834.35,-260.08 846.22,-250.37"/>
<polygon fill="midnightblue" stroke="midnightblue" points="848.68,-252.88 854.2,-243.83 844.25,-247.46 848.68,-252.88"/>
</g>
<!-- Node29&#45;&gt;Node23 -->
<g id="edge43" class="edge">
<title>Node29&#45;&gt;Node23</title>
<path fill="none" stroke="midnightblue" d="M664.33,-224.32C646.61,-215.62 619.1,-202.12 598.71,-192.11"/>
<polygon fill="midnightblue" stroke="midnightblue" points="600.15,-188.92 589.63,-187.65 597.06,-195.2 600.15,-188.92"/>
</g>
<!-- Node29&#45;&gt;Node27 -->
<g id="edge42" class="edge">
<title>Node29&#45;&gt;Node27</title>
<path fill="none" stroke="midnightblue" d="M682,-224.08C682,-217.01 682,-206.86 682,-197.99"/>
<polygon fill="midnightblue" stroke="midnightblue" points="685.5,-197.75 682,-187.75 678.5,-197.75 685.5,-197.75"/>
</g>
<!-- Node30&#45;&gt;Node23 -->
<g id="edge46" class="edge">
<title>Node30&#45;&gt;Node23</title>
<path fill="none" stroke="midnightblue" d="M744.52,-224.44C706.48,-214.42 643.81,-197.92 605.39,-187.79"/>
<polygon fill="midnightblue" stroke="midnightblue" points="606.26,-184.41 595.7,-185.24 604.48,-191.18 606.26,-184.41"/>
</g>
<!-- Node30&#45;&gt;Node27 -->
<g id="edge45" class="edge">
<title>Node30&#45;&gt;Node27</title>
<path fill="none" stroke="midnightblue" d="M761.74,-224.32C746.78,-215.82 723.75,-202.73 706.27,-192.8"/>
<polygon fill="midnightblue" stroke="midnightblue" points="707.65,-189.55 697.23,-187.65 704.19,-195.64 707.65,-189.55"/>
</g>
<!-- Node31&#45;&gt;Node23 -->
<g id="edge49" class="edge">
<title>Node31&#45;&gt;Node23</title>
<path fill="none" stroke="midnightblue" d="M572,-224.08C572,-217.01 572,-206.86 572,-197.99"/>
<polygon fill="midnightblue" stroke="midnightblue" points="575.5,-197.75 572,-187.75 568.5,-197.75 575.5,-197.75"/>
</g>
<!-- Node31&#45;&gt;Node27 -->
<g id="edge48" class="edge">
<title>Node31&#45;&gt;Node27</title>
<path fill="none" stroke="midnightblue" d="M589.67,-224.32C607.39,-215.62 634.9,-202.12 655.29,-192.11"/>
<polygon fill="midnightblue" stroke="midnightblue" points="656.94,-195.2 664.37,-187.65 653.85,-188.92 656.94,-195.2"/>
</g>
<!-- Node32&#45;&gt;Node19 -->
<g id="edge52" class="edge">
<title>Node32&#45;&gt;Node19</title>
<path fill="none" stroke="midnightblue" d="M392.98,-224.37C399.14,-206.54 413.39,-165.3 421.69,-141.27"/>
<polygon fill="midnightblue" stroke="midnightblue" points="425.07,-142.19 425.03,-131.59 418.46,-139.9 425.07,-142.19"/>
</g>
<!-- Node32&#45;&gt;Node23 -->
<g id="edge51" class="edge">
<title>Node32&#45;&gt;Node23</title>
<path fill="none" stroke="midnightblue" d="M418.84,-224.44C451.27,-214.82 503.87,-199.21 538.2,-189.03"/>
<polygon fill="midnightblue" stroke="midnightblue" points="539.64,-192.25 548.23,-186.05 537.64,-185.54 539.64,-192.25"/>
</g>
<!-- Node33&#45;&gt;Node10 -->
<g id="edge54" class="edge">
<title>Node33&#45;&gt;Node10</title>
<path fill="none" stroke="midnightblue" d="M1111.8,-280.32C1120.82,-272.34 1134.41,-260.31 1145.32,-250.65"/>
<polygon fill="midnightblue" stroke="midnightblue" points="1147.85,-253.08 1153.02,-243.83 1143.21,-247.84 1147.85,-253.08"/>
</g>
<!-- Node33&#45;&gt;Node13 -->
<g id="edge55" class="edge">
<title>Node33&#45;&gt;Node13</title>
<path fill="none" stroke="midnightblue" d="M1103.83,-280.49C1107.63,-262.07 1116,-217.12 1116,-179 1116,-179 1116,-179 1116,-121 1116,-90.2 1116.75,-74.33 1092,-56 1061.52,-33.43 488.86,-15.95 344.71,-11.89"/>
<polygon fill="midnightblue" stroke="midnightblue" points="344.43,-8.38 334.34,-11.6 344.24,-15.38 344.43,-8.38"/>
</g>
<!-- Node33&#45;&gt;Node23 -->
<g id="edge56" class="edge">
<title>Node33&#45;&gt;Node23</title>
<path fill="none" stroke="midnightblue" d="M1083.56,-280.44C1052.16,-266.26 985.95,-238.06 927,-224 788.65,-190.99 749.05,-212.86 609,-188 607.93,-187.81 606.84,-187.61 605.74,-187.39"/>
<polygon fill="midnightblue" stroke="midnightblue" points="606.3,-183.93 595.79,-185.25 604.83,-190.78 606.3,-183.93"/>
</g>
<!-- Node34&#45;&gt;Node3 -->
<g id="edge58" class="edge">
<title>Node34&#45;&gt;Node3</title>
<path fill="none" stroke="midnightblue" d="M335.21,-396.55C292.89,-389.39 207.75,-374.43 126.13,-356.13"/>
<polygon fill="midnightblue" stroke="midnightblue" points="126.73,-352.68 116.2,-353.88 125.18,-359.5 126.73,-352.68"/>
</g>
<!-- Node34&#45;&gt;Node8 -->
<g id="edge64" class="edge">
<title>Node34&#45;&gt;Node8</title>
<path fill="none" stroke="midnightblue" d="M335.3,-393.72C301.5,-384.5 243,-368.55 203.9,-357.88"/>
<polygon fill="midnightblue" stroke="midnightblue" points="204.73,-354.48 194.16,-355.23 202.89,-361.23 204.73,-354.48"/>
</g>
<!-- Node34&#45;&gt;Node11 -->
<g id="edge65" class="edge">
<title>Node34&#45;&gt;Node11</title>
<path fill="none" stroke="midnightblue" d="M342.67,-392.44C322.68,-383.6 291.26,-369.69 268.44,-359.59"/>
<polygon fill="midnightblue" stroke="midnightblue" points="269.8,-356.36 259.24,-355.52 266.97,-362.76 269.8,-356.36"/>
</g>
<!-- Node34&#45;&gt;Node13 -->
<g id="edge61" class="edge">
<title>Node34&#45;&gt;Node13</title>
<path fill="none" stroke="midnightblue" d="M352.16,-392.32C314.15,-358.41 179,-233.94 179,-179 179,-179 179,-179 179,-121 179,-68.65 240.93,-36.53 280.28,-21.4"/>
<polygon fill="midnightblue" stroke="midnightblue" points="281.56,-24.65 289.74,-17.92 279.15,-18.08 281.56,-24.65"/>
</g>
<!-- Node34&#45;&gt;Node18 -->
<g id="edge63" class="edge">
<title>Node34&#45;&gt;Node18</title>
<path fill="none" stroke="midnightblue" d="M388.84,-393.49C421.54,-384.34 477.11,-368.79 514.9,-358.22"/>
<polygon fill="midnightblue" stroke="midnightblue" points="515.89,-361.58 524.58,-355.51 514.01,-354.84 515.89,-361.58"/>
</g>
<!-- Node34&#45;&gt;Node20 -->
<g id="edge66" class="edge">
<title>Node34&#45;&gt;Node20</title>
<path fill="none" stroke="midnightblue" d="M388.72,-396.74C429.13,-389.09 498.7,-370.52 475,-336 410.58,-242.17 300.42,-337.83 236,-244 199.01,-190.12 262.79,-115.35 295.04,-82.98"/>
<polygon fill="midnightblue" stroke="midnightblue" points="297.78,-85.2 302.48,-75.71 292.88,-80.2 297.78,-85.2"/>
</g>
<!-- Node34&#45;&gt;Node23 -->
<g id="edge62" class="edge">
<title>Node34&#45;&gt;Node23</title>
<path fill="none" stroke="midnightblue" d="M358.07,-392.49C352.72,-379.56 344.79,-354.53 354,-336 392.16,-259.26 487.85,-211.8 538.83,-191.12"/>
<polygon fill="midnightblue" stroke="midnightblue" points="540.38,-194.27 548.4,-187.34 537.81,-187.76 540.38,-194.27"/>
</g>
<!-- Node35 -->
<g id="node35" class="node">
<title>Node35</title>
<g id="a_node35"><a xlink:title=" ">
<polygon fill="none" stroke="#bfbfbf" points="362.5,-336.5 362.5,-355.5 415.5,-355.5 415.5,-336.5 362.5,-336.5"/>
<text text-anchor="middle" x="389" y="-343.5" font-family="Helvetica,sans-Serif" font-size="10.00">string.h</text>
</a>
</g>
</g>
<!-- Node34&#45;&gt;Node35 -->
<g id="edge59" class="edge">
<title>Node34&#45;&gt;Node35</title>
<path fill="none" stroke="midnightblue" d="M366.46,-392.08C370.15,-384.69 375.52,-373.95 380.09,-364.81"/>
<polygon fill="midnightblue" stroke="midnightblue" points="383.28,-366.26 384.62,-355.75 377.02,-363.13 383.28,-366.26"/>
</g>
<!-- Node36 -->
<g id="node36" class="node">
<title>Node36</title>
<g id="a_node36"><a xlink:title=" ">
<polygon fill="none" stroke="#bfbfbf" points="434,-336.5 434,-355.5 466,-355.5 466,-336.5 434,-336.5"/>
<text text-anchor="middle" x="450" y="-343.5" font-family="Helvetica,sans-Serif" font-size="10.00">list</text>
</a>
</g>
</g>
<!-- Node34&#45;&gt;Node36 -->
<g id="edge60" class="edge">
<title>Node34&#45;&gt;Node36</title>
<path fill="none" stroke="midnightblue" d="M376.14,-392.32C389.87,-383.9 410.94,-370.97 427.06,-361.07"/>
<polygon fill="midnightblue" stroke="midnightblue" points="429.2,-363.87 435.9,-355.65 425.54,-357.9 429.2,-363.87"/>
</g>
<!-- Node37&#45;&gt;Node13 -->
<g id="edge68" class="edge">
<title>Node37&#45;&gt;Node13</title>
<path fill="none" stroke="midnightblue" d="M123.23,-224.26C121.24,-195.88 118.95,-105.36 165,-56 194.65,-24.21 246.08,-14.66 279.57,-11.91"/>
<polygon fill="midnightblue" stroke="midnightblue" points="280.01,-15.39 289.76,-11.24 279.55,-8.41 280.01,-15.39"/>
</g>
<!-- Node37&#45;&gt;Node23 -->
<g id="edge69" class="edge">
<title>Node37&#45;&gt;Node23</title>
<path fill="none" stroke="midnightblue" d="M150.68,-229.78C228.17,-220.44 453.09,-193.33 538.54,-183.03"/>
<polygon fill="midnightblue" stroke="midnightblue" points="538.97,-186.51 548.48,-181.84 538.13,-179.56 538.97,-186.51"/>
</g>
</g>
</svg>
