<?xml version="1.0" encoding="UTF-8" standalone="no"?>
<!DOCTYPE svg PUBLIC "-//W3C//DTD SVG 1.1//EN"
 "http://www.w3.org/Graphics/SVG/1.1/DTD/svg11.dtd">
<!-- Generated by graphviz version 2.43.0 (0)
 -->
<!-- Title: tool/pftool.cc Pages: 1 -->
<svg width="1613pt" height="487pt"
 viewBox="0.00 0.00 1613.46 487.00" xmlns="http://www.w3.org/2000/svg" xmlns:xlink="http://www.w3.org/1999/xlink">
<g id="graph0" class="graph" transform="scale(1 1) rotate(0) translate(4 483)">
<title>tool/pftool.cc</title>
<!-- Node1 -->
<g id="node1" class="node">
<title>Node1</title>
<g id="a_node1"><a xlink:title="File defining the pftool menus and their commands.">
<polygon fill="#bfbfbf" stroke="black" points="481.46,-459.5 481.46,-478.5 561.46,-478.5 561.46,-459.5 481.46,-459.5"/>
<text text-anchor="middle" x="521.46" y="-466.5" font-family="Helvetica,sans-Serif" font-size="10.00">tool/pftool.cc</text>
</a>
</g>
</g>
<!-- Node2 -->
<g id="node2" class="node">
<title>Node2</title>
<g id="a_node2"><a xlink:title=" ">
<polygon fill="none" stroke="#bfbfbf" points="314.46,-342 314.46,-361 364.46,-361 364.46,-342 314.46,-342"/>
<text text-anchor="middle" x="339.46" y="-349" font-family="Helvetica,sans-Serif" font-size="10.00">stdio.h</text>
</a>
</g>
</g>
<!-- Node1&#45;&gt;Node2 -->
<g id="edge1" class="edge">
<title>Node1&#45;&gt;Node2</title>
<path fill="none" stroke="midnightblue" d="M481.42,-464.84C448.7,-460.34 403.02,-449.43 372.46,-423 356.85,-409.5 348.12,-387.01 343.62,-371.06"/>
<polygon fill="midnightblue" stroke="midnightblue" points="346.98,-370.1 341.14,-361.26 340.2,-371.81 346.98,-370.1"/>
</g>
<!-- Node3 -->
<g id="node3" class="node">
<title>Node3</title>
<g id="a_node3"><a xlink:title=" ">
<polygon fill="none" stroke="#bfbfbf" points="29.96,-403.5 29.96,-422.5 82.96,-422.5 82.96,-403.5 29.96,-403.5"/>
<text text-anchor="middle" x="56.46" y="-410.5" font-family="Helvetica,sans-Serif" font-size="10.00">stdlib.h</text>
</a>
</g>
</g>
<!-- Node1&#45;&gt;Node3 -->
<g id="edge2" class="edge">
<title>Node1&#45;&gt;Node3</title>
<path fill="none" stroke="midnightblue" d="M481.28,-465.67C406.73,-460.95 241.87,-448.6 93.32,-422.9"/>
<polygon fill="midnightblue" stroke="midnightblue" points="93.56,-419.39 83.11,-421.1 92.35,-426.28 93.56,-419.39"/>
</g>
<!-- Node4 -->
<g id="node4" class="node">
<title>Node4</title>
<g id="a_node4"><a xlink:title=" ">
<polygon fill="none" stroke="#bfbfbf" points="101.46,-403.5 101.46,-422.5 169.46,-422.5 169.46,-403.5 101.46,-403.5"/>
<text text-anchor="middle" x="135.46" y="-410.5" font-family="Helvetica,sans-Serif" font-size="10.00">sys/time.h</text>
</a>
</g>
</g>
<!-- Node1&#45;&gt;Node4 -->
<g id="edge3" class="edge">
<title>Node1&#45;&gt;Node4</title>
<path fill="none" stroke="midnightblue" d="M481.44,-463.75C419.11,-456.91 294.85,-442.4 179.73,-423.11"/>
<polygon fill="midnightblue" stroke="midnightblue" points="180.13,-419.62 169.69,-421.41 178.96,-426.53 180.13,-419.62"/>
</g>
<!-- Node5 -->
<g id="node5" class="node">
<title>Node5</title>
<g id="a_node5"><a xlink:title=" ">
<polygon fill="none" stroke="#bfbfbf" points="187.46,-403.5 187.46,-422.5 251.46,-422.5 251.46,-403.5 187.46,-403.5"/>
<text text-anchor="middle" x="219.46" y="-410.5" font-family="Helvetica,sans-Serif" font-size="10.00">algorithm</text>
</a>
</g>
</g>
<!-- Node1&#45;&gt;Node5 -->
<g id="edge4" class="edge">
<title>Node1&#45;&gt;Node5</title>
<path fill="none" stroke="midnightblue" d="M481.12,-461.63C431.7,-453.69 345.21,-439.39 261.58,-423.15"/>
<polygon fill="midnightblue" stroke="midnightblue" points="262.15,-419.7 251.66,-421.21 260.81,-426.57 262.15,-419.7"/>
</g>
<!-- Node6 -->
<g id="node6" class="node">
<title>Node6</title>
<g id="a_node6"><a xlink:title=" ">
<polygon fill="none" stroke="#bfbfbf" points="269.96,-403.5 269.96,-422.5 324.96,-422.5 324.96,-403.5 269.96,-403.5"/>
<text text-anchor="middle" x="297.46" y="-410.5" font-family="Helvetica,sans-Serif" font-size="10.00">fstream</text>
</a>
</g>
</g>
<!-- Node1&#45;&gt;Node6 -->
<g id="edge5" class="edge">
<title>Node1&#45;&gt;Node6</title>
<path fill="none" stroke="midnightblue" d="M485.97,-459.44C444.71,-449.5 376.93,-433.16 334.87,-423.02"/>
<polygon fill="midnightblue" stroke="midnightblue" points="335.56,-419.58 325.02,-420.64 333.92,-426.39 335.56,-419.58"/>
</g>
<!-- Node7 -->
<g id="node7" class="node">
<title>Node7</title>
<g id="a_node7"><a xlink:title=" ">
<polygon fill="none" stroke="#bfbfbf" points="382.46,-342 382.46,-361 442.46,-361 442.46,-342 382.46,-342"/>
<text text-anchor="middle" x="412.46" y="-349" font-family="Helvetica,sans-Serif" font-size="10.00">iostream</text>
</a>
</g>
</g>
<!-- Node1&#45;&gt;Node7 -->
<g id="edge6" class="edge">
<title>Node1&#45;&gt;Node7</title>
<path fill="none" stroke="midnightblue" d="M513.27,-459.32C495.12,-440.09 451.29,-393.64 427.85,-368.81"/>
<polygon fill="midnightblue" stroke="midnightblue" points="430.16,-366.15 420.75,-361.28 425.07,-370.96 430.16,-366.15"/>
</g>
<!-- Node8 -->
<g id="node8" class="node">
<title>Node8</title>
<g id="a_node8"><a xlink:title=" ">
<polygon fill="none" stroke="#bfbfbf" points="381.46,-403.5 381.46,-422.5 437.46,-422.5 437.46,-403.5 381.46,-403.5"/>
<text text-anchor="middle" x="409.46" y="-410.5" font-family="Helvetica,sans-Serif" font-size="10.00">sstream</text>
</a>
</g>
</g>
<!-- Node1&#45;&gt;Node8 -->
<g id="edge7" class="edge">
<title>Node1&#45;&gt;Node8</title>
<path fill="none" stroke="midnightblue" d="M503.47,-459.32C485.42,-450.62 457.42,-437.12 436.66,-427.11"/>
<polygon fill="midnightblue" stroke="midnightblue" points="437.94,-423.84 427.41,-422.65 434.9,-430.15 437.94,-423.84"/>
</g>
<!-- Node9 -->
<g id="node9" class="node">
<title>Node9</title>
<g id="a_node9"><a xlink:title=" ">
<polygon fill="none" stroke="#bfbfbf" points="1449.46,-224.5 1449.46,-243.5 1487.46,-243.5 1487.46,-224.5 1449.46,-224.5"/>
<text text-anchor="middle" x="1468.46" y="-231.5" font-family="Helvetica,sans-Serif" font-size="10.00">map</text>
</a>
</g>
</g>
<!-- Node1&#45;&gt;Node9 -->
<g id="edge8" class="edge">
<title>Node1&#45;&gt;Node9</title>
<path fill="none" stroke="midnightblue" d="M561.69,-467.44C734.61,-464.85 1407.46,-452.89 1440.46,-423 1488.34,-379.64 1479.37,-292.67 1472.5,-254.13"/>
<polygon fill="midnightblue" stroke="midnightblue" points="1475.84,-252.98 1470.49,-243.83 1468.97,-254.31 1475.84,-252.98"/>
</g>
<!-- Node10 -->
<g id="node10" class="node">
<title>Node10</title>
<g id="a_node10"><a xlink:title=" ">
<polygon fill="none" stroke="#bfbfbf" points="493.46,-403.5 493.46,-422.5 549.46,-422.5 549.46,-403.5 493.46,-403.5"/>
<text text-anchor="middle" x="521.46" y="-410.5" font-family="Helvetica,sans-Serif" font-size="10.00">iomanip</text>
</a>
</g>
</g>
<!-- Node1&#45;&gt;Node10 -->
<g id="edge9" class="edge">
<title>Node1&#45;&gt;Node10</title>
<path fill="none" stroke="midnightblue" d="M521.46,-459.08C521.46,-452.01 521.46,-441.86 521.46,-432.99"/>
<polygon fill="midnightblue" stroke="midnightblue" points="524.96,-432.75 521.46,-422.75 517.96,-432.75 524.96,-432.75"/>
</g>
<!-- Node11 -->
<g id="node11" class="node">
<title>Node11</title>
<g id="a_node11"><a xlink:title=" ">
<polygon fill="none" stroke="#bfbfbf" points="567.46,-403.5 567.46,-422.5 623.46,-422.5 623.46,-403.5 567.46,-403.5"/>
<text text-anchor="middle" x="595.46" y="-410.5" font-family="Helvetica,sans-Serif" font-size="10.00">unistd.h</text>
</a>
</g>
</g>
<!-- Node1&#45;&gt;Node11 -->
<g id="edge10" class="edge">
<title>Node1&#45;&gt;Node11</title>
<path fill="none" stroke="midnightblue" d="M533.35,-459.32C544.61,-451.11 561.75,-438.6 575.17,-428.81"/>
<polygon fill="midnightblue" stroke="midnightblue" points="577.34,-431.56 583.36,-422.83 573.22,-425.9 577.34,-431.56"/>
</g>
<!-- Node12 -->
<g id="node12" class="node">
<title>Node12</title>
<g id="a_node12"><a xlink:title=" ">
<polygon fill="none" stroke="#bfbfbf" points="1363.46,-0.5 1363.46,-19.5 1407.46,-19.5 1407.46,-0.5 1363.46,-0.5"/>
<text text-anchor="middle" x="1385.46" y="-7.5" font-family="Helvetica,sans-Serif" font-size="10.00">string</text>
</a>
</g>
</g>
<!-- Node1&#45;&gt;Node12 -->
<g id="edge11" class="edge">
<title>Node1&#45;&gt;Node12</title>
<path fill="none" stroke="midnightblue" d="M561.69,-467.38C734.19,-464.56 1406.55,-451.81 1496.46,-423 1551.4,-405.39 1605.46,-410.19 1605.46,-352.5 1605.46,-352.5 1605.46,-352.5 1605.46,-121 1605.46,-38.22 1479.3,-17.73 1418.06,-12.66"/>
<polygon fill="midnightblue" stroke="midnightblue" points="1418,-9.15 1407.77,-11.91 1417.48,-16.13 1418,-9.15"/>
</g>
<!-- Node13 -->
<g id="node13" class="node">
<title>Node13</title>
<g id="a_node13"><a xlink:title=" ">
<polygon fill="none" stroke="#bfbfbf" points="192.96,-0.5 192.96,-19.5 257.96,-19.5 257.96,-0.5 192.96,-0.5"/>
<text text-anchor="middle" x="225.46" y="-7.5" font-family="Helvetica,sans-Serif" font-size="10.00">exception</text>
</a>
</g>
</g>
<!-- Node1&#45;&gt;Node13 -->
<g id="edge12" class="edge">
<title>Node1&#45;&gt;Node13</title>
<path fill="none" stroke="midnightblue" d="M481.35,-467C368.71,-463.82 55.49,-452.42 20.46,-423 -4.39,-402.13 1.46,-384.95 1.46,-352.5 1.46,-352.5 1.46,-352.5 1.46,-121 1.46,-41.18 117.49,-19.27 182.53,-13.27"/>
<polygon fill="midnightblue" stroke="midnightblue" points="183.22,-16.72 192.89,-12.41 182.64,-9.75 183.22,-16.72"/>
</g>
<!-- Node14 -->
<g id="node14" class="node">
<title>Node14</title>
<g id="a_node14"><a xlink:href="PolarfireTarget_8h_source.html" target="_top" xlink:title=" ">
<polygon fill="none" stroke="black" points="768.46,-403.5 768.46,-422.5 888.46,-422.5 888.46,-403.5 768.46,-403.5"/>
<text text-anchor="middle" x="828.46" y="-410.5" font-family="Helvetica,sans-Serif" font-size="10.00">pflib/PolarfireTarget.h</text>
</a>
</g>
</g>
<!-- Node1&#45;&gt;Node14 -->
<g id="edge13" class="edge">
<title>Node1&#45;&gt;Node14</title>
<path fill="none" stroke="midnightblue" d="M561.6,-460.94C614.79,-451.58 709.02,-435.01 770.09,-424.27"/>
<polygon fill="midnightblue" stroke="midnightblue" points="770.73,-427.71 779.97,-422.53 769.51,-420.82 770.73,-427.71"/>
</g>
<!-- Node32 -->
<g id="node32" class="node">
<title>Node32</title>
<g id="a_node32"><a xlink:href="Compile_8h.html" target="_top" xlink:title="Definition of compiling and decompiling functions between page numbers, register numbers,...">
<polygon fill="none" stroke="black" points="1487.46,-280.5 1487.46,-299.5 1577.46,-299.5 1577.46,-280.5 1487.46,-280.5"/>
<text text-anchor="middle" x="1532.46" y="-287.5" font-family="Helvetica,sans-Serif" font-size="10.00">pflib/Compile.h</text>
</a>
</g>
</g>
<!-- Node1&#45;&gt;Node32 -->
<g id="edge51" class="edge">
<title>Node1&#45;&gt;Node32</title>
<path fill="none" stroke="midnightblue" d="M561.75,-467.27C738.14,-463.92 1435.28,-449.06 1473.46,-423 1511.89,-396.78 1525.6,-339.34 1530.24,-309.63"/>
<polygon fill="midnightblue" stroke="midnightblue" points="1533.71,-310.11 1531.61,-299.72 1526.77,-309.15 1533.71,-310.11"/>
</g>
<!-- Node33 -->
<g id="node33" class="node">
<title>Node33</title>
<g id="a_node33"><a xlink:href="Menu_8h_source.html" target="_top" xlink:title=" ">
<polygon fill="none" stroke="black" points="641.96,-403.5 641.96,-422.5 694.96,-422.5 694.96,-403.5 641.96,-403.5"/>
<text text-anchor="middle" x="668.46" y="-410.5" font-family="Helvetica,sans-Serif" font-size="10.00">Menu.h</text>
</a>
</g>
</g>
<!-- Node1&#45;&gt;Node33 -->
<g id="edge55" class="edge">
<title>Node1&#45;&gt;Node33</title>
<path fill="none" stroke="midnightblue" d="M544.76,-459.44C569.27,-450.44 608.06,-436.19 635.66,-426.05"/>
<polygon fill="midnightblue" stroke="midnightblue" points="637.1,-429.25 645.28,-422.52 634.69,-422.68 637.1,-429.25"/>
</g>
<!-- Node36 -->
<g id="node36" class="node">
<title>Node36</title>
<g id="a_node36"><a xlink:href="Rcfile_8h_source.html" target="_top" xlink:title=" ">
<polygon fill="none" stroke="black" points="1339.96,-224.5 1339.96,-243.5 1392.96,-243.5 1392.96,-224.5 1339.96,-224.5"/>
<text text-anchor="middle" x="1366.46" y="-231.5" font-family="Helvetica,sans-Serif" font-size="10.00">Rcfile.h</text>
</a>
</g>
</g>
<!-- Node1&#45;&gt;Node36 -->
<g id="edge64" class="edge">
<title>Node1&#45;&gt;Node36</title>
<path fill="none" stroke="midnightblue" d="M561.6,-465.39C630.75,-460.42 776.54,-447.78 897.46,-423 1062.28,-389.22 1104.39,-374.03 1255.46,-300 1287.4,-284.35 1322.55,-263.02 1344.57,-249.13"/>
<polygon fill="midnightblue" stroke="midnightblue" points="1346.59,-251.99 1353.15,-243.67 1342.83,-246.08 1346.59,-251.99"/>
</g>
<!-- Node37 -->
<g id="node37" class="node">
<title>Node37</title>
<g id="a_node37"><a xlink:href="SuperPacket_8h_source.html" target="_top" xlink:title=" ">
<polygon fill="none" stroke="black" points="1275.46,-403.5 1275.46,-422.5 1431.46,-422.5 1431.46,-403.5 1275.46,-403.5"/>
<text text-anchor="middle" x="1353.46" y="-410.5" font-family="Helvetica,sans-Serif" font-size="10.00">pflib/decoding/SuperPacket.h</text>
</a>
</g>
</g>
<!-- Node1&#45;&gt;Node37 -->
<g id="edge67" class="edge">
<title>Node1&#45;&gt;Node37</title>
<path fill="none" stroke="midnightblue" d="M561.61,-466.08C672.87,-460.64 994.58,-444.16 1261.46,-423 1262.58,-422.91 1263.71,-422.82 1264.84,-422.73"/>
<polygon fill="midnightblue" stroke="midnightblue" points="1265.51,-426.18 1275.18,-421.86 1264.92,-419.21 1265.51,-426.18"/>
</g>
<!-- Node15 -->
<g id="node15" class="node">
<title>Node15</title>
<g id="a_node15"><a xlink:title=" ">
<polygon fill="none" stroke="#bfbfbf" points="1021.96,-342 1021.96,-361 1078.96,-361 1078.96,-342 1021.96,-342"/>
<text text-anchor="middle" x="1050.46" y="-349" font-family="Helvetica,sans-Serif" font-size="10.00">ostream</text>
</a>
</g>
</g>
<!-- Node14&#45;&gt;Node15 -->
<g id="edge14" class="edge">
<title>Node14&#45;&gt;Node15</title>
<path fill="none" stroke="midnightblue" d="M870.42,-403.49C908.21,-395.42 965.08,-382.29 1013.46,-367 1015.74,-366.28 1018.07,-365.49 1020.41,-364.66"/>
<polygon fill="midnightblue" stroke="midnightblue" points="1021.75,-367.9 1029.9,-361.13 1019.3,-361.34 1021.75,-367.9"/>
</g>
<!-- Node16 -->
<g id="node16" class="node">
<title>Node16</title>
<g id="a_node16"><a xlink:title=" ">
<polygon fill="none" stroke="#bfbfbf" points="856.46,-342 856.46,-361 914.46,-361 914.46,-342 856.46,-342"/>
<text text-anchor="middle" x="885.46" y="-349" font-family="Helvetica,sans-Serif" font-size="10.00">memory</text>
</a>
</g>
</g>
<!-- Node14&#45;&gt;Node16 -->
<g id="edge15" class="edge">
<title>Node14&#45;&gt;Node16</title>
<path fill="none" stroke="midnightblue" d="M836.63,-403.48C845.35,-394.37 859.37,-379.74 870.15,-368.48"/>
<polygon fill="midnightblue" stroke="midnightblue" points="872.92,-370.65 877.31,-361.01 867.87,-365.81 872.92,-370.65"/>
</g>
<!-- Node17 -->
<g id="node17" class="node">
<title>Node17</title>
<g id="a_node17"><a xlink:title=" ">
<polygon fill="none" stroke="#bfbfbf" points="696.96,-342 696.96,-361 761.96,-361 761.96,-342 696.96,-342"/>
<text text-anchor="middle" x="729.46" y="-349" font-family="Helvetica,sans-Serif" font-size="10.00">functional</text>
</a>
</g>
</g>
<!-- Node14&#45;&gt;Node17 -->
<g id="edge16" class="edge">
<title>Node14&#45;&gt;Node17</title>
<path fill="none" stroke="midnightblue" d="M814.28,-403.48C798.1,-393.75 771.44,-377.73 752.32,-366.24"/>
<polygon fill="midnightblue" stroke="midnightblue" points="753.99,-363.16 743.62,-361.01 750.39,-369.16 753.99,-363.16"/>
</g>
<!-- Node18 -->
<g id="node18" class="node">
<title>Node18</title>
<g id="a_node18"><a xlink:href="WishboneInterface_8h_source.html" target="_top" xlink:title=" ">
<polygon fill="none" stroke="black" points="747.96,-112.5 747.96,-131.5 888.96,-131.5 888.96,-112.5 747.96,-112.5"/>
<text text-anchor="middle" x="818.46" y="-119.5" font-family="Helvetica,sans-Serif" font-size="10.00">pflib/WishboneInterface.h</text>
</a>
</g>
</g>
<!-- Node14&#45;&gt;Node18 -->
<g id="edge17" class="edge">
<title>Node14&#45;&gt;Node18</title>
<path fill="none" stroke="midnightblue" d="M823.86,-403.43C815.31,-388.16 795.61,-355.98 771.46,-336 699.79,-276.7 632.71,-322.92 583.46,-244 542.96,-179.09 654.89,-147.41 737.88,-133.2"/>
<polygon fill="midnightblue" stroke="midnightblue" points="738.55,-136.64 747.84,-131.55 737.41,-129.73 738.55,-136.64"/>
</g>
<!-- Node21 -->
<g id="node21" class="node">
<title>Node21</title>
<g id="a_node21"><a xlink:href="Backend_8h_source.html" target="_top" xlink:title=" ">
<polygon fill="none" stroke="black" points="591.96,-224.5 591.96,-243.5 682.96,-243.5 682.96,-224.5 591.96,-224.5"/>
<text text-anchor="middle" x="637.46" y="-231.5" font-family="Helvetica,sans-Serif" font-size="10.00">pflib/Backend.h</text>
</a>
</g>
</g>
<!-- Node14&#45;&gt;Node21 -->
<g id="edge22" class="edge">
<title>Node14&#45;&gt;Node21</title>
<path fill="none" stroke="midnightblue" d="M827.69,-403.09C825.95,-387.85 820.54,-356.45 804.46,-336 769.66,-291.75 709.69,-262.39 671.88,-247.24"/>
<polygon fill="midnightblue" stroke="midnightblue" points="672.89,-243.88 662.3,-243.51 670.35,-250.4 672.89,-243.88"/>
</g>
<!-- Node23 -->
<g id="node23" class="node">
<title>Node23</title>
<g id="a_node23"><a xlink:href="Hcal_8h_source.html" target="_top" xlink:title=" ">
<polygon fill="none" stroke="black" points="932.96,-342 932.96,-361 1003.96,-361 1003.96,-342 932.96,-342"/>
<text text-anchor="middle" x="968.46" y="-349" font-family="Helvetica,sans-Serif" font-size="10.00">pflib/Hcal.h</text>
</a>
</g>
</g>
<!-- Node14&#45;&gt;Node23 -->
<g id="edge26" class="edge">
<title>Node14&#45;&gt;Node23</title>
<path fill="none" stroke="midnightblue" d="M848.52,-403.48C872.22,-393.4 911.87,-376.55 939.05,-365"/>
<polygon fill="midnightblue" stroke="midnightblue" points="940.61,-368.14 948.44,-361.01 937.87,-361.7 940.61,-368.14"/>
</g>
<!-- Node19 -->
<g id="node19" class="node">
<title>Node19</title>
<g id="a_node19"><a xlink:href="Exception_8h_source.html" target="_top" xlink:title=" ">
<polygon fill="none" stroke="black" points="410.46,-56.5 410.46,-75.5 508.46,-75.5 508.46,-56.5 410.46,-56.5"/>
<text text-anchor="middle" x="459.46" y="-63.5" font-family="Helvetica,sans-Serif" font-size="10.00">pflib/Exception.h</text>
</a>
</g>
</g>
<!-- Node18&#45;&gt;Node19 -->
<g id="edge18" class="edge">
<title>Node18&#45;&gt;Node19</title>
<path fill="none" stroke="midnightblue" d="M761.58,-112.44C695.19,-102.46 585.95,-86.03 518.61,-75.9"/>
<polygon fill="midnightblue" stroke="midnightblue" points="518.99,-72.41 508.58,-74.39 517.95,-79.34 518.99,-72.41"/>
</g>
<!-- Node20 -->
<g id="node20" class="node">
<title>Node20</title>
<g id="a_node20"><a xlink:title=" ">
<polygon fill="none" stroke="#bfbfbf" points="791.96,-56.5 791.96,-75.5 844.96,-75.5 844.96,-56.5 791.96,-56.5"/>
<text text-anchor="middle" x="818.46" y="-63.5" font-family="Helvetica,sans-Serif" font-size="10.00">stdint.h</text>
</a>
</g>
</g>
<!-- Node18&#45;&gt;Node20 -->
<g id="edge21" class="edge">
<title>Node18&#45;&gt;Node20</title>
<path fill="none" stroke="midnightblue" d="M818.46,-112.08C818.46,-105.01 818.46,-94.86 818.46,-85.99"/>
<polygon fill="midnightblue" stroke="midnightblue" points="821.96,-85.75 818.46,-75.75 814.96,-85.75 821.96,-85.75"/>
</g>
<!-- Node19&#45;&gt;Node12 -->
<g id="edge20" class="edge">
<title>Node19&#45;&gt;Node12</title>
<path fill="none" stroke="midnightblue" d="M508.59,-57.55C513.27,-56.97 517.95,-56.44 522.46,-56 845.77,-24.54 1239.51,-14.11 1353.28,-11.64"/>
<polygon fill="midnightblue" stroke="midnightblue" points="1353.48,-15.13 1363.4,-11.42 1353.33,-8.13 1353.48,-15.13"/>
</g>
<!-- Node19&#45;&gt;Node13 -->
<g id="edge19" class="edge">
<title>Node19&#45;&gt;Node13</title>
<path fill="none" stroke="midnightblue" d="M422.38,-56.44C380.42,-46.76 312.18,-31.01 268.06,-20.83"/>
<polygon fill="midnightblue" stroke="midnightblue" points="268.74,-17.4 258.21,-18.56 267.17,-24.22 268.74,-17.4"/>
</g>
<!-- Node21&#45;&gt;Node19 -->
<g id="edge23" class="edge">
<title>Node21&#45;&gt;Node19</title>
<path fill="none" stroke="midnightblue" d="M627.89,-224.08C599.02,-197.15 512.56,-116.51 476.03,-82.45"/>
<polygon fill="midnightblue" stroke="midnightblue" points="478.35,-79.83 468.65,-75.57 473.58,-84.95 478.35,-79.83"/>
</g>
<!-- Node21&#45;&gt;Node20 -->
<g id="edge24" class="edge">
<title>Node21&#45;&gt;Node20</title>
<path fill="none" stroke="midnightblue" d="M643.05,-224.49C657.19,-203.4 696.38,-147.85 739.46,-112 754.73,-99.29 774.09,-88.2 789.82,-80.21"/>
<polygon fill="midnightblue" stroke="midnightblue" points="791.65,-83.21 799.07,-75.65 788.56,-76.93 791.65,-83.21"/>
</g>
<!-- Node22 -->
<g id="node22" class="node">
<title>Node22</title>
<g id="a_node22"><a xlink:title=" ">
<polygon fill="none" stroke="#bfbfbf" points="1037.96,-168.5 1037.96,-187.5 1084.96,-187.5 1084.96,-168.5 1037.96,-168.5"/>
<text text-anchor="middle" x="1061.46" y="-175.5" font-family="Helvetica,sans-Serif" font-size="10.00">vector</text>
</a>
</g>
</g>
<!-- Node21&#45;&gt;Node22 -->
<g id="edge25" class="edge">
<title>Node21&#45;&gt;Node22</title>
<path fill="none" stroke="midnightblue" d="M683.06,-225.39C686.24,-224.91 689.4,-224.44 692.46,-224 815.62,-206.42 962.53,-189.8 1027.59,-182.66"/>
<polygon fill="midnightblue" stroke="midnightblue" points="1028.11,-186.13 1037.67,-181.56 1027.35,-179.17 1028.11,-186.13"/>
</g>
<!-- Node24 -->
<g id="node24" class="node">
<title>Node24</title>
<g id="a_node24"><a xlink:href="ROC_8h_source.html" target="_top" xlink:title=" ">
<polygon fill="none" stroke="black" points="1174.96,-280.5 1174.96,-299.5 1245.96,-299.5 1245.96,-280.5 1174.96,-280.5"/>
<text text-anchor="middle" x="1210.46" y="-287.5" font-family="Helvetica,sans-Serif" font-size="10.00">pflib/ROC.h</text>
</a>
</g>
</g>
<!-- Node23&#45;&gt;Node24 -->
<g id="edge27" class="edge">
<title>Node23&#45;&gt;Node24</title>
<path fill="none" stroke="midnightblue" d="M993.57,-341.98C1000.02,-339.91 1006.97,-337.78 1013.46,-336 1064.81,-321.89 1124.52,-308.69 1164.63,-300.29"/>
<polygon fill="midnightblue" stroke="midnightblue" points="1165.56,-303.67 1174.64,-298.2 1164.14,-296.81 1165.56,-303.67"/>
</g>
<!-- Node25 -->
<g id="node25" class="node">
<title>Node25</title>
<g id="a_node25"><a xlink:href="I2C_8h_source.html" target="_top" xlink:title=" ">
<polygon fill="none" stroke="black" points="1089.96,-224.5 1089.96,-243.5 1154.96,-243.5 1154.96,-224.5 1089.96,-224.5"/>
<text text-anchor="middle" x="1122.46" y="-231.5" font-family="Helvetica,sans-Serif" font-size="10.00">pflib/I2C.h</text>
</a>
</g>
</g>
<!-- Node23&#45;&gt;Node25 -->
<g id="edge35" class="edge">
<title>Node23&#45;&gt;Node25</title>
<path fill="none" stroke="midnightblue" d="M994.63,-341.97C1025.71,-331.43 1075.16,-313.28 1089.46,-300 1103.06,-287.38 1111.91,-267.89 1116.99,-253.54"/>
<polygon fill="midnightblue" stroke="midnightblue" points="1120.4,-254.37 1120.15,-243.77 1113.74,-252.21 1120.4,-254.37"/>
</g>
<!-- Node27 -->
<g id="node27" class="node">
<title>Node27</title>
<g id="a_node27"><a xlink:href="Bias_8h_source.html" target="_top" xlink:title=" ">
<polygon fill="none" stroke="black" points="1008.96,-280.5 1008.96,-299.5 1079.96,-299.5 1079.96,-280.5 1008.96,-280.5"/>
<text text-anchor="middle" x="1044.46" y="-287.5" font-family="Helvetica,sans-Serif" font-size="10.00">pflib/Bias.h</text>
</a>
</g>
</g>
<!-- Node23&#45;&gt;Node27 -->
<g id="edge36" class="edge">
<title>Node23&#45;&gt;Node27</title>
<path fill="none" stroke="midnightblue" d="M979.35,-341.98C991.43,-332.52 1011.13,-317.1 1025.7,-305.69"/>
<polygon fill="midnightblue" stroke="midnightblue" points="1027.88,-308.43 1033.59,-299.51 1023.56,-302.92 1027.88,-308.43"/>
</g>
<!-- Node28 -->
<g id="node28" class="node">
<title>Node28</title>
<g id="a_node28"><a xlink:href="Elinks_8h_source.html" target="_top" xlink:title=" ">
<polygon fill="none" stroke="black" points="915.96,-224.5 915.96,-243.5 994.96,-243.5 994.96,-224.5 915.96,-224.5"/>
<text text-anchor="middle" x="955.46" y="-231.5" font-family="Helvetica,sans-Serif" font-size="10.00">pflib/Elinks.h</text>
</a>
</g>
</g>
<!-- Node23&#45;&gt;Node28 -->
<g id="edge39" class="edge">
<title>Node23&#45;&gt;Node28</title>
<path fill="none" stroke="midnightblue" d="M967.49,-341.82C965.4,-323.26 960.45,-279.34 957.6,-253.97"/>
<polygon fill="midnightblue" stroke="midnightblue" points="961.05,-253.33 956.45,-243.78 954.09,-254.11 961.05,-253.33"/>
</g>
<!-- Node29 -->
<g id="node29" class="node">
<title>Node29</title>
<g id="a_node29"><a xlink:href="GPIO_8h_source.html" target="_top" xlink:title=" ">
<polygon fill="none" stroke="black" points="701.46,-224.5 701.46,-243.5 775.46,-243.5 775.46,-224.5 701.46,-224.5"/>
<text text-anchor="middle" x="738.46" y="-231.5" font-family="Helvetica,sans-Serif" font-size="10.00">pflib/GPIO.h</text>
</a>
</g>
</g>
<!-- Node23&#45;&gt;Node29 -->
<g id="edge42" class="edge">
<title>Node23&#45;&gt;Node29</title>
<path fill="none" stroke="midnightblue" d="M954.36,-341.98C931.32,-328.22 884.03,-300.56 842.46,-280 818.26,-268.03 790.11,-255.96 769.21,-247.34"/>
<polygon fill="midnightblue" stroke="midnightblue" points="770.45,-244.06 759.86,-243.51 767.79,-250.54 770.45,-244.06"/>
</g>
<!-- Node30 -->
<g id="node30" class="node">
<title>Node30</title>
<g id="a_node30"><a xlink:href="FastControl_8h_source.html" target="_top" xlink:title=" ">
<polygon fill="none" stroke="black" points="793.46,-224.5 793.46,-243.5 897.46,-243.5 897.46,-224.5 793.46,-224.5"/>
<text text-anchor="middle" x="845.46" y="-231.5" font-family="Helvetica,sans-Serif" font-size="10.00">pflib/FastControl.h</text>
</a>
</g>
</g>
<!-- Node23&#45;&gt;Node30 -->
<g id="edge45" class="edge">
<title>Node23&#45;&gt;Node30</title>
<path fill="none" stroke="midnightblue" d="M959.22,-341.82C938.56,-322.42 888.41,-275.33 862.14,-250.66"/>
<polygon fill="midnightblue" stroke="midnightblue" points="864.5,-248.08 854.81,-243.78 859.71,-253.18 864.5,-248.08"/>
</g>
<!-- Node31 -->
<g id="node31" class="node">
<title>Node31</title>
<g id="a_node31"><a xlink:href="DAQ_8h_source.html" target="_top" xlink:title=" ">
<polygon fill="none" stroke="black" points="1211.96,-224.5 1211.96,-243.5 1282.96,-243.5 1282.96,-224.5 1211.96,-224.5"/>
<text text-anchor="middle" x="1247.46" y="-231.5" font-family="Helvetica,sans-Serif" font-size="10.00">pflib/DAQ.h</text>
</a>
</g>
</g>
<!-- Node23&#45;&gt;Node31 -->
<g id="edge48" class="edge">
<title>Node23&#45;&gt;Node31</title>
<path fill="none" stroke="midnightblue" d="M994.94,-341.98C1023.69,-332.52 1070.81,-316.41 1110.46,-300 1149.89,-283.68 1194.32,-261.97 1221.6,-248.24"/>
<polygon fill="midnightblue" stroke="midnightblue" points="1223.49,-251.2 1230.84,-243.56 1220.33,-244.95 1223.49,-251.2"/>
</g>
<!-- Node24&#45;&gt;Node9 -->
<g id="edge33" class="edge">
<title>Node24&#45;&gt;Node9</title>
<path fill="none" stroke="midnightblue" d="M1246.07,-281.55C1297.6,-270.76 1392,-251 1439.51,-241.06"/>
<polygon fill="midnightblue" stroke="midnightblue" points="1440.38,-244.45 1449.45,-238.98 1438.95,-237.6 1440.38,-244.45"/>
</g>
<!-- Node24&#45;&gt;Node12 -->
<g id="edge34" class="edge">
<title>Node24&#45;&gt;Node12</title>
<path fill="none" stroke="midnightblue" d="M1237.33,-280.42C1255.37,-273.35 1278.33,-261.6 1292.46,-244 1311.31,-220.53 1311.46,-209.1 1311.46,-179 1311.46,-179 1311.46,-179 1311.46,-121 1311.46,-81.61 1344.53,-45.73 1366.46,-26.26"/>
<polygon fill="midnightblue" stroke="midnightblue" points="1368.89,-28.79 1374.22,-19.64 1364.35,-23.47 1368.89,-28.79"/>
</g>
<!-- Node24&#45;&gt;Node22 -->
<g id="edge32" class="edge">
<title>Node24&#45;&gt;Node22</title>
<path fill="none" stroke="midnightblue" d="M1206.27,-280.28C1199.32,-266.61 1184.19,-240.06 1164.46,-224 1143.95,-207.3 1116.29,-195.67 1094.8,-188.42"/>
<polygon fill="midnightblue" stroke="midnightblue" points="1095.69,-185.03 1085.1,-185.3 1093.55,-191.7 1095.69,-185.03"/>
</g>
<!-- Node24&#45;&gt;Node25 -->
<g id="edge28" class="edge">
<title>Node24&#45;&gt;Node25</title>
<path fill="none" stroke="midnightblue" d="M1196.32,-280.32C1182.6,-271.9 1161.53,-258.97 1145.4,-249.07"/>
<polygon fill="midnightblue" stroke="midnightblue" points="1146.92,-245.9 1136.57,-243.65 1143.26,-251.87 1146.92,-245.9"/>
</g>
<!-- Node25&#45;&gt;Node22 -->
<g id="edge31" class="edge">
<title>Node25&#45;&gt;Node22</title>
<path fill="none" stroke="midnightblue" d="M1112.66,-224.32C1103.64,-216.34 1090.06,-204.31 1079.14,-194.65"/>
<polygon fill="midnightblue" stroke="midnightblue" points="1081.25,-191.84 1071.44,-187.83 1076.61,-197.08 1081.25,-191.84"/>
</g>
<!-- Node26 -->
<g id="node26" class="node">
<title>Node26</title>
<g id="a_node26"><a xlink:href="WishboneTarget_8h_source.html" target="_top" xlink:title=" ">
<polygon fill="none" stroke="black" points="781.46,-168.5 781.46,-187.5 909.46,-187.5 909.46,-168.5 781.46,-168.5"/>
<text text-anchor="middle" x="845.46" y="-175.5" font-family="Helvetica,sans-Serif" font-size="10.00">pflib/WishboneTarget.h</text>
</a>
</g>
</g>
<!-- Node25&#45;&gt;Node26 -->
<g id="edge29" class="edge">
<title>Node25&#45;&gt;Node26</title>
<path fill="none" stroke="midnightblue" d="M1089.87,-226.65C1042.92,-217.49 955.7,-200.49 899.15,-189.47"/>
<polygon fill="midnightblue" stroke="midnightblue" points="899.79,-186.03 889.31,-187.55 898.45,-192.9 899.79,-186.03"/>
</g>
<!-- Node26&#45;&gt;Node18 -->
<g id="edge30" class="edge">
<title>Node26&#45;&gt;Node18</title>
<path fill="none" stroke="midnightblue" d="M841,-168.08C837.31,-160.69 831.94,-149.95 827.37,-140.81"/>
<polygon fill="midnightblue" stroke="midnightblue" points="830.44,-139.13 822.84,-131.75 824.18,-142.26 830.44,-139.13"/>
</g>
<!-- Node27&#45;&gt;Node22 -->
<g id="edge38" class="edge">
<title>Node27&#45;&gt;Node22</title>
<path fill="none" stroke="midnightblue" d="M1045.8,-280.37C1048.54,-262.62 1054.87,-221.67 1058.59,-197.6"/>
<polygon fill="midnightblue" stroke="midnightblue" points="1062.07,-198.01 1060.13,-187.59 1055.15,-196.94 1062.07,-198.01"/>
</g>
<!-- Node27&#45;&gt;Node25 -->
<g id="edge37" class="edge">
<title>Node27&#45;&gt;Node25</title>
<path fill="none" stroke="midnightblue" d="M1056.99,-280.32C1069.05,-271.98 1087.49,-259.21 1101.73,-249.35"/>
<polygon fill="midnightblue" stroke="midnightblue" points="1103.73,-252.22 1109.96,-243.65 1099.75,-246.47 1103.73,-252.22"/>
</g>
<!-- Node28&#45;&gt;Node22 -->
<g id="edge41" class="edge">
<title>Node28&#45;&gt;Node22</title>
<path fill="none" stroke="midnightblue" d="M972.49,-224.32C989.49,-215.66 1015.84,-202.24 1035.46,-192.25"/>
<polygon fill="midnightblue" stroke="midnightblue" points="1037.15,-195.31 1044.47,-187.65 1033.97,-189.08 1037.15,-195.31"/>
</g>
<!-- Node28&#45;&gt;Node26 -->
<g id="edge40" class="edge">
<title>Node28&#45;&gt;Node26</title>
<path fill="none" stroke="midnightblue" d="M937.79,-224.32C920.07,-215.62 892.56,-202.12 872.17,-192.11"/>
<polygon fill="midnightblue" stroke="midnightblue" points="873.61,-188.92 863.09,-187.65 870.53,-195.2 873.61,-188.92"/>
</g>
<!-- Node29&#45;&gt;Node22 -->
<g id="edge44" class="edge">
<title>Node29&#45;&gt;Node22</title>
<path fill="none" stroke="midnightblue" d="M775.6,-225.63C778.6,-225.07 781.58,-224.52 784.46,-224 871.95,-208.34 975.42,-192.15 1027.66,-184.13"/>
<polygon fill="midnightblue" stroke="midnightblue" points="1028.35,-187.57 1037.7,-182.6 1027.29,-180.65 1028.35,-187.57"/>
</g>
<!-- Node29&#45;&gt;Node26 -->
<g id="edge43" class="edge">
<title>Node29&#45;&gt;Node26</title>
<path fill="none" stroke="midnightblue" d="M755.65,-224.32C772.81,-215.66 799.41,-202.24 819.21,-192.25"/>
<polygon fill="midnightblue" stroke="midnightblue" points="820.96,-195.28 828.31,-187.65 817.81,-189.04 820.96,-195.28"/>
</g>
<!-- Node30&#45;&gt;Node22 -->
<g id="edge47" class="edge">
<title>Node30&#45;&gt;Node22</title>
<path fill="none" stroke="midnightblue" d="M879.69,-224.44C920.29,-214.29 987.53,-197.48 1027.86,-187.4"/>
<polygon fill="midnightblue" stroke="midnightblue" points="1028.89,-190.75 1037.74,-184.93 1027.19,-183.96 1028.89,-190.75"/>
</g>
<!-- Node30&#45;&gt;Node26 -->
<g id="edge46" class="edge">
<title>Node30&#45;&gt;Node26</title>
<path fill="none" stroke="midnightblue" d="M845.46,-224.08C845.46,-217.01 845.46,-206.86 845.46,-197.99"/>
<polygon fill="midnightblue" stroke="midnightblue" points="848.96,-197.75 845.46,-187.75 841.96,-197.75 848.96,-197.75"/>
</g>
<!-- Node31&#45;&gt;Node18 -->
<g id="edge50" class="edge">
<title>Node31&#45;&gt;Node18</title>
<path fill="none" stroke="midnightblue" d="M1230.97,-224.42C1203.43,-210.47 1146.03,-182.92 1094.46,-168 1030.03,-149.36 954.77,-137.73 899.12,-130.98"/>
<polygon fill="midnightblue" stroke="midnightblue" points="899.31,-127.47 888.96,-129.77 898.48,-134.43 899.31,-127.47"/>
</g>
<!-- Node31&#45;&gt;Node22 -->
<g id="edge49" class="edge">
<title>Node31&#45;&gt;Node22</title>
<path fill="none" stroke="midnightblue" d="M1217.99,-224.44C1184.52,-214.73 1130.02,-198.9 1094.96,-188.73"/>
<polygon fill="midnightblue" stroke="midnightblue" points="1095.77,-185.32 1085.19,-185.89 1093.82,-192.04 1095.77,-185.32"/>
</g>
<!-- Node32&#45;&gt;Node9 -->
<g id="edge52" class="edge">
<title>Node32&#45;&gt;Node9</title>
<path fill="none" stroke="midnightblue" d="M1522.18,-280.32C1512.63,-272.26 1498.18,-260.08 1486.68,-250.37"/>
<polygon fill="midnightblue" stroke="midnightblue" points="1488.83,-247.61 1478.93,-243.83 1484.32,-252.96 1488.83,-247.61"/>
</g>
<!-- Node32&#45;&gt;Node12 -->
<g id="edge53" class="edge">
<title>Node32&#45;&gt;Node12</title>
<path fill="none" stroke="midnightblue" d="M1535.29,-280.27C1541.03,-261.79 1553.46,-217.3 1553.46,-179 1553.46,-179 1553.46,-179 1553.46,-121 1553.46,-56.85 1466.67,-28.09 1417.86,-16.99"/>
<polygon fill="midnightblue" stroke="midnightblue" points="1418.28,-13.5 1407.77,-14.82 1416.81,-20.34 1418.28,-13.5"/>
</g>
<!-- Node32&#45;&gt;Node22 -->
<g id="edge54" class="edge">
<title>Node32&#45;&gt;Node22</title>
<path fill="none" stroke="midnightblue" d="M1530.35,-280.05C1526.41,-265.55 1516.48,-237.23 1496.46,-224 1430.73,-180.55 1185.63,-177.98 1095.23,-178.56"/>
<polygon fill="midnightblue" stroke="midnightblue" points="1094.96,-175.06 1084.99,-178.64 1095.02,-182.06 1094.96,-175.06"/>
</g>
<!-- Node33&#45;&gt;Node2 -->
<g id="edge56" class="edge">
<title>Node33&#45;&gt;Node2</title>
<path fill="none" stroke="midnightblue" d="M641.8,-405C638.66,-404.27 635.5,-403.59 632.46,-403 518.37,-380.87 485.45,-398.07 373.46,-367 371.17,-366.36 368.82,-365.61 366.49,-364.78"/>
<polygon fill="midnightblue" stroke="midnightblue" points="367.73,-361.5 357.14,-361.09 365.16,-368.01 367.73,-361.5"/>
</g>
<!-- Node33&#45;&gt;Node7 -->
<g id="edge62" class="edge">
<title>Node33&#45;&gt;Node7</title>
<path fill="none" stroke="midnightblue" d="M641.76,-405.19C638.63,-404.43 635.48,-403.69 632.46,-403 554.6,-385.31 533.62,-387.53 456.46,-367 453.28,-366.15 449.98,-365.2 446.7,-364.21"/>
<polygon fill="midnightblue" stroke="midnightblue" points="447.57,-360.81 436.98,-361.14 445.46,-367.49 447.57,-360.81"/>
</g>
<!-- Node33&#45;&gt;Node12 -->
<g id="edge59" class="edge">
<title>Node33&#45;&gt;Node12</title>
<path fill="none" stroke="midnightblue" d="M661.15,-403.29C641.79,-379.62 589.51,-311.34 571.46,-244 562.59,-210.9 563.91,-195.42 584.46,-168 645.33,-86.79 686.32,-85.37 783.46,-56 891.59,-23.31 1244.49,-13.76 1353.25,-11.57"/>
<polygon fill="midnightblue" stroke="midnightblue" points="1353.36,-15.06 1363.29,-11.37 1353.22,-8.07 1353.36,-15.06"/>
</g>
<!-- Node33&#45;&gt;Node17 -->
<g id="edge61" class="edge">
<title>Node33&#45;&gt;Node17</title>
<path fill="none" stroke="midnightblue" d="M677.2,-403.48C686.62,-394.28 701.83,-379.46 713.41,-368.16"/>
<polygon fill="midnightblue" stroke="midnightblue" points="716.02,-370.5 720.74,-361.01 711.14,-365.49 716.02,-370.5"/>
</g>
<!-- Node33&#45;&gt;Node19 -->
<g id="edge63" class="edge">
<title>Node33&#45;&gt;Node19</title>
<path fill="none" stroke="midnightblue" d="M641.7,-405.29C591.81,-392.79 489.63,-367.17 489.46,-367 464.86,-342.36 470.46,-325.82 470.46,-291 470.46,-291 470.46,-291 470.46,-177 470.46,-144.79 465.73,-107.53 462.48,-85.69"/>
<polygon fill="midnightblue" stroke="midnightblue" points="465.89,-84.87 460.9,-75.53 458.98,-85.95 465.89,-84.87"/>
</g>
<!-- Node33&#45;&gt;Node22 -->
<g id="edge60" class="edge">
<title>Node33&#45;&gt;Node22</title>
<path fill="none" stroke="midnightblue" d="M668.16,-403.4C668.09,-387.78 670.28,-354.66 688.46,-336 790.54,-231.23 881.08,-322.58 1004.46,-244 1023.78,-231.7 1040.32,-210.97 1050.53,-196.23"/>
<polygon fill="midnightblue" stroke="midnightblue" points="1053.67,-197.82 1056.29,-187.56 1047.84,-193.95 1053.67,-197.82"/>
</g>
<!-- Node34 -->
<g id="node34" class="node">
<title>Node34</title>
<g id="a_node34"><a xlink:title=" ">
<polygon fill="none" stroke="#bfbfbf" points="548.96,-342 548.96,-361 601.96,-361 601.96,-342 548.96,-342"/>
<text text-anchor="middle" x="575.46" y="-349" font-family="Helvetica,sans-Serif" font-size="10.00">string.h</text>
</a>
</g>
</g>
<!-- Node33&#45;&gt;Node34 -->
<g id="edge57" class="edge">
<title>Node33&#45;&gt;Node34</title>
<path fill="none" stroke="midnightblue" d="M655.14,-403.48C640.08,-393.84 615.35,-378.02 597.43,-366.55"/>
<polygon fill="midnightblue" stroke="midnightblue" points="599.07,-363.45 588.76,-361.01 595.3,-369.35 599.07,-363.45"/>
</g>
<!-- Node35 -->
<g id="node35" class="node">
<title>Node35</title>
<g id="a_node35"><a xlink:title=" ">
<polygon fill="none" stroke="#bfbfbf" points="498.46,-342 498.46,-361 530.46,-361 530.46,-342 498.46,-342"/>
<text text-anchor="middle" x="514.46" y="-349" font-family="Helvetica,sans-Serif" font-size="10.00">list</text>
</a>
</g>
</g>
<!-- Node33&#45;&gt;Node35 -->
<g id="edge58" class="edge">
<title>Node33&#45;&gt;Node35</title>
<path fill="none" stroke="midnightblue" d="M641.47,-403.99C615.2,-395.85 574.39,-382.29 540.46,-367 539.62,-366.62 538.76,-366.22 537.9,-365.81"/>
<polygon fill="midnightblue" stroke="midnightblue" points="539.3,-362.59 528.81,-361.08 536.07,-368.8 539.3,-362.59"/>
</g>
<!-- Node36&#45;&gt;Node12 -->
<g id="edge65" class="edge">
<title>Node36&#45;&gt;Node12</title>
<path fill="none" stroke="midnightblue" d="M1367.21,-224.3C1370,-191.63 1379.91,-75.87 1383.84,-29.96"/>
<polygon fill="midnightblue" stroke="midnightblue" points="1387.34,-30.15 1384.7,-19.88 1380.36,-29.55 1387.34,-30.15"/>
</g>
<!-- Node36&#45;&gt;Node22 -->
<g id="edge66" class="edge">
<title>Node36&#45;&gt;Node22</title>
<path fill="none" stroke="midnightblue" d="M1339.93,-228.3C1284.44,-218.48 1156.23,-195.78 1095.09,-184.95"/>
<polygon fill="midnightblue" stroke="midnightblue" points="1095.63,-181.5 1085.17,-183.2 1094.41,-188.39 1095.63,-181.5"/>
</g>
<!-- Node38 -->
<g id="node38" class="node">
<title>Node38</title>
<g id="a_node38"><a xlink:href="PolarfirePacket_8h_source.html" target="_top" xlink:title=" ">
<polygon fill="none" stroke="black" points="1295.46,-336.5 1295.46,-366.5 1423.46,-366.5 1423.46,-336.5 1295.46,-336.5"/>
<text text-anchor="start" x="1303.46" y="-354.5" font-family="Helvetica,sans-Serif" font-size="10.00">pflib/decoding/Polarfire</text>
<text text-anchor="middle" x="1359.46" y="-343.5" font-family="Helvetica,sans-Serif" font-size="10.00">Packet.h</text>
</a>
</g>
</g>
<!-- Node37&#45;&gt;Node38 -->
<g id="edge68" class="edge">
<title>Node37&#45;&gt;Node38</title>
<path fill="none" stroke="midnightblue" d="M1354.32,-403.48C1355.03,-396.47 1356.07,-386.19 1357.02,-376.7"/>
<polygon fill="midnightblue" stroke="midnightblue" points="1360.53,-376.82 1358.05,-366.52 1353.56,-376.12 1360.53,-376.82"/>
</g>
<!-- Node39 -->
<g id="node39" class="node">
<title>Node39</title>
<g id="a_node39"><a xlink:href="RocPacket_8h_source.html" target="_top" xlink:title=" ">
<polygon fill="none" stroke="black" points="1036.46,-112.5 1036.46,-131.5 1182.46,-131.5 1182.46,-112.5 1036.46,-112.5"/>
<text text-anchor="middle" x="1109.46" y="-119.5" font-family="Helvetica,sans-Serif" font-size="10.00">pflib/decoding/RocPacket.h</text>
</a>
</g>
</g>
<!-- Node38&#45;&gt;Node39 -->
<g id="edge69" class="edge">
<title>Node38&#45;&gt;Node39</title>
<path fill="none" stroke="midnightblue" d="M1371.99,-336.38C1392.35,-311.63 1427.91,-259.7 1402.46,-224 1355.2,-157.71 1261.45,-134.5 1192.67,-126.6"/>
<polygon fill="midnightblue" stroke="midnightblue" points="1193.03,-123.12 1182.72,-125.54 1192.29,-130.08 1193.03,-123.12"/>
</g>
<!-- Node39&#45;&gt;Node20 -->
<g id="edge70" class="edge">
<title>Node39&#45;&gt;Node20</title>
<path fill="none" stroke="midnightblue" d="M1063.35,-112.44C1005.66,-101.74 908.03,-83.62 855.14,-73.81"/>
<polygon fill="midnightblue" stroke="midnightblue" points="855.66,-70.34 845.19,-71.96 854.38,-77.23 855.66,-70.34"/>
</g>
</g>
</svg>
