<?xml version="1.0" encoding="UTF-8" standalone="no"?>
<!DOCTYPE svg PUBLIC "-//W3C//DTD SVG 1.1//EN"
 "http://www.w3.org/Graphics/SVG/1.1/DTD/svg11.dtd">
<!-- Generated by graphviz version 2.43.0 (0)
 -->
<!-- Title: calibrun_hardcoded_values Pages: 1 -->
<svg width="158pt" height="207pt"
 viewBox="0.00 0.00 158.00 207.00" xmlns="http://www.w3.org/2000/svg" xmlns:xlink="http://www.w3.org/1999/xlink">
<g id="graph0" class="graph" transform="scale(1 1) rotate(0) translate(4 203)">
<title>calibrun_hardcoded_values</title>
<!-- Node1 -->
<g id="node1" class="node">
<title>Node1</title>
<g id="a_node1"><a xlink:title=" ">
<polygon fill="#bfbfbf" stroke="black" points="0,-0.5 0,-30.5 112,-30.5 112,-0.5 0,-0.5"/>
<text text-anchor="start" x="8" y="-18.5" font-family="Helvetica,sans-Serif" font-size="10.00">calibrun_hardcoded</text>
<text text-anchor="middle" x="56" y="-7.5" font-family="Helvetica,sans-Serif" font-size="10.00">_values</text>
</a>
</g>
</g>
<!-- Node2 -->
<g id="node2" class="node">
<title>Node2</title>
<g id="a_node2"><a target="_parent" xlink:href="http://en.cppreference.com/w/cpp/string/basic_string.html" xlink:title=" ">
<polygon fill="none" stroke="black" points="23.5,-111.5 23.5,-130.5 88.5,-130.5 88.5,-111.5 23.5,-111.5"/>
<text text-anchor="middle" x="56" y="-118.5" font-family="Helvetica,sans-Serif" font-size="10.00">std::string</text>
</a>
</g>
</g>
<!-- Node2&#45;&gt;Node1 -->
<g id="edge1" class="edge">
<title>Node2&#45;&gt;Node1</title>
<path fill="none" stroke="#9a32cd" stroke-dasharray="5,2" d="M56,-101C56,-80.74 56,-49.11 56,-30.84"/>
<polygon fill="#9a32cd" stroke="#9a32cd" points="52.5,-101.18 56,-111.18 59.5,-101.18 52.5,-101.18"/>
<text text-anchor="middle" x="103" y="-85" font-family="Helvetica,sans-Serif" font-size="10.00"> intctest_page</text>
<text text-anchor="middle" x="103" y="-74" font-family="Helvetica,sans-Serif" font-size="10.00">intctest_parameter</text>
<text text-anchor="middle" x="103" y="-63" font-family="Helvetica,sans-Serif" font-size="10.00">l1offset_page</text>
<text text-anchor="middle" x="103" y="-52" font-family="Helvetica,sans-Serif" font-size="10.00">l1offset_parameter</text>
</g>
<!-- Node3 -->
<g id="node3" class="node">
<title>Node3</title>
<g id="a_node3"><a target="_parent" xlink:href="http://en.cppreference.com/w/cpp/string/basic_string.html" xlink:title=" ">
<polygon fill="none" stroke="black" points="4,-168.5 4,-198.5 108,-198.5 108,-168.5 4,-168.5"/>
<text text-anchor="start" x="12" y="-186.5" font-family="Helvetica,sans-Serif" font-size="10.00">std::basic_string&lt;</text>
<text text-anchor="middle" x="56" y="-175.5" font-family="Helvetica,sans-Serif" font-size="10.00"> char &gt;</text>
</a>
</g>
</g>
<!-- Node3&#45;&gt;Node2 -->
<g id="edge2" class="edge">
<title>Node3&#45;&gt;Node2</title>
<path fill="none" stroke="midnightblue" d="M56,-158.35C56,-148.51 56,-137.78 56,-130.54"/>
<polygon fill="midnightblue" stroke="midnightblue" points="52.5,-158.47 56,-168.47 59.5,-158.47 52.5,-158.47"/>
</g>
</g>
</svg>
