<?xml version="1.0" encoding="UTF-8" standalone="no"?>
<!DOCTYPE svg PUBLIC "-//W3C//DTD SVG 1.1//EN"
 "http://www.w3.org/Graphics/SVG/1.1/DTD/svg11.dtd">
<!-- Generated by graphviz version 2.43.0 (0)
 -->
<!-- Title: pflib::PolarfireTarget Pages: 1 -->
<svg width="474pt" height="305pt"
 viewBox="0.00 0.00 474.00 305.00" xmlns="http://www.w3.org/2000/svg" xmlns:xlink="http://www.w3.org/1999/xlink">
<g id="graph0" class="graph" transform="scale(1 1) rotate(0) translate(4 301)">
<title>pflib::PolarfireTarget</title>
<!-- Node1 -->
<g id="node1" class="node">
<title>Node1</title>
<g id="a_node1"><a xlink:title="Interface to a single polarfire.">
<polygon fill="#bfbfbf" stroke="black" points="133,-0.5 133,-19.5 247,-19.5 247,-0.5 133,-0.5"/>
<text text-anchor="middle" x="190" y="-7.5" font-family="Helvetica,sans-Serif" font-size="10.00">pflib::PolarfireTarget</text>
</a>
</g>
</g>
<!-- Node2 -->
<g id="node2" class="node">
<title>Node2</title>
<g id="a_node2"><a xlink:href="classpflib_1_1WishboneInterface.html" target="_top" xlink:title="Abstract interface for wishbone transactions, used by ~all classes in pflib.">
<polygon fill="none" stroke="black" points="50.5,-277.5 50.5,-296.5 185.5,-296.5 185.5,-277.5 50.5,-277.5"/>
<text text-anchor="middle" x="118" y="-284.5" font-family="Helvetica,sans-Serif" font-size="10.00">pflib::WishboneInterface</text>
</a>
</g>
</g>
<!-- Node2&#45;&gt;Node1 -->
<g id="edge1" class="edge">
<title>Node2&#45;&gt;Node1</title>
<path fill="none" stroke="#9a32cd" stroke-dasharray="5,2" d="M54.31,-274.49C26.45,-265.42 0,-249.35 0,-221 0,-221 0,-221 0,-76 0,-47.59 77.03,-29 132.99,-19.25"/>
<polygon fill="#9a32cd" stroke="#9a32cd" points="53.6,-277.93 64.18,-277.42 55.59,-271.22 53.6,-277.93"/>
<text text-anchor="middle" x="9" y="-141.5" font-family="Helvetica,sans-Serif" font-size="10.00"> wb</text>
</g>
<!-- Node4 -->
<g id="node4" class="node">
<title>Node4</title>
<g id="a_node4"><a xlink:href="classpflib_1_1Hcal.html" target="_top" xlink:title="representing a standard HCAL motherboard">
<polygon fill="none" stroke="black" points="157.5,-67.5 157.5,-86.5 222.5,-86.5 222.5,-67.5 157.5,-67.5"/>
<text text-anchor="middle" x="190" y="-74.5" font-family="Helvetica,sans-Serif" font-size="10.00">pflib::Hcal</text>
</a>
</g>
</g>
<!-- Node2&#45;&gt;Node4 -->
<g id="edge4" class="edge">
<title>Node2&#45;&gt;Node4</title>
<path fill="none" stroke="#9a32cd" stroke-dasharray="5,2" d="M103.26,-269.51C79.04,-240.32 36.22,-178.43 65,-134 85.3,-102.67 127.71,-88.7 157.48,-82.59"/>
<polygon fill="#9a32cd" stroke="#9a32cd" points="100.92,-272.16 110.09,-277.47 106.23,-267.6 100.92,-272.16"/>
<text text-anchor="middle" x="70.5" y="-179.5" font-family="Helvetica,sans-Serif" font-size="10.00"> wb_</text>
</g>
<!-- Node6 -->
<g id="node6" class="node">
<title>Node6</title>
<g id="a_node6"><a xlink:href="classpflib_1_1WishboneTarget.html" target="_top" xlink:title="Parent class for standard wishbone targets providing some utilities.">
<polygon fill="none" stroke="black" points="129,-210.5 129,-229.5 251,-229.5 251,-210.5 129,-210.5"/>
<text text-anchor="middle" x="190" y="-217.5" font-family="Helvetica,sans-Serif" font-size="10.00">pflib::WishboneTarget</text>
</a>
</g>
</g>
<!-- Node2&#45;&gt;Node6 -->
<g id="edge7" class="edge">
<title>Node2&#45;&gt;Node6</title>
<path fill="none" stroke="#9a32cd" stroke-dasharray="5,2" d="M135.33,-270.36C149.48,-257.58 168.96,-239.99 180.44,-229.63"/>
<polygon fill="#9a32cd" stroke="#9a32cd" points="132.79,-267.93 127.71,-277.23 137.48,-273.13 132.79,-267.93"/>
<text text-anchor="middle" x="170.5" y="-251" font-family="Helvetica,sans-Serif" font-size="10.00"> wb_</text>
</g>
<!-- Node10 -->
<g id="node10" class="node">
<title>Node10</title>
<g id="a_node10"><a xlink:href="classpflib_1_1DAQ.html" target="_top" xlink:title="Interface with DAQ via a WishboneInterface.">
<polygon fill="none" stroke="black" points="384.5,-172.5 384.5,-191.5 449.5,-191.5 449.5,-172.5 384.5,-172.5"/>
<text text-anchor="middle" x="417" y="-179.5" font-family="Helvetica,sans-Serif" font-size="10.00">pflib::DAQ</text>
</a>
</g>
</g>
<!-- Node2&#45;&gt;Node10 -->
<g id="edge15" class="edge">
<title>Node2&#45;&gt;Node10</title>
<path fill="none" stroke="#9a32cd" stroke-dasharray="5,2" d="M152.27,-274.19C213.19,-253.21 338.94,-209.89 392.25,-191.53"/>
<polygon fill="#9a32cd" stroke="#9a32cd" points="151.04,-270.92 142.72,-277.48 153.32,-277.54 151.04,-270.92"/>
<text text-anchor="middle" x="234.5" y="-251" font-family="Helvetica,sans-Serif" font-size="10.00"> wb_</text>
</g>
<!-- Node3 -->
<g id="node3" class="node">
<title>Node3</title>
<g id="a_node3"><a xlink:href="classpflib_1_1Backend.html" target="_top" xlink:title="Abstract interface for various backend manipulations.">
<polygon fill="none" stroke="black" points="240.5,-67.5 240.5,-86.5 325.5,-86.5 325.5,-67.5 240.5,-67.5"/>
<text text-anchor="middle" x="283" y="-74.5" font-family="Helvetica,sans-Serif" font-size="10.00">pflib::Backend</text>
</a>
</g>
</g>
<!-- Node3&#45;&gt;Node1 -->
<g id="edge2" class="edge">
<title>Node3&#45;&gt;Node1</title>
<path fill="none" stroke="#9a32cd" stroke-dasharray="5,2" d="M262.14,-61.42C243.75,-48.57 217.59,-30.28 202.34,-19.63"/>
<polygon fill="#9a32cd" stroke="#9a32cd" points="260.26,-64.37 270.46,-67.23 264.27,-58.64 260.26,-64.37"/>
<text text-anchor="middle" x="264" y="-41" font-family="Helvetica,sans-Serif" font-size="10.00"> backend</text>
</g>
<!-- Node4&#45;&gt;Node1 -->
<g id="edge3" class="edge">
<title>Node4&#45;&gt;Node1</title>
<path fill="none" stroke="#9a32cd" stroke-dasharray="5,2" d="M190,-57.04C190,-44.67 190,-29.12 190,-19.63"/>
<polygon fill="#9a32cd" stroke="#9a32cd" points="186.5,-57.23 190,-67.23 193.5,-57.23 186.5,-57.23"/>
<text text-anchor="middle" x="202" y="-41" font-family="Helvetica,sans-Serif" font-size="10.00"> hcal</text>
</g>
<!-- Node5 -->
<g id="node5" class="node">
<title>Node5</title>
<g id="a_node5"><a xlink:href="classpflib_1_1GPIO.html" target="_top" xlink:title="Representation of GPIO controller in the Polarfire.">
<polygon fill="none" stroke="black" points="74,-134.5 74,-153.5 142,-153.5 142,-134.5 74,-134.5"/>
<text text-anchor="middle" x="108" y="-141.5" font-family="Helvetica,sans-Serif" font-size="10.00">pflib::GPIO</text>
</a>
</g>
</g>
<!-- Node5&#45;&gt;Node4 -->
<g id="edge5" class="edge">
<title>Node5&#45;&gt;Node4</title>
<path fill="none" stroke="#9a32cd" stroke-dasharray="5,2" d="M127.28,-127.71C143.44,-114.91 165.92,-97.09 179.12,-86.63"/>
<polygon fill="#9a32cd" stroke="#9a32cd" points="124.72,-125.28 119.06,-134.23 129.07,-130.76 124.72,-125.28"/>
<text text-anchor="middle" x="169" y="-108" font-family="Helvetica,sans-Serif" font-size="10.00"> gpio_</text>
</g>
<!-- Node6&#45;&gt;Node5 -->
<g id="edge6" class="edge">
<title>Node6&#45;&gt;Node5</title>
<path fill="none" stroke="midnightblue" d="M172.75,-203.43C155.92,-188.25 130.95,-165.71 117.46,-153.54"/>
<polygon fill="midnightblue" stroke="midnightblue" points="170.5,-206.12 180.27,-210.22 175.19,-200.92 170.5,-206.12"/>
</g>
<!-- Node7 -->
<g id="node7" class="node">
<title>Node7</title>
<g id="a_node7"><a xlink:href="classpflib_1_1I2C.html" target="_top" xlink:title="Class which encapsulates the I2C controller in the Polarfire.">
<polygon fill="none" stroke="black" points="160.5,-134.5 160.5,-153.5 219.5,-153.5 219.5,-134.5 160.5,-134.5"/>
<text text-anchor="middle" x="190" y="-141.5" font-family="Helvetica,sans-Serif" font-size="10.00">pflib::I2C</text>
</a>
</g>
</g>
<!-- Node6&#45;&gt;Node7 -->
<g id="edge9" class="edge">
<title>Node6&#45;&gt;Node7</title>
<path fill="none" stroke="midnightblue" d="M190,-200.07C190,-185.18 190,-165.11 190,-153.77"/>
<polygon fill="midnightblue" stroke="midnightblue" points="186.5,-200.22 190,-210.22 193.5,-200.22 186.5,-200.22"/>
</g>
<!-- Node8 -->
<g id="node8" class="node">
<title>Node8</title>
<g id="a_node8"><a xlink:href="classpflib_1_1Elinks.html" target="_top" xlink:title="WishboneTarget for configuring the elinks.">
<polygon fill="none" stroke="black" points="237.5,-134.5 237.5,-153.5 310.5,-153.5 310.5,-134.5 237.5,-134.5"/>
<text text-anchor="middle" x="274" y="-141.5" font-family="Helvetica,sans-Serif" font-size="10.00">pflib::Elinks</text>
</a>
</g>
</g>
<!-- Node6&#45;&gt;Node8 -->
<g id="edge11" class="edge">
<title>Node6&#45;&gt;Node8</title>
<path fill="none" stroke="midnightblue" d="M207.67,-203.43C224.91,-188.25 250.49,-165.71 264.31,-153.54"/>
<polygon fill="midnightblue" stroke="midnightblue" points="205.16,-200.98 199.97,-210.22 209.78,-206.24 205.16,-200.98"/>
</g>
<!-- Node9 -->
<g id="node9" class="node">
<title>Node9</title>
<g id="a_node9"><a xlink:href="classpflib_1_1FastControl.html" target="_top" xlink:title="Representation of FastControl controller in the Polarfire.">
<polygon fill="none" stroke="black" points="329,-134.5 329,-153.5 427,-153.5 427,-134.5 329,-134.5"/>
<text text-anchor="middle" x="378" y="-141.5" font-family="Helvetica,sans-Serif" font-size="10.00">pflib::FastControl</text>
</a>
</g>
</g>
<!-- Node6&#45;&gt;Node9 -->
<g id="edge13" class="edge">
<title>Node6&#45;&gt;Node9</title>
<path fill="none" stroke="midnightblue" d="M221.53,-206.59C259.72,-191.56 323.04,-166.63 356.21,-153.58"/>
<polygon fill="midnightblue" stroke="midnightblue" points="219.96,-203.45 211.93,-210.37 222.52,-209.96 219.96,-203.45"/>
</g>
<!-- Node7&#45;&gt;Node4 -->
<g id="edge8" class="edge">
<title>Node7&#45;&gt;Node4</title>
<path fill="none" stroke="#9a32cd" stroke-dasharray="5,2" d="M190,-124.04C190,-111.67 190,-96.12 190,-86.63"/>
<polygon fill="#9a32cd" stroke="#9a32cd" points="186.5,-124.23 190,-134.23 193.5,-124.23 186.5,-124.23"/>
<text text-anchor="middle" x="201.5" y="-108" font-family="Helvetica,sans-Serif" font-size="10.00"> i2c_</text>
</g>
<!-- Node8&#45;&gt;Node4 -->
<g id="edge10" class="edge">
<title>Node8&#45;&gt;Node4</title>
<path fill="none" stroke="#9a32cd" stroke-dasharray="5,2" d="M254.7,-128.07C238.12,-115.24 214.79,-97.19 201.15,-86.63"/>
<polygon fill="#9a32cd" stroke="#9a32cd" points="252.62,-130.88 262.67,-134.23 256.9,-125.35 252.62,-130.88"/>
<text text-anchor="middle" x="256" y="-108" font-family="Helvetica,sans-Serif" font-size="10.00"> elinks_</text>
</g>
<!-- Node9&#45;&gt;Node4 -->
<g id="edge12" class="edge">
<title>Node9&#45;&gt;Node4</title>
<path fill="none" stroke="#9a32cd" stroke-dasharray="5,2" d="M347.37,-130.59C327.92,-122.87 302.13,-112.94 279,-105 259.6,-98.34 237.55,-91.65 220.25,-86.59"/>
<polygon fill="#9a32cd" stroke="#9a32cd" points="346.33,-133.94 356.92,-134.4 348.93,-127.44 346.33,-133.94"/>
<text text-anchor="middle" x="318" y="-108" font-family="Helvetica,sans-Serif" font-size="10.00"> fc_</text>
</g>
<!-- Node10&#45;&gt;Node4 -->
<g id="edge14" class="edge">
<title>Node10&#45;&gt;Node4</title>
<path fill="none" stroke="#9a32cd" stroke-dasharray="5,2" d="M431.52,-164.36C438.03,-154.83 442.86,-143.01 436,-134 379.64,-59.97 323.27,-105.07 232,-87 228.93,-86.39 225.73,-85.74 222.54,-85.08"/>
<polygon fill="#9a32cd" stroke="#9a32cd" points="428.71,-162.28 425.37,-172.33 434.25,-166.56 428.71,-162.28"/>
<text text-anchor="middle" x="452.5" y="-141.5" font-family="Helvetica,sans-Serif" font-size="10.00"> daq_</text>
</g>
</g>
</svg>
